<svg xmlns="http://www.w3.org/2000/svg" xmlns:xlink="http://www.w3.org/1999/xlink" width="55" zoomAndPan="magnify" viewBox="0 0 41.25 41.250001" height="55" preserveAspectRatio="xMidYMid meet" version="1.0"><defs><clipPath id="5b6ac567bb"><path d="M 0 0 L 40.511719 0 L 40.511719 40.511719 L 0 40.511719 Z M 0 0 " clip-rule="nonzero"/></clipPath><clipPath id="50fe34b816"><path d="M 12.152344 12.691406 L 28.359375 12.691406 L 28.359375 28 L 12.152344 28 Z M 12.152344 12.691406 " clip-rule="nonzero"/></clipPath></defs><g clip-path="url(#5b6ac567bb)"><path fill="#ffffff" d="M 0 0 L 40.511719 0 L 40.511719 40.511719 L 0 40.511719 Z M 0 0 " fill-opacity="1" fill-rule="nonzero"/><path fill="#ffffff" d="M 0 0 L 40.511719 0 L 40.511719 40.511719 L 0 40.511719 Z M 0 0 " fill-opacity="1" fill-rule="nonzero"/></g><g clip-path="url(#50fe34b816)"><path fill="#004a82" d="M 20.257812 23.523438 C 20.613281 23.523438 20.964844 23.488281 21.3125 23.417969 C 21.660156 23.347656 22 23.246094 22.328125 23.109375 C 22.65625 22.972656 22.96875 22.808594 23.265625 22.609375 C 23.5625 22.414062 23.835938 22.1875 24.085938 21.9375 C 24.335938 21.683594 24.5625 21.410156 24.757812 21.117188 C 24.957031 20.820312 25.125 20.507812 25.261719 20.179688 C 25.394531 19.851562 25.5 19.511719 25.566406 19.164062 C 25.636719 18.816406 25.671875 18.460938 25.671875 18.105469 C 25.671875 17.75 25.636719 17.398438 25.566406 17.050781 C 25.5 16.703125 25.394531 16.363281 25.261719 16.035156 C 25.125 15.707031 24.957031 15.394531 24.757812 15.097656 C 24.5625 14.800781 24.335938 14.527344 24.085938 14.277344 C 23.835938 14.027344 23.5625 13.800781 23.265625 13.605469 C 22.96875 13.40625 22.65625 13.238281 22.328125 13.105469 C 22 12.96875 21.660156 12.863281 21.3125 12.796875 C 20.964844 12.726562 20.613281 12.691406 20.257812 12.691406 C 19.902344 12.691406 19.550781 12.726562 19.199219 12.796875 C 18.851562 12.863281 18.511719 12.96875 18.183594 13.105469 C 17.855469 13.238281 17.542969 13.40625 17.246094 13.605469 C 16.953125 13.800781 16.679688 14.027344 16.425781 14.277344 C 16.175781 14.527344 15.953125 14.800781 15.753906 15.097656 C 15.554688 15.394531 15.390625 15.707031 15.253906 16.035156 C 15.117188 16.363281 15.015625 16.703125 14.945312 17.050781 C 14.875 17.398438 14.839844 17.75 14.839844 18.105469 C 14.839844 18.460938 14.875 18.8125 14.945312 19.164062 C 15.015625 19.511719 15.117188 19.851562 15.253906 20.179688 C 15.390625 20.507812 15.558594 20.820312 15.753906 21.113281 C 15.953125 21.410156 16.179688 21.683594 16.429688 21.933594 C 16.679688 22.1875 16.953125 22.410156 17.25 22.609375 C 17.546875 22.804688 17.855469 22.972656 18.183594 23.109375 C 18.511719 23.246094 18.851562 23.347656 19.199219 23.417969 C 19.550781 23.488281 19.902344 23.523438 20.257812 23.523438 Z M 20.257812 13.292969 C 20.574219 13.292969 20.886719 13.324219 21.195312 13.386719 C 21.503906 13.445312 21.808594 13.539062 22.097656 13.660156 C 22.390625 13.78125 22.667969 13.929688 22.929688 14.105469 C 23.195312 14.28125 23.4375 14.480469 23.660156 14.703125 C 23.882812 14.925781 24.082031 15.167969 24.257812 15.433594 C 24.433594 15.695312 24.582031 15.972656 24.703125 16.265625 C 24.824219 16.558594 24.917969 16.859375 24.976562 17.167969 C 25.039062 17.476562 25.070312 17.789062 25.070312 18.105469 C 25.070312 18.421875 25.039062 18.734375 24.976562 19.046875 C 24.917969 19.355469 24.824219 19.65625 24.703125 19.949219 C 24.582031 20.242188 24.433594 20.519531 24.257812 20.78125 C 24.082031 21.042969 23.882812 21.289062 23.660156 21.511719 C 23.4375 21.734375 23.195312 21.933594 22.929688 22.109375 C 22.667969 22.285156 22.390625 22.433594 22.097656 22.554688 C 21.808594 22.675781 21.503906 22.765625 21.195312 22.828125 C 20.886719 22.890625 20.574219 22.921875 20.257812 22.921875 C 19.941406 22.921875 19.628906 22.890625 19.316406 22.828125 C 19.007812 22.765625 18.707031 22.675781 18.414062 22.554688 C 18.121094 22.433594 17.84375 22.285156 17.582031 22.109375 C 17.320312 21.933594 17.078125 21.734375 16.851562 21.511719 C 16.628906 21.289062 16.429688 21.042969 16.253906 20.78125 C 16.078125 20.519531 15.929688 20.242188 15.808594 19.949219 C 15.6875 19.65625 15.597656 19.355469 15.535156 19.046875 C 15.472656 18.734375 15.441406 18.421875 15.441406 18.105469 C 15.441406 17.789062 15.472656 17.476562 15.535156 17.167969 C 15.597656 16.859375 15.691406 16.558594 15.8125 16.265625 C 15.933594 15.972656 16.082031 15.695312 16.253906 15.433594 C 16.429688 15.171875 16.632812 14.929688 16.855469 14.703125 C 17.078125 14.480469 17.320312 14.28125 17.582031 14.105469 C 17.847656 13.929688 18.125 13.78125 18.414062 13.660156 C 18.707031 13.539062 19.007812 13.449219 19.316406 13.386719 C 19.628906 13.324219 19.941406 13.292969 20.257812 13.292969 Z M 28.222656 22.3125 L 27.382812 22.925781 L 27.703125 23.910156 C 27.738281 24.035156 27.703125 24.132812 27.601562 24.207031 C 27.496094 24.285156 27.394531 24.285156 27.289062 24.214844 L 26.449219 23.601562 L 25.609375 24.214844 C 25.503906 24.285156 25.398438 24.285156 25.292969 24.210938 C 25.191406 24.132812 25.15625 24.035156 25.195312 23.910156 L 25.515625 22.925781 L 24.675781 22.3125 C 24.574219 22.238281 24.542969 22.136719 24.582031 22.015625 C 24.621094 21.894531 24.703125 21.832031 24.832031 21.828125 L 25.871094 21.828125 L 26.191406 20.839844 C 26.234375 20.71875 26.320312 20.660156 26.449219 20.660156 C 26.574219 20.660156 26.660156 20.71875 26.703125 20.839844 L 27.023438 21.828125 L 28.0625 21.828125 C 28.199219 21.820312 28.285156 21.882812 28.328125 22.011719 C 28.367188 22.140625 28.332031 22.238281 28.222656 22.3125 Z M 25.527344 25.007812 L 24.6875 25.617188 L 25.007812 26.605469 C 25.042969 26.726562 25.007812 26.828125 24.90625 26.902344 C 24.800781 26.976562 24.699219 26.976562 24.59375 26.90625 L 23.753906 26.296875 L 22.914062 26.90625 C 22.808594 26.980469 22.703125 26.976562 22.597656 26.902344 C 22.496094 26.828125 22.460938 26.726562 22.5 26.605469 L 22.820312 25.617188 L 21.980469 25.007812 C 21.878906 24.929688 21.847656 24.828125 21.886719 24.707031 C 21.925781 24.585938 22.007812 24.523438 22.136719 24.519531 L 23.175781 24.519531 L 23.496094 23.53125 C 23.539062 23.414062 23.625 23.351562 23.753906 23.351562 C 23.878906 23.351562 23.964844 23.414062 24.007812 23.53125 L 24.328125 24.519531 L 25.367188 24.519531 C 25.503906 24.515625 25.589844 24.574219 25.632812 24.703125 C 25.671875 24.832031 25.636719 24.933594 25.527344 25.007812 Z M 22.019531 25.820312 L 21.179688 26.429688 L 21.5 27.417969 C 21.539062 27.539062 21.503906 27.636719 21.402344 27.714844 C 21.296875 27.789062 21.191406 27.789062 21.085938 27.71875 L 20.246094 27.109375 L 19.40625 27.71875 C 19.300781 27.789062 19.199219 27.789062 19.09375 27.714844 C 18.992188 27.640625 18.957031 27.539062 18.992188 27.417969 L 19.3125 26.429688 L 18.472656 25.820312 C 18.371094 25.742188 18.339844 25.640625 18.382812 25.519531 C 18.421875 25.398438 18.503906 25.335938 18.632812 25.332031 L 19.671875 25.332031 L 19.992188 24.34375 C 20.035156 24.222656 20.121094 24.164062 20.246094 24.164062 C 20.375 24.164062 20.460938 24.222656 20.503906 24.34375 L 20.824219 25.332031 L 21.863281 25.332031 C 21.996094 25.328125 22.085938 25.386719 22.125 25.515625 C 22.167969 25.644531 22.132812 25.746094 22.019531 25.820312 Z M 18.527344 25.003906 L 17.6875 25.613281 L 18.007812 26.601562 C 18.042969 26.726562 18.011719 26.824219 17.90625 26.898438 C 17.804688 26.972656 17.699219 26.976562 17.59375 26.902344 L 16.753906 26.292969 L 15.914062 26.902344 C 15.808594 26.976562 15.703125 26.972656 15.601562 26.898438 C 15.496094 26.824219 15.460938 26.726562 15.5 26.601562 L 15.820312 25.613281 L 14.980469 25.003906 C 14.878906 24.925781 14.847656 24.828125 14.886719 24.703125 C 14.925781 24.582031 15.011719 24.519531 15.136719 24.515625 L 16.175781 24.515625 L 16.496094 23.53125 C 16.539062 23.410156 16.625 23.347656 16.753906 23.347656 C 16.882812 23.347656 16.964844 23.410156 17.007812 23.53125 L 17.332031 24.515625 L 18.367188 24.515625 C 18.503906 24.511719 18.589844 24.574219 18.632812 24.699219 C 18.675781 24.828125 18.640625 24.929688 18.527344 25.003906 Z M 15.835938 22.3125 L 14.996094 22.921875 L 15.316406 23.910156 C 15.351562 24.03125 15.316406 24.132812 15.214844 24.207031 C 15.109375 24.28125 15.007812 24.285156 14.902344 24.210938 L 14.0625 23.601562 L 13.222656 24.210938 C 13.117188 24.285156 13.011719 24.28125 12.90625 24.207031 C 12.804688 24.132812 12.769531 24.03125 12.808594 23.910156 L 13.128906 22.921875 L 12.289062 22.3125 C 12.1875 22.234375 12.15625 22.136719 12.195312 22.011719 C 12.234375 21.890625 12.316406 21.828125 12.445312 21.824219 L 13.484375 21.824219 L 13.804688 20.839844 C 13.847656 20.71875 13.933594 20.65625 14.0625 20.65625 C 14.191406 20.65625 14.273438 20.71875 14.316406 20.839844 L 14.636719 21.824219 L 15.675781 21.824219 C 15.8125 21.820312 15.898438 21.878906 15.941406 22.007812 C 15.980469 22.136719 15.945312 22.238281 15.835938 22.3125 Z M 17.3125 19.867188 C 16.726562 19.761719 16.191406 19.628906 16.152344 19.621094 C 16.019531 19.585938 15.949219 19.5 15.949219 19.359375 L 15.949219 18.171875 C 15.949219 17.933594 16.027344 17.71875 16.183594 17.535156 C 16.339844 17.351562 16.535156 17.238281 16.773438 17.199219 L 17.433594 17.089844 C 17.351562 17.011719 17.28125 16.925781 17.222656 16.828125 C 17.164062 16.730469 17.117188 16.628906 17.085938 16.523438 C 17.050781 16.414062 17.035156 16.304688 17.027344 16.191406 C 17.023438 16.078125 17.03125 15.96875 17.054688 15.859375 C 17.078125 15.746094 17.113281 15.640625 17.160156 15.539062 C 17.210938 15.441406 17.269531 15.347656 17.34375 15.261719 C 17.417969 15.175781 17.5 15.097656 17.589844 15.035156 C 17.683594 14.96875 17.78125 14.914062 17.886719 14.875 C 17.992188 14.832031 18.097656 14.808594 18.210938 14.792969 C 18.324219 14.78125 18.433594 14.78125 18.546875 14.796875 C 18.65625 14.808594 18.765625 14.839844 18.871094 14.878906 C 18.976562 14.921875 19.074219 14.976562 19.164062 15.042969 C 19.253906 15.109375 19.335938 15.1875 19.40625 15.273438 C 19.476562 15.359375 19.539062 15.453125 19.585938 15.554688 C 19.632812 15.660156 19.667969 15.765625 19.691406 15.875 C 19.710938 15.984375 19.71875 16.097656 19.710938 16.210938 C 19.472656 16.285156 19.257812 16.402344 19.0625 16.5625 C 18.871094 16.722656 18.714844 16.914062 18.597656 17.136719 C 18.480469 17.355469 18.410156 17.59375 18.386719 17.839844 C 18.359375 18.089844 18.382812 18.335938 18.457031 18.574219 C 18.148438 18.648438 17.890625 18.804688 17.683594 19.042969 C 17.472656 19.277344 17.347656 19.554688 17.3125 19.867188 Z M 21.109375 16.980469 C 21.253906 17.101562 21.371094 17.246094 21.453125 17.417969 C 21.539062 17.585938 21.585938 17.765625 21.59375 17.957031 C 21.601562 18.148438 21.570312 18.332031 21.503906 18.507812 C 21.433594 18.683594 21.332031 18.839844 21.195312 18.972656 C 21.414062 19.007812 21.628906 19.039062 21.84375 19.082031 C 22.082031 19.121094 22.28125 19.234375 22.4375 19.417969 C 22.597656 19.601562 22.675781 19.816406 22.679688 20.058594 L 22.679688 21.242188 C 22.679688 21.378906 22.613281 21.464844 22.480469 21.503906 C 21.761719 21.707031 21.03125 21.828125 20.28125 21.863281 C 19.515625 21.839844 18.765625 21.71875 18.03125 21.503906 C 17.898438 21.464844 17.835938 21.378906 17.832031 21.242188 L 17.832031 20.058594 C 17.835938 19.816406 17.917969 19.601562 18.074219 19.417969 C 18.230469 19.234375 18.429688 19.121094 18.667969 19.082031 C 18.882812 19.039062 19.101562 19.007812 19.316406 18.972656 C 19.183594 18.839844 19.078125 18.683594 19.011719 18.507812 C 18.941406 18.332031 18.910156 18.148438 18.917969 17.957031 C 18.925781 17.765625 18.972656 17.585938 19.058594 17.417969 C 19.144531 17.246094 19.257812 17.101562 19.40625 16.980469 C 19.652344 16.777344 19.9375 16.671875 20.257812 16.671875 C 20.578125 16.671875 20.863281 16.777344 21.109375 16.980469 Z M 24.5625 18.171875 L 24.5625 19.359375 C 24.5625 19.5 24.496094 19.585938 24.359375 19.621094 C 24.324219 19.628906 23.785156 19.761719 23.203125 19.867188 C 23.164062 19.554688 23.042969 19.277344 22.832031 19.042969 C 22.621094 18.804688 22.363281 18.648438 22.058594 18.574219 C 22.128906 18.335938 22.152344 18.089844 22.128906 17.839844 C 22.101562 17.59375 22.03125 17.355469 21.914062 17.136719 C 21.796875 16.914062 21.640625 16.722656 21.449219 16.5625 C 21.257812 16.402344 21.042969 16.285156 20.800781 16.210938 C 20.796875 16.097656 20.804688 15.984375 20.824219 15.875 C 20.84375 15.765625 20.878906 15.660156 20.925781 15.558594 C 20.976562 15.453125 21.035156 15.359375 21.105469 15.273438 C 21.179688 15.1875 21.257812 15.109375 21.351562 15.042969 C 21.441406 14.976562 21.539062 14.921875 21.644531 14.878906 C 21.746094 14.839844 21.855469 14.808594 21.96875 14.796875 C 22.078125 14.78125 22.191406 14.78125 22.300781 14.792969 C 22.414062 14.808594 22.523438 14.832031 22.628906 14.875 C 22.734375 14.914062 22.832031 14.96875 22.921875 15.035156 C 23.015625 15.097656 23.097656 15.175781 23.167969 15.261719 C 23.242188 15.347656 23.304688 15.441406 23.351562 15.539062 C 23.402344 15.640625 23.4375 15.746094 23.460938 15.859375 C 23.480469 15.96875 23.492188 16.078125 23.484375 16.191406 C 23.480469 16.304688 23.460938 16.414062 23.429688 16.523438 C 23.394531 16.628906 23.347656 16.730469 23.289062 16.828125 C 23.230469 16.925781 23.160156 17.011719 23.082031 17.089844 L 23.738281 17.199219 C 23.976562 17.238281 24.175781 17.351562 24.332031 17.535156 C 24.488281 17.71875 24.5625 17.933594 24.5625 18.171875 Z M 24.5625 18.171875 " fill-opacity="1" fill-rule="nonzero"/></g></svg>