<svg xmlns="http://www.w3.org/2000/svg" xmlns:xlink="http://www.w3.org/1999/xlink" width="100" zoomAndPan="magnify" viewBox="0 0 75 74.999997" height="100" preserveAspectRatio="xMidYMid meet" version="1.0"><defs><clipPath id="82c2e6c4ef"><path d="M 1.53125 4.070312 L 73.53125 4.070312 L 73.53125 71 L 1.53125 71 Z M 1.53125 4.070312 " clip-rule="nonzero"/></clipPath></defs><g clip-path="url(#82c2e6c4ef)"><path fill="#004a82" d="M 37.496094 52.164062 C 38.285156 52.164062 39.070312 52.125 39.851562 52.046875 C 40.636719 51.972656 41.414062 51.855469 42.1875 51.703125 C 42.957031 51.546875 43.722656 51.359375 44.472656 51.128906 C 45.226562 50.902344 45.96875 50.636719 46.695312 50.335938 C 47.421875 50.03125 48.132812 49.695312 48.828125 49.324219 C 49.523438 48.953125 50.195312 48.550781 50.851562 48.113281 C 51.507812 47.675781 52.136719 47.207031 52.746094 46.707031 C 53.355469 46.207031 53.9375 45.679688 54.492188 45.125 C 55.050781 44.566406 55.578125 43.984375 56.078125 43.375 C 56.578125 42.765625 57.046875 42.136719 57.484375 41.480469 C 57.921875 40.828125 58.324219 40.152344 58.695312 39.457031 C 59.066406 38.761719 59.402344 38.050781 59.703125 37.324219 C 60.003906 36.597656 60.269531 35.859375 60.5 35.105469 C 60.726562 34.351562 60.917969 33.589844 61.074219 32.816406 C 61.226562 32.042969 61.339844 31.265625 61.417969 30.484375 C 61.496094 29.699219 61.535156 28.914062 61.535156 28.125 C 61.535156 27.339844 61.496094 26.554688 61.417969 25.769531 C 61.339844 24.988281 61.226562 24.210938 61.074219 23.4375 C 60.917969 22.664062 60.726562 21.902344 60.5 21.148438 C 60.269531 20.394531 60.003906 19.65625 59.703125 18.929688 C 59.402344 18.199219 59.066406 17.488281 58.695312 16.796875 C 58.324219 16.101562 57.921875 15.425781 57.484375 14.773438 C 57.046875 14.117188 56.578125 13.484375 56.078125 12.878906 C 55.578125 12.269531 55.050781 11.6875 54.492188 11.128906 C 53.9375 10.574219 53.355469 10.042969 52.746094 9.546875 C 52.136719 9.046875 51.507812 8.578125 50.851562 8.140625 C 50.195312 7.703125 49.523438 7.296875 48.828125 6.925781 C 48.132812 6.554688 47.421875 6.21875 46.695312 5.917969 C 45.96875 5.617188 45.226562 5.351562 44.472656 5.125 C 43.722656 4.894531 42.957031 4.703125 42.1875 4.550781 C 41.414062 4.398438 40.636719 4.28125 39.851562 4.203125 C 39.070312 4.128906 38.285156 4.089844 37.496094 4.089844 C 36.710938 4.089844 35.925781 4.128906 35.140625 4.203125 C 34.355469 4.28125 33.578125 4.398438 32.808594 4.550781 C 32.035156 4.703125 31.273438 4.894531 30.519531 5.125 C 29.765625 5.351562 29.023438 5.617188 28.296875 5.917969 C 27.570312 6.21875 26.859375 6.554688 26.164062 6.925781 C 25.472656 7.296875 24.796875 7.703125 24.140625 8.140625 C 23.488281 8.578125 22.855469 9.046875 22.246094 9.546875 C 21.640625 10.042969 21.054688 10.574219 20.5 11.128906 C 19.941406 11.6875 19.414062 12.269531 18.914062 12.878906 C 18.417969 13.484375 17.949219 14.117188 17.511719 14.773438 C 17.074219 15.425781 16.667969 16.101562 16.296875 16.796875 C 15.925781 17.488281 15.589844 18.199219 15.289062 18.929688 C 14.988281 19.65625 14.722656 20.394531 14.496094 21.148438 C 14.265625 21.902344 14.074219 22.664062 13.921875 23.4375 C 13.765625 24.210938 13.652344 24.988281 13.574219 25.769531 C 13.496094 26.554688 13.460938 27.339844 13.460938 28.125 C 13.460938 28.914062 13.5 29.699219 13.578125 30.480469 C 13.65625 31.265625 13.773438 32.042969 13.925781 32.8125 C 14.078125 33.585938 14.273438 34.347656 14.5 35.101562 C 14.730469 35.855469 14.996094 36.59375 15.296875 37.320312 C 15.597656 38.046875 15.933594 38.757812 16.304688 39.453125 C 16.675781 40.144531 17.082031 40.820312 17.519531 41.476562 C 17.957031 42.128906 18.425781 42.761719 18.925781 43.367188 C 19.421875 43.976562 19.953125 44.558594 20.507812 45.117188 C 21.0625 45.671875 21.648438 46.199219 22.253906 46.699219 C 22.863281 47.199219 23.496094 47.667969 24.148438 48.105469 C 24.804688 48.542969 25.476562 48.945312 26.171875 49.316406 C 26.863281 49.6875 27.574219 50.027344 28.300781 50.328125 C 29.027344 50.628906 29.769531 50.894531 30.523438 51.121094 C 31.273438 51.351562 32.039062 51.542969 32.808594 51.699219 C 33.582031 51.851562 34.359375 51.96875 35.140625 52.046875 C 35.925781 52.125 36.710938 52.164062 37.496094 52.164062 Z M 37.496094 6.761719 C 38.195312 6.761719 38.894531 6.792969 39.589844 6.863281 C 40.289062 6.929688 40.980469 7.035156 41.664062 7.171875 C 42.351562 7.308594 43.03125 7.476562 43.699219 7.679688 C 44.367188 7.882812 45.027344 8.117188 45.671875 8.386719 C 46.320312 8.652344 46.953125 8.953125 47.570312 9.28125 C 48.1875 9.613281 48.785156 9.972656 49.367188 10.359375 C 49.949219 10.75 50.511719 11.167969 51.050781 11.609375 C 51.59375 12.054688 52.109375 12.523438 52.605469 13.019531 C 53.101562 13.511719 53.570312 14.03125 54.011719 14.570312 C 54.457031 15.113281 54.875 15.675781 55.261719 16.257812 C 55.652344 16.835938 56.011719 17.4375 56.339844 18.054688 C 56.671875 18.671875 56.96875 19.304688 57.238281 19.949219 C 57.503906 20.597656 57.738281 21.253906 57.945312 21.925781 C 58.148438 22.59375 58.316406 23.273438 58.453125 23.957031 C 58.589844 24.644531 58.691406 25.335938 58.761719 26.03125 C 58.828125 26.730469 58.863281 27.425781 58.863281 28.125 C 58.863281 28.828125 58.828125 29.523438 58.761719 30.222656 C 58.691406 30.917969 58.589844 31.609375 58.453125 32.296875 C 58.316406 32.980469 58.148438 33.660156 57.945312 34.328125 C 57.738281 35 57.503906 35.65625 57.238281 36.304688 C 56.96875 36.949219 56.671875 37.582031 56.339844 38.199219 C 56.011719 38.816406 55.652344 39.414062 55.261719 39.996094 C 54.875 40.578125 54.457031 41.140625 54.011719 41.679688 C 53.570312 42.222656 53.101562 42.738281 52.605469 43.234375 C 52.109375 43.730469 51.59375 44.199219 51.050781 44.644531 C 50.511719 45.085938 49.949219 45.503906 49.367188 45.890625 C 48.785156 46.28125 48.1875 46.640625 47.570312 46.96875 C 46.953125 47.300781 46.320312 47.597656 45.671875 47.867188 C 45.027344 48.132812 44.367188 48.371094 43.699219 48.574219 C 43.03125 48.777344 42.351562 48.945312 41.664062 49.082031 C 40.980469 49.21875 40.289062 49.320312 39.589844 49.390625 C 38.894531 49.457031 38.195312 49.492188 37.496094 49.492188 C 36.796875 49.492188 36.097656 49.457031 35.402344 49.390625 C 34.707031 49.320312 34.015625 49.21875 33.328125 49.082031 C 32.640625 48.945312 31.964844 48.777344 31.292969 48.574219 C 30.625 48.371094 29.964844 48.132812 29.320312 47.867188 C 28.671875 47.597656 28.042969 47.300781 27.425781 46.96875 C 26.808594 46.640625 26.207031 46.28125 25.625 45.890625 C 25.042969 45.503906 24.484375 45.085938 23.941406 44.644531 C 23.402344 44.199219 22.882812 43.730469 22.386719 43.234375 C 21.894531 42.738281 21.425781 42.222656 20.980469 41.679688 C 20.535156 41.140625 20.121094 40.578125 19.730469 39.996094 C 19.34375 39.414062 18.984375 38.816406 18.652344 38.199219 C 18.324219 37.582031 18.023438 36.949219 17.757812 36.304688 C 17.488281 35.65625 17.253906 35 17.050781 34.328125 C 16.847656 33.660156 16.675781 32.980469 16.539062 32.296875 C 16.402344 31.609375 16.300781 30.917969 16.234375 30.222656 C 16.164062 29.523438 16.128906 28.828125 16.128906 28.125 C 16.132812 27.425781 16.164062 26.730469 16.234375 26.03125 C 16.304688 25.335938 16.40625 24.644531 16.542969 23.960938 C 16.683594 23.273438 16.851562 22.597656 17.054688 21.925781 C 17.257812 21.257812 17.496094 20.601562 17.761719 19.953125 C 18.03125 19.308594 18.332031 18.675781 18.660156 18.058594 C 18.992188 17.441406 19.351562 16.84375 19.738281 16.261719 C 20.128906 15.679688 20.542969 15.117188 20.988281 14.578125 C 21.429688 14.039062 21.902344 13.519531 22.394531 13.023438 C 22.890625 12.53125 23.40625 12.0625 23.949219 11.617188 C 24.488281 11.171875 25.050781 10.757812 25.632812 10.367188 C 26.214844 9.980469 26.8125 9.621094 27.429688 9.289062 C 28.046875 8.960938 28.679688 8.660156 29.324219 8.394531 C 29.96875 8.125 30.628906 7.890625 31.296875 7.683594 C 31.964844 7.480469 32.644531 7.3125 33.328125 7.175781 C 34.015625 7.039062 34.707031 6.933594 35.402344 6.863281 C 36.097656 6.796875 36.796875 6.761719 37.496094 6.761719 Z M 72.851562 46.800781 L 69.121094 49.511719 L 70.546875 53.894531 C 70.617188 54.136719 70.613281 54.382812 70.53125 54.621094 C 70.445312 54.863281 70.304688 55.058594 70.097656 55.210938 C 69.890625 55.359375 69.660156 55.4375 69.40625 55.441406 C 69.148438 55.441406 68.917969 55.375 68.707031 55.230469 L 64.976562 52.519531 L 61.25 55.230469 C 61.039062 55.375 60.808594 55.445312 60.550781 55.441406 C 60.296875 55.4375 60.066406 55.363281 59.859375 55.210938 C 59.652344 55.0625 59.507812 54.867188 59.425781 54.625 C 59.34375 54.382812 59.339844 54.136719 59.410156 53.894531 L 60.835938 49.511719 L 57.105469 46.800781 C 56.902344 46.648438 56.765625 46.445312 56.6875 46.203125 C 56.613281 45.960938 56.613281 45.714844 56.695312 45.472656 C 56.773438 45.230469 56.914062 45.03125 57.117188 44.878906 C 57.324219 44.726562 57.554688 44.648438 57.808594 44.640625 L 62.417969 44.640625 L 63.839844 40.257812 C 63.925781 40.015625 64.074219 39.820312 64.28125 39.675781 C 64.492188 39.527344 64.722656 39.453125 64.976562 39.453125 C 65.234375 39.453125 65.464844 39.527344 65.675781 39.675781 C 65.882812 39.820312 66.03125 40.015625 66.113281 40.257812 L 67.539062 44.640625 L 72.148438 44.640625 C 72.410156 44.628906 72.652344 44.699219 72.871094 44.851562 C 73.089844 45 73.238281 45.203125 73.320312 45.453125 C 73.402344 45.707031 73.398438 45.957031 73.3125 46.207031 C 73.222656 46.457031 73.070312 46.65625 72.851562 46.800781 Z M 60.882812 58.757812 L 57.15625 61.464844 L 58.578125 65.847656 C 58.652344 66.09375 58.644531 66.335938 58.5625 66.578125 C 58.480469 66.816406 58.335938 67.011719 58.132812 67.164062 C 57.925781 67.3125 57.695312 67.390625 57.4375 67.394531 C 57.183594 67.398438 56.953125 67.328125 56.742188 67.183594 L 53.011719 64.476562 L 49.285156 67.183594 C 49.074219 67.328125 48.839844 67.398438 48.585938 67.394531 C 48.332031 67.394531 48.097656 67.316406 47.894531 67.164062 C 47.6875 67.015625 47.542969 66.820312 47.460938 66.578125 C 47.378906 66.335938 47.371094 66.09375 47.445312 65.847656 L 48.871094 61.464844 L 45.140625 58.757812 C 44.9375 58.601562 44.800781 58.402344 44.722656 58.15625 C 44.648438 57.914062 44.648438 57.667969 44.726562 57.425781 C 44.808594 57.183594 44.949219 56.984375 45.152344 56.832031 C 45.359375 56.679688 45.589844 56.601562 45.84375 56.59375 L 50.453125 56.59375 L 51.875 52.210938 C 51.960938 51.96875 52.109375 51.777344 52.316406 51.628906 C 52.523438 51.480469 52.757812 51.40625 53.011719 51.40625 C 53.269531 51.40625 53.5 51.480469 53.707031 51.628906 C 53.917969 51.777344 54.0625 51.96875 54.148438 52.210938 L 55.574219 56.59375 L 60.183594 56.59375 C 60.445312 56.582031 60.6875 56.652344 60.90625 56.804688 C 61.121094 56.953125 61.273438 57.15625 61.355469 57.410156 C 61.4375 57.660156 61.433594 57.910156 61.347656 58.160156 C 61.257812 58.410156 61.105469 58.609375 60.882812 58.757812 Z M 45.328125 62.359375 L 41.597656 65.070312 L 43.023438 69.449219 C 43.09375 69.695312 43.089844 69.9375 43.007812 70.179688 C 42.925781 70.421875 42.78125 70.617188 42.574219 70.765625 C 42.367188 70.917969 42.136719 70.992188 41.882812 70.996094 C 41.628906 71 41.394531 70.929688 41.183594 70.785156 L 37.457031 68.078125 L 33.726562 70.785156 C 33.515625 70.933594 33.285156 71.003906 33.027344 71 C 32.773438 70.996094 32.542969 70.917969 32.335938 70.769531 C 32.128906 70.621094 31.984375 70.421875 31.902344 70.179688 C 31.820312 69.9375 31.816406 69.695312 31.890625 69.449219 L 33.3125 65.070312 L 29.585938 62.359375 C 29.382812 62.203125 29.242188 62.003906 29.167969 61.761719 C 29.089844 61.515625 29.09375 61.273438 29.171875 61.03125 C 29.25 60.789062 29.390625 60.589844 29.597656 60.4375 C 29.800781 60.285156 30.03125 60.203125 30.285156 60.199219 L 34.894531 60.199219 L 36.320312 55.816406 C 36.40625 55.574219 36.550781 55.378906 36.761719 55.230469 C 36.96875 55.085938 37.199219 55.011719 37.457031 55.011719 C 37.710938 55.011719 37.945312 55.085938 38.152344 55.230469 C 38.359375 55.378906 38.507812 55.574219 38.59375 55.816406 L 40.015625 60.199219 L 44.625 60.199219 C 44.890625 60.1875 45.128906 60.257812 45.347656 60.40625 C 45.566406 60.558594 45.714844 60.761719 45.796875 61.011719 C 45.878906 61.265625 45.875 61.515625 45.789062 61.765625 C 45.703125 62.015625 45.546875 62.214844 45.328125 62.359375 Z M 29.816406 58.742188 L 26.089844 61.449219 L 27.515625 65.832031 C 27.585938 66.078125 27.582031 66.320312 27.496094 66.5625 C 27.414062 66.804688 27.269531 67 27.066406 67.148438 C 26.859375 67.300781 26.628906 67.375 26.375 67.378906 C 26.117188 67.382812 25.886719 67.3125 25.675781 67.167969 L 21.945312 64.460938 L 18.21875 67.167969 C 18.007812 67.316406 17.773438 67.386719 17.519531 67.382812 C 17.265625 67.378906 17.035156 67.300781 16.828125 67.152344 C 16.621094 67.003906 16.476562 66.804688 16.394531 66.5625 C 16.3125 66.320312 16.308594 66.078125 16.378906 65.832031 L 17.804688 61.449219 L 14.074219 58.742188 C 13.871094 58.585938 13.734375 58.386719 13.65625 58.144531 C 13.582031 57.898438 13.582031 57.65625 13.660156 57.414062 C 13.742188 57.171875 13.882812 56.972656 14.085938 56.820312 C 14.292969 56.667969 14.523438 56.585938 14.777344 56.582031 L 19.386719 56.582031 L 20.808594 52.199219 C 20.894531 51.957031 21.042969 51.761719 21.25 51.613281 C 21.460938 51.46875 21.691406 51.394531 21.945312 51.394531 C 22.203125 51.394531 22.433594 51.46875 22.644531 51.613281 C 22.851562 51.761719 23 51.957031 23.082031 52.199219 L 24.507812 56.582031 L 29.117188 56.582031 C 29.378906 56.570312 29.621094 56.640625 29.839844 56.789062 C 30.058594 56.941406 30.207031 57.144531 30.289062 57.394531 C 30.371094 57.644531 30.367188 57.898438 30.28125 58.148438 C 30.191406 58.398438 30.039062 58.597656 29.816406 58.742188 Z M 17.871094 46.792969 L 14.140625 49.503906 L 15.566406 53.886719 C 15.636719 54.128906 15.632812 54.371094 15.550781 54.613281 C 15.46875 54.855469 15.324219 55.050781 15.117188 55.203125 C 14.910156 55.351562 14.679688 55.429688 14.425781 55.429688 C 14.167969 55.433594 13.9375 55.363281 13.726562 55.222656 L 10 52.511719 L 6.269531 55.222656 C 6.058594 55.367188 5.828125 55.4375 5.570312 55.433594 C 5.316406 55.429688 5.085938 55.355469 4.878906 55.203125 C 4.671875 55.054688 4.527344 54.859375 4.445312 54.617188 C 4.363281 54.375 4.359375 54.128906 4.429688 53.886719 L 5.855469 49.503906 L 2.125 46.792969 C 1.925781 46.636719 1.785156 46.4375 1.707031 46.195312 C 1.632812 45.949219 1.632812 45.707031 1.714844 45.464844 C 1.792969 45.222656 1.933594 45.023438 2.140625 44.871094 C 2.34375 44.71875 2.574219 44.636719 2.828125 44.632812 L 7.4375 44.632812 L 8.863281 40.25 C 8.945312 40.007812 9.09375 39.8125 9.300781 39.667969 C 9.511719 39.519531 9.742188 39.445312 10 39.445312 C 10.253906 39.445312 10.484375 39.519531 10.695312 39.667969 C 10.902344 39.8125 11.050781 40.007812 11.136719 40.25 L 12.558594 44.632812 L 17.167969 44.632812 C 17.433594 44.621094 17.671875 44.691406 17.890625 44.839844 C 18.109375 44.992188 18.257812 45.195312 18.339844 45.445312 C 18.421875 45.699219 18.417969 45.949219 18.332031 46.199219 C 18.246094 46.449219 18.089844 46.648438 17.871094 46.792969 Z M 24.425781 35.9375 C 21.835938 35.480469 19.445312 34.886719 19.285156 34.847656 C 19.019531 34.78125 18.800781 34.640625 18.632812 34.421875 C 18.464844 34.207031 18.378906 33.960938 18.378906 33.6875 L 18.378906 28.421875 C 18.378906 27.902344 18.464844 27.398438 18.644531 26.910156 C 18.820312 26.425781 19.078125 25.984375 19.414062 25.585938 C 19.75 25.191406 20.144531 24.863281 20.59375 24.609375 C 21.046875 24.355469 21.527344 24.183594 22.039062 24.101562 L 24.960938 23.613281 C 24.78125 23.4375 24.617188 23.253906 24.460938 23.0625 C 24.304688 22.867188 24.164062 22.664062 24.03125 22.449219 C 23.902344 22.238281 23.785156 22.019531 23.683594 21.792969 C 23.582031 21.566406 23.496094 21.332031 23.421875 21.09375 C 23.347656 20.855469 23.289062 20.613281 23.246094 20.371094 C 23.203125 20.125 23.175781 19.878906 23.164062 19.628906 C 23.152344 19.378906 23.15625 19.132812 23.175781 18.882812 C 23.195312 18.636719 23.230469 18.390625 23.28125 18.144531 C 23.328125 17.902344 23.394531 17.664062 23.472656 17.425781 C 23.554688 17.191406 23.648438 16.960938 23.757812 16.738281 C 23.867188 16.511719 23.988281 16.296875 24.125 16.089844 C 24.257812 15.878906 24.40625 15.679688 24.570312 15.492188 C 24.730469 15.300781 24.902344 15.121094 25.085938 14.953125 C 25.265625 14.785156 25.460938 14.628906 25.664062 14.484375 C 25.867188 14.339844 26.078125 14.207031 26.296875 14.089844 C 26.515625 13.972656 26.742188 13.867188 26.972656 13.777344 C 27.203125 13.6875 27.441406 13.613281 27.683594 13.554688 C 27.925781 13.496094 28.167969 13.449219 28.417969 13.421875 C 28.664062 13.390625 28.910156 13.375 29.160156 13.378906 C 29.410156 13.378906 29.65625 13.398438 29.902344 13.429688 C 30.152344 13.460938 30.394531 13.511719 30.636719 13.574219 C 30.875 13.636719 31.113281 13.714844 31.34375 13.808594 C 31.574219 13.898438 31.796875 14.007812 32.015625 14.128906 C 32.234375 14.246094 32.441406 14.382812 32.644531 14.527344 C 32.84375 14.675781 33.035156 14.835938 33.214844 15.003906 C 33.398438 15.175781 33.566406 15.359375 33.726562 15.550781 C 33.882812 15.742188 34.027344 15.941406 34.160156 16.152344 C 34.292969 16.363281 34.414062 16.582031 34.519531 16.808594 C 34.625 17.03125 34.71875 17.261719 34.792969 17.5 C 34.871094 17.738281 34.933594 17.976562 34.980469 18.222656 C 35.027344 18.464844 35.058594 18.710938 35.074219 18.960938 C 35.089844 19.210938 35.089844 19.457031 35.074219 19.707031 C 34.550781 19.871094 34.042969 20.085938 33.5625 20.351562 C 33.078125 20.613281 32.625 20.921875 32.203125 21.273438 C 31.777344 21.625 31.394531 22.015625 31.046875 22.445312 C 30.699219 22.871094 30.394531 23.328125 30.136719 23.816406 C 29.878906 24.300781 29.671875 24.808594 29.511719 25.335938 C 29.351562 25.863281 29.246094 26.398438 29.191406 26.949219 C 29.136719 27.496094 29.136719 28.042969 29.1875 28.59375 C 29.242188 29.140625 29.347656 29.679688 29.503906 30.207031 C 28.839844 30.367188 28.214844 30.625 27.628906 30.980469 C 27.039062 31.332031 26.519531 31.765625 26.066406 32.277344 C 25.613281 32.789062 25.246094 33.359375 24.964844 33.980469 C 24.6875 34.605469 24.507812 35.257812 24.425781 35.9375 Z M 41.28125 23.128906 L 41.273438 23.121094 C 41.597656 23.386719 41.886719 23.683594 42.144531 24.011719 C 42.40625 24.339844 42.628906 24.6875 42.8125 25.0625 C 43 25.4375 43.144531 25.824219 43.25 26.230469 C 43.355469 26.632812 43.414062 27.042969 43.433594 27.460938 C 43.453125 27.878906 43.425781 28.292969 43.359375 28.703125 C 43.289062 29.117188 43.179688 29.515625 43.027344 29.90625 C 42.875 30.292969 42.683594 30.664062 42.457031 31.011719 C 42.226562 31.359375 41.964844 31.679688 41.667969 31.976562 C 42.625 32.132812 43.59375 32.265625 44.546875 32.457031 C 45.058594 32.542969 45.542969 32.714844 45.996094 32.972656 C 46.449219 33.226562 46.847656 33.554688 47.183594 33.949219 C 47.523438 34.347656 47.785156 34.789062 47.96875 35.277344 C 48.148438 35.765625 48.246094 36.269531 48.25 36.789062 L 48.25 42.050781 C 48.25 42.320312 48.167969 42.558594 48.003906 42.773438 C 47.84375 42.984375 47.632812 43.128906 47.375 43.199219 C 44.179688 44.109375 40.925781 44.644531 37.609375 44.800781 C 34.210938 44.691406 30.882812 44.15625 27.621094 43.199219 C 27.363281 43.128906 27.152344 42.984375 26.988281 42.773438 C 26.824219 42.558594 26.742188 42.320312 26.742188 42.050781 L 26.742188 36.789062 C 26.75 36.269531 26.84375 35.765625 27.027344 35.277344 C 27.210938 34.789062 27.46875 34.347656 27.808594 33.949219 C 28.148438 33.554688 28.542969 33.226562 28.996094 32.972656 C 29.449219 32.714844 29.933594 32.542969 30.445312 32.457031 C 31.398438 32.265625 32.367188 32.132812 33.328125 31.976562 C 33.03125 31.679688 32.765625 31.359375 32.539062 31.011719 C 32.308594 30.664062 32.117188 30.292969 31.964844 29.90625 C 31.8125 29.515625 31.703125 29.117188 31.632812 28.703125 C 31.566406 28.292969 31.542969 27.878906 31.558594 27.460938 C 31.578125 27.042969 31.640625 26.632812 31.742188 26.230469 C 31.847656 25.824219 31.992188 25.4375 32.179688 25.0625 C 32.367188 24.6875 32.589844 24.339844 32.847656 24.011719 C 33.105469 23.683594 33.398438 23.386719 33.71875 23.121094 L 33.714844 23.128906 C 34.246094 22.6875 34.835938 22.351562 35.484375 22.113281 C 36.136719 21.878906 36.804688 21.761719 37.496094 21.761719 C 38.1875 21.761719 38.859375 21.878906 39.507812 22.113281 C 40.15625 22.351562 40.75 22.6875 41.28125 23.128906 Z M 56.613281 28.421875 L 56.613281 33.6875 C 56.613281 33.960938 56.53125 34.207031 56.359375 34.421875 C 56.191406 34.640625 55.976562 34.78125 55.710938 34.847656 C 55.546875 34.886719 53.15625 35.480469 50.570312 35.9375 C 50.488281 35.257812 50.308594 34.605469 50.027344 33.980469 C 49.746094 33.359375 49.378906 32.789062 48.925781 32.277344 C 48.472656 31.765625 47.953125 31.332031 47.367188 30.980469 C 46.78125 30.625 46.15625 30.367188 45.492188 30.207031 C 45.648438 29.679688 45.753906 29.140625 45.804688 28.59375 C 45.859375 28.042969 45.855469 27.496094 45.800781 26.949219 C 45.746094 26.402344 45.640625 25.863281 45.480469 25.335938 C 45.324219 24.808594 45.113281 24.300781 44.855469 23.816406 C 44.597656 23.328125 44.296875 22.871094 43.949219 22.445312 C 43.601562 22.015625 43.214844 21.625 42.792969 21.273438 C 42.367188 20.921875 41.914062 20.613281 41.433594 20.351562 C 40.949219 20.085938 40.445312 19.871094 39.917969 19.707031 C 39.902344 19.457031 39.90625 19.210938 39.921875 18.960938 C 39.9375 18.710938 39.96875 18.464844 40.015625 18.222656 C 40.0625 17.976562 40.121094 17.738281 40.199219 17.5 C 40.277344 17.261719 40.367188 17.03125 40.472656 16.808594 C 40.578125 16.582031 40.699219 16.363281 40.832031 16.152344 C 40.964844 15.941406 41.109375 15.742188 41.269531 15.550781 C 41.425781 15.359375 41.597656 15.175781 41.777344 15.003906 C 41.957031 14.835938 42.148438 14.675781 42.351562 14.527344 C 42.550781 14.382812 42.761719 14.246094 42.976562 14.128906 C 43.195312 14.007812 43.421875 13.898438 43.652344 13.808594 C 43.882812 13.714844 44.117188 13.636719 44.359375 13.574219 C 44.597656 13.511719 44.84375 13.460938 45.089844 13.429688 C 45.335938 13.398438 45.585938 13.378906 45.832031 13.378906 C 46.082031 13.375 46.332031 13.390625 46.578125 13.421875 C 46.824219 13.449219 47.070312 13.496094 47.308594 13.554688 C 47.550781 13.613281 47.789062 13.6875 48.019531 13.777344 C 48.253906 13.867188 48.480469 13.972656 48.699219 14.089844 C 48.917969 14.207031 49.128906 14.339844 49.332031 14.484375 C 49.535156 14.628906 49.726562 14.785156 49.910156 14.953125 C 50.09375 15.121094 50.265625 15.300781 50.425781 15.492188 C 50.585938 15.679688 50.734375 15.878906 50.871094 16.089844 C 51.003906 16.296875 51.128906 16.511719 51.238281 16.738281 C 51.34375 16.960938 51.441406 17.191406 51.519531 17.425781 C 51.597656 17.664062 51.664062 17.902344 51.714844 18.144531 C 51.765625 18.390625 51.796875 18.636719 51.816406 18.882812 C 51.835938 19.132812 51.839844 19.378906 51.828125 19.628906 C 51.816406 19.878906 51.789062 20.125 51.746094 20.371094 C 51.703125 20.613281 51.644531 20.855469 51.570312 21.09375 C 51.5 21.332031 51.410156 21.566406 51.308594 21.792969 C 51.207031 22.019531 51.089844 22.238281 50.960938 22.449219 C 50.832031 22.664062 50.6875 22.867188 50.535156 23.0625 C 50.378906 23.253906 50.210938 23.4375 50.035156 23.613281 L 52.953125 24.101562 C 53.464844 24.183594 53.949219 24.355469 54.398438 24.609375 C 54.851562 24.863281 55.246094 25.191406 55.578125 25.585938 C 55.914062 25.984375 56.171875 26.425781 56.347656 26.910156 C 56.527344 27.398438 56.617188 27.902344 56.613281 28.421875 Z M 56.613281 28.421875 " fill-opacity="1" fill-rule="nonzero"/></g></svg>