<svg xmlns="http://www.w3.org/2000/svg" xmlns:xlink="http://www.w3.org/1999/xlink" width="55" zoomAndPan="magnify" viewBox="0 0 41.25 41.250001" height="55" preserveAspectRatio="xMidYMid meet" version="1.0"><defs><clipPath id="bf845df820"><path d="M 0 0 L 40.511719 0 L 40.511719 40.511719 L 0 40.511719 Z M 0 0 " clip-rule="nonzero"/></clipPath><clipPath id="eeb39931a2"><path d="M 18 11.433594 L 22 11.433594 L 22 15 L 18 15 Z M 18 11.433594 " clip-rule="nonzero"/></clipPath><clipPath id="b91c20c9d7"><path d="M 26 18 L 29.113281 18 L 29.113281 22 L 26 22 Z M 26 18 " clip-rule="nonzero"/></clipPath><clipPath id="1a74c2f850"><path d="M 19 26 L 23 26 L 23 29.113281 L 19 29.113281 Z M 19 26 " clip-rule="nonzero"/></clipPath><clipPath id="e3b90a677c"><path d="M 11.433594 19 L 15 19 L 15 23 L 11.433594 23 Z M 11.433594 19 " clip-rule="nonzero"/></clipPath></defs><g clip-path="url(#bf845df820)"><path fill="#ffffff" d="M 0 0 L 40.511719 0 L 40.511719 40.511719 L 0 40.511719 Z M 0 0 " fill-opacity="1" fill-rule="nonzero"/><path fill="#ffffff" d="M 0 0 L 40.511719 0 L 40.511719 40.511719 L 0 40.511719 Z M 0 0 " fill-opacity="1" fill-rule="nonzero"/></g><g clip-path="url(#eeb39931a2)"><path fill="#004a82" d="M 21.492188 12.605469 C 21.496094 12.667969 21.460938 12.710938 21.414062 12.753906 C 21.222656 12.910156 21.035156 13.066406 20.84375 13.222656 C 20.792969 13.261719 20.78125 13.300781 20.796875 13.363281 C 20.859375 13.597656 20.914062 13.832031 20.972656 14.066406 C 20.992188 14.15625 20.972656 14.230469 20.898438 14.285156 C 20.835938 14.335938 20.75 14.332031 20.667969 14.28125 C 20.457031 14.148438 20.246094 14.015625 20.035156 13.878906 C 19.988281 13.851562 19.957031 13.855469 19.914062 13.882812 C 19.710938 14.011719 19.507812 14.132812 19.304688 14.261719 C 19.246094 14.296875 19.183594 14.316406 19.117188 14.300781 C 19.015625 14.277344 18.957031 14.175781 18.984375 14.070312 C 19.046875 13.816406 19.109375 13.5625 19.175781 13.308594 C 19.1875 13.269531 19.179688 13.246094 19.148438 13.222656 C 18.96875 13.070312 18.792969 12.917969 18.613281 12.769531 C 18.546875 12.710938 18.484375 12.65625 18.492188 12.558594 C 18.5 12.460938 18.570312 12.386719 18.667969 12.378906 C 18.929688 12.363281 19.195312 12.34375 19.460938 12.328125 C 19.5 12.328125 19.515625 12.304688 19.527344 12.273438 C 19.617188 12.050781 19.707031 11.835938 19.796875 11.617188 C 19.804688 11.59375 19.8125 11.574219 19.820312 11.554688 C 19.859375 11.480469 19.917969 11.4375 20.003906 11.441406 C 20.089844 11.441406 20.148438 11.484375 20.179688 11.5625 C 20.273438 11.796875 20.367188 12.035156 20.460938 12.269531 C 20.476562 12.316406 20.5 12.339844 20.558594 12.34375 C 20.789062 12.355469 21.019531 12.375 21.25 12.394531 C 21.285156 12.398438 21.320312 12.402344 21.355469 12.410156 C 21.441406 12.433594 21.492188 12.507812 21.492188 12.605469 " fill-opacity="1" fill-rule="nonzero"/></g><path fill="#004a82" d="M 26.539062 15.71875 C 26.5 15.765625 26.445312 15.773438 26.382812 15.769531 C 26.136719 15.742188 25.894531 15.722656 25.648438 15.695312 C 25.582031 15.6875 25.546875 15.710938 25.515625 15.765625 C 25.394531 15.972656 25.265625 16.175781 25.140625 16.382812 C 25.09375 16.460938 25.027344 16.5 24.933594 16.488281 C 24.855469 16.476562 24.796875 16.414062 24.773438 16.320312 C 24.71875 16.078125 24.660156 15.835938 24.609375 15.589844 C 24.597656 15.535156 24.574219 15.515625 24.523438 15.503906 C 24.289062 15.453125 24.058594 15.398438 23.824219 15.34375 C 23.757812 15.328125 23.699219 15.300781 23.664062 15.238281 C 23.609375 15.148438 23.640625 15.035156 23.734375 14.980469 C 23.957031 14.84375 24.183594 14.710938 24.410156 14.578125 C 24.441406 14.558594 24.453125 14.535156 24.449219 14.5 C 24.429688 14.265625 24.410156 14.03125 24.390625 13.796875 C 24.382812 13.710938 24.378906 13.628906 24.453125 13.5625 C 24.527344 13.5 24.632812 13.5 24.703125 13.5625 C 24.902344 13.738281 25.101562 13.910156 25.300781 14.085938 C 25.332031 14.113281 25.355469 14.109375 25.386719 14.09375 C 25.605469 14.003906 25.824219 13.910156 26.042969 13.820312 C 26.0625 13.8125 26.082031 13.800781 26.105469 13.796875 C 26.183594 13.769531 26.253906 13.78125 26.3125 13.84375 C 26.375 13.902344 26.382812 13.976562 26.351562 14.054688 C 26.25 14.289062 26.152344 14.519531 26.050781 14.753906 C 26.027344 14.800781 26.027344 14.832031 26.066406 14.871094 C 26.222656 15.046875 26.371094 15.222656 26.523438 15.398438 C 26.542969 15.425781 26.566406 15.453125 26.582031 15.484375 C 26.625 15.5625 26.609375 15.648438 26.539062 15.71875 " fill-opacity="1" fill-rule="nonzero"/><g clip-path="url(#b91c20c9d7)"><path fill="#004a82" d="M 27.910156 21.492188 C 27.847656 21.496094 27.804688 21.460938 27.765625 21.414062 C 27.609375 21.222656 27.449219 21.035156 27.296875 20.84375 C 27.253906 20.792969 27.214844 20.78125 27.152344 20.796875 C 26.917969 20.859375 26.683594 20.914062 26.449219 20.972656 C 26.363281 20.992188 26.285156 20.972656 26.230469 20.898438 C 26.179688 20.835938 26.183594 20.75 26.234375 20.667969 C 26.367188 20.457031 26.5 20.242188 26.636719 20.035156 C 26.664062 19.988281 26.664062 19.957031 26.636719 19.914062 C 26.507812 19.710938 26.382812 19.507812 26.253906 19.304688 C 26.21875 19.246094 26.199219 19.1875 26.214844 19.117188 C 26.238281 19.015625 26.34375 18.957031 26.449219 18.984375 C 26.703125 19.046875 26.957031 19.109375 27.210938 19.175781 C 27.246094 19.1875 27.269531 19.179688 27.292969 19.152344 C 27.445312 18.96875 27.597656 18.792969 27.75 18.613281 C 27.804688 18.546875 27.859375 18.484375 27.960938 18.492188 C 28.054688 18.5 28.128906 18.570312 28.136719 18.667969 C 28.152344 18.929688 28.171875 19.195312 28.1875 19.460938 C 28.191406 19.5 28.210938 19.515625 28.246094 19.527344 C 28.464844 19.617188 28.683594 19.707031 28.902344 19.796875 C 28.921875 19.804688 28.941406 19.8125 28.960938 19.820312 C 29.035156 19.859375 29.078125 19.917969 29.078125 20.003906 C 29.074219 20.089844 29.03125 20.148438 28.953125 20.179688 C 28.71875 20.273438 28.484375 20.367188 28.246094 20.460938 C 28.199219 20.476562 28.175781 20.5 28.171875 20.558594 C 28.160156 20.789062 28.140625 21.019531 28.121094 21.25 C 28.121094 21.285156 28.117188 21.320312 28.105469 21.355469 C 28.082031 21.441406 28.007812 21.492188 27.910156 21.492188 " fill-opacity="1" fill-rule="nonzero"/></g><path fill="#004a82" d="M 24.796875 26.539062 C 24.75 26.5 24.742188 26.445312 24.75 26.382812 C 24.773438 26.136719 24.792969 25.894531 24.820312 25.648438 C 24.828125 25.582031 24.808594 25.546875 24.75 25.515625 C 24.542969 25.390625 24.339844 25.265625 24.132812 25.140625 C 24.054688 25.09375 24.015625 25.027344 24.027344 24.933594 C 24.039062 24.855469 24.101562 24.796875 24.195312 24.773438 C 24.4375 24.71875 24.683594 24.660156 24.925781 24.609375 C 24.980469 24.597656 25 24.574219 25.011719 24.523438 C 25.0625 24.289062 25.121094 24.058594 25.171875 23.824219 C 25.1875 23.757812 25.21875 23.699219 25.277344 23.664062 C 25.367188 23.609375 25.480469 23.640625 25.535156 23.734375 C 25.671875 23.957031 25.808594 24.183594 25.9375 24.410156 C 25.957031 24.441406 25.980469 24.453125 26.015625 24.449219 C 26.25 24.429688 26.484375 24.410156 26.71875 24.390625 C 26.804688 24.382812 26.886719 24.378906 26.953125 24.453125 C 27.015625 24.527344 27.019531 24.632812 26.953125 24.703125 C 26.78125 24.902344 26.605469 25.101562 26.429688 25.300781 C 26.402344 25.332031 26.410156 25.355469 26.421875 25.386719 C 26.515625 25.605469 26.605469 25.824219 26.695312 26.042969 C 26.703125 26.0625 26.714844 26.082031 26.722656 26.105469 C 26.746094 26.183594 26.734375 26.253906 26.671875 26.3125 C 26.613281 26.371094 26.542969 26.382812 26.464844 26.351562 C 26.230469 26.25 25.996094 26.152344 25.765625 26.050781 C 25.71875 26.027344 25.6875 26.027344 25.644531 26.066406 C 25.472656 26.222656 25.292969 26.371094 25.117188 26.523438 C 25.089844 26.542969 25.0625 26.566406 25.03125 26.582031 C 24.957031 26.625 24.867188 26.609375 24.796875 26.539062 " fill-opacity="1" fill-rule="nonzero"/><g clip-path="url(#1a74c2f850)"><path fill="#004a82" d="M 19.027344 27.910156 C 19.023438 27.847656 19.054688 27.804688 19.101562 27.765625 C 19.292969 27.609375 19.480469 27.449219 19.671875 27.296875 C 19.722656 27.253906 19.734375 27.214844 19.71875 27.152344 C 19.65625 26.917969 19.601562 26.683594 19.546875 26.449219 C 19.523438 26.363281 19.542969 26.285156 19.617188 26.230469 C 19.679688 26.179688 19.765625 26.183594 19.847656 26.234375 C 20.058594 26.367188 20.273438 26.5 20.484375 26.636719 C 20.527344 26.664062 20.558594 26.664062 20.605469 26.636719 C 20.804688 26.507812 21.011719 26.382812 21.214844 26.253906 C 21.269531 26.21875 21.332031 26.199219 21.398438 26.214844 C 21.5 26.238281 21.558594 26.34375 21.535156 26.449219 C 21.46875 26.703125 21.40625 26.957031 21.339844 27.210938 C 21.328125 27.25 21.339844 27.269531 21.367188 27.292969 C 21.546875 27.445312 21.726562 27.597656 21.90625 27.75 C 21.972656 27.804688 22.03125 27.859375 22.023438 27.960938 C 22.019531 28.054688 21.945312 28.128906 21.851562 28.136719 C 21.585938 28.152344 21.320312 28.171875 21.058594 28.1875 C 21.015625 28.191406 21.003906 28.210938 20.988281 28.246094 C 20.902344 28.464844 20.808594 28.683594 20.71875 28.902344 C 20.710938 28.921875 20.703125 28.941406 20.695312 28.960938 C 20.65625 29.035156 20.597656 29.078125 20.511719 29.078125 C 20.425781 29.074219 20.371094 29.03125 20.339844 28.953125 C 20.242188 28.71875 20.148438 28.484375 20.058594 28.246094 C 20.039062 28.199219 20.015625 28.175781 19.960938 28.171875 C 19.726562 28.160156 19.496094 28.140625 19.265625 28.121094 C 19.230469 28.121094 19.195312 28.117188 19.160156 28.105469 C 19.078125 28.082031 19.027344 28.007812 19.027344 27.910156 " fill-opacity="1" fill-rule="nonzero"/></g><path fill="#004a82" d="M 13.976562 24.796875 C 14.015625 24.75 14.074219 24.742188 14.132812 24.75 C 14.378906 24.773438 14.625 24.792969 14.867188 24.820312 C 14.933594 24.828125 14.96875 24.808594 15.003906 24.75 C 15.125 24.542969 15.25 24.339844 15.375 24.132812 C 15.421875 24.054688 15.492188 24.015625 15.582031 24.027344 C 15.660156 24.039062 15.722656 24.101562 15.742188 24.195312 C 15.796875 24.4375 15.855469 24.683594 15.90625 24.925781 C 15.917969 24.980469 15.941406 25 15.996094 25.011719 C 16.226562 25.0625 16.460938 25.121094 16.691406 25.171875 C 16.757812 25.1875 16.816406 25.21875 16.851562 25.277344 C 16.90625 25.367188 16.875 25.480469 16.785156 25.535156 C 16.558594 25.671875 16.335938 25.804688 16.109375 25.9375 C 16.074219 25.957031 16.0625 25.980469 16.066406 26.015625 C 16.085938 26.25 16.105469 26.484375 16.125 26.71875 C 16.132812 26.804688 16.136719 26.886719 16.0625 26.953125 C 15.992188 27.015625 15.886719 27.019531 15.8125 26.953125 C 15.613281 26.78125 15.414062 26.605469 15.214844 26.429688 C 15.183594 26.402344 15.160156 26.410156 15.128906 26.421875 C 14.910156 26.515625 14.691406 26.605469 14.472656 26.695312 C 14.453125 26.703125 14.433594 26.714844 14.414062 26.71875 C 14.332031 26.746094 14.261719 26.734375 14.203125 26.671875 C 14.144531 26.613281 14.132812 26.542969 14.167969 26.464844 C 14.265625 26.230469 14.367188 25.996094 14.46875 25.765625 C 14.488281 25.71875 14.488281 25.6875 14.449219 25.644531 C 14.296875 25.472656 14.144531 25.292969 13.996094 25.117188 C 13.972656 25.089844 13.949219 25.0625 13.933594 25.03125 C 13.890625 24.957031 13.90625 24.867188 13.976562 24.796875 " fill-opacity="1" fill-rule="nonzero"/><g clip-path="url(#e3b90a677c)"><path fill="#004a82" d="M 12.605469 19.027344 C 12.667969 19.023438 12.710938 19.054688 12.753906 19.101562 C 12.910156 19.292969 13.066406 19.480469 13.222656 19.671875 C 13.261719 19.722656 13.300781 19.734375 13.363281 19.71875 C 13.597656 19.65625 13.832031 19.601562 14.066406 19.546875 C 14.15625 19.523438 14.230469 19.542969 14.285156 19.617188 C 14.335938 19.679688 14.332031 19.765625 14.28125 19.847656 C 14.148438 20.058594 14.015625 20.273438 13.878906 20.484375 C 13.851562 20.527344 13.855469 20.558594 13.882812 20.605469 C 14.011719 20.804688 14.132812 21.011719 14.261719 21.214844 C 14.296875 21.269531 14.316406 21.332031 14.300781 21.398438 C 14.277344 21.5 14.175781 21.558594 14.070312 21.535156 C 13.816406 21.46875 13.5625 21.40625 13.308594 21.339844 C 13.269531 21.328125 13.246094 21.339844 13.222656 21.367188 C 13.070312 21.546875 12.917969 21.726562 12.769531 21.90625 C 12.710938 21.972656 12.65625 22.03125 12.558594 22.023438 C 12.460938 22.019531 12.386719 21.945312 12.378906 21.851562 C 12.363281 21.585938 12.34375 21.320312 12.328125 21.058594 C 12.328125 21.015625 12.304688 21.003906 12.273438 20.988281 C 12.050781 20.902344 11.835938 20.808594 11.617188 20.71875 C 11.59375 20.710938 11.574219 20.703125 11.554688 20.695312 C 11.480469 20.65625 11.4375 20.597656 11.441406 20.511719 C 11.441406 20.425781 11.484375 20.371094 11.5625 20.339844 C 11.796875 20.242188 12.035156 20.148438 12.269531 20.058594 C 12.316406 20.039062 12.339844 20.015625 12.34375 19.960938 C 12.355469 19.726562 12.375 19.496094 12.394531 19.265625 C 12.398438 19.230469 12.402344 19.195312 12.410156 19.160156 C 12.433594 19.078125 12.507812 19.027344 12.605469 19.027344 " fill-opacity="1" fill-rule="nonzero"/></g><path fill="#004a82" d="M 15.71875 13.976562 C 15.765625 14.015625 15.773438 14.074219 15.769531 14.132812 C 15.742188 14.378906 15.722656 14.625 15.695312 14.867188 C 15.6875 14.933594 15.710938 14.96875 15.765625 15.003906 C 15.972656 15.125 16.175781 15.25 16.382812 15.375 C 16.460938 15.421875 16.5 15.492188 16.488281 15.582031 C 16.476562 15.660156 16.414062 15.722656 16.320312 15.742188 C 16.078125 15.796875 15.835938 15.855469 15.589844 15.90625 C 15.535156 15.917969 15.515625 15.941406 15.503906 15.992188 C 15.453125 16.226562 15.398438 16.460938 15.34375 16.691406 C 15.328125 16.757812 15.296875 16.816406 15.238281 16.851562 C 15.148438 16.910156 15.035156 16.875 14.980469 16.785156 C 14.84375 16.558594 14.710938 16.335938 14.578125 16.109375 C 14.558594 16.074219 14.535156 16.0625 14.5 16.066406 C 14.265625 16.085938 14.03125 16.105469 13.796875 16.125 C 13.710938 16.132812 13.628906 16.136719 13.5625 16.0625 C 13.5 15.992188 13.5 15.886719 13.5625 15.8125 C 13.738281 15.613281 13.910156 15.414062 14.085938 15.214844 C 14.113281 15.183594 14.109375 15.160156 14.09375 15.128906 C 14.003906 14.910156 13.910156 14.691406 13.820312 14.472656 C 13.8125 14.453125 13.800781 14.433594 13.796875 14.414062 C 13.769531 14.332031 13.78125 14.261719 13.84375 14.203125 C 13.902344 14.144531 13.976562 14.132812 14.054688 14.167969 C 14.285156 14.265625 14.519531 14.367188 14.753906 14.46875 C 14.800781 14.488281 14.832031 14.488281 14.871094 14.449219 C 15.046875 14.296875 15.222656 14.144531 15.398438 13.996094 C 15.425781 13.972656 15.453125 13.949219 15.484375 13.933594 C 15.5625 13.890625 15.648438 13.90625 15.71875 13.976562 " fill-opacity="1" fill-rule="nonzero"/><path fill="#004a82" d="M 24.105469 18.488281 L 24.070312 18.464844 C 24.0625 18.453125 24.054688 18.453125 24.050781 18.449219 L 24.027344 18.433594 C 24.023438 18.429688 24.019531 18.429688 24.015625 18.425781 L 23.96875 18.40625 C 23.953125 18.398438 23.929688 18.390625 23.90625 18.378906 C 23.5625 18.269531 23.191406 18.316406 22.835938 18.351562 C 22.828125 18.355469 22.8125 18.355469 22.792969 18.355469 C 22.761719 18.355469 22.71875 18.355469 22.667969 18.359375 C 22.648438 18.359375 22.628906 18.359375 22.601562 18.359375 C 22.585938 18.359375 22.570312 18.359375 22.550781 18.363281 C 22.476562 18.363281 22.394531 18.367188 22.320312 18.371094 C 22.304688 18.371094 22.285156 18.371094 22.269531 18.375 C 22.257812 18.375 22.246094 18.375 22.234375 18.375 C 22.210938 18.378906 22.1875 18.378906 22.167969 18.378906 C 22.121094 18.386719 22.078125 18.390625 22.046875 18.394531 C 22.035156 18.398438 22.023438 18.398438 22.015625 18.402344 C 22.011719 18.402344 22.011719 18.40625 22.007812 18.40625 C 22 18.40625 21.988281 18.394531 21.988281 18.386719 C 21.988281 18.382812 21.992188 18.378906 21.992188 18.378906 L 22.097656 18.027344 C 22.160156 17.816406 22.222656 17.597656 22.289062 17.386719 C 22.386719 17.078125 22.417969 16.832031 22.390625 16.585938 C 22.355469 16.28125 22.175781 16 21.914062 15.835938 C 21.765625 15.742188 21.597656 15.695312 21.429688 15.695312 C 21.417969 15.695312 21.40625 15.695312 21.390625 15.695312 C 21.230469 15.703125 21.132812 15.792969 21.117188 15.953125 C 21.09375 16.160156 21.074219 16.347656 21.046875 16.523438 C 20.996094 16.835938 20.914062 17.09375 20.785156 17.316406 C 20.714844 17.441406 20.632812 17.554688 20.53125 17.660156 C 20.398438 17.800781 20.257812 17.957031 20.101562 18.132812 L 19.746094 18.539062 C 19.660156 18.636719 19.578125 18.730469 19.484375 18.816406 C 19.46875 18.835938 19.445312 18.855469 19.417969 18.882812 C 19.355469 18.933594 19.285156 18.980469 19.210938 19.011719 C 19.167969 19.03125 19.109375 19.050781 19.03125 19.070312 C 18.730469 19.15625 18.554688 19.242188 18.546875 19.421875 C 18.539062 19.523438 18.535156 19.609375 18.53125 19.691406 L 18.53125 19.746094 C 18.527344 19.824219 18.527344 19.902344 18.527344 19.976562 L 18.527344 22.785156 L 18.996094 22.78125 L 19.019531 22.789062 C 19.183594 22.8125 19.351562 22.839844 19.566406 22.878906 L 19.660156 22.894531 C 20.085938 22.964844 20.476562 23.03125 20.867188 23.074219 C 21.824219 23.1875 22.988281 23.46875 23.683594 22.597656 C 23.96875 22.242188 23.996094 21.738281 24.0625 21.304688 C 24.171875 20.59375 24.289062 19.882812 24.390625 19.171875 C 24.425781 18.921875 24.3125 18.644531 24.105469 18.488281 " fill-opacity="1" fill-rule="nonzero"/><path fill="#004a82" d="M 17.699219 18.703125 L 16.421875 18.703125 C 16.253906 18.703125 16.121094 18.835938 16.121094 19.003906 L 16.121094 22.792969 C 16.121094 22.957031 16.253906 23.09375 16.421875 23.09375 L 17.699219 23.09375 C 17.863281 23.09375 18 22.957031 18 22.792969 L 18 19.003906 C 18 18.835938 17.863281 18.703125 17.699219 18.703125 " fill-opacity="1" fill-rule="nonzero"/></svg>