<svg xmlns="http://www.w3.org/2000/svg" xmlns:xlink="http://www.w3.org/1999/xlink" width="100" zoomAndPan="magnify" viewBox="0 0 75 74.999997" height="100" preserveAspectRatio="xMidYMid meet" version="1.0"><defs><clipPath id="b5e261302b"><path d="M 30 1.695312 L 43 1.695312 L 43 14 L 30 14 Z M 30 1.695312 " clip-rule="nonzero"/></clipPath><clipPath id="513130c5f6"><path d="M 61 30 L 72.945312 30 L 72.945312 43 L 61 43 Z M 61 30 " clip-rule="nonzero"/></clipPath><clipPath id="63282301da"><path d="M 32 61 L 45 61 L 45 72.945312 L 32 72.945312 Z M 32 61 " clip-rule="nonzero"/></clipPath><clipPath id="f1bd43a8e3"><path d="M 1.695312 32 L 14 32 L 14 45 L 1.695312 45 Z M 1.695312 32 " clip-rule="nonzero"/></clipPath></defs><g clip-path="url(#b5e261302b)"><path fill="#004a82" d="M 42.527344 6.453125 C 42.546875 6.703125 42.410156 6.886719 42.214844 7.046875 C 41.445312 7.679688 40.683594 8.324219 39.90625 8.949219 C 39.695312 9.117188 39.648438 9.277344 39.714844 9.535156 C 39.964844 10.480469 40.1875 11.429688 40.421875 12.378906 C 40.511719 12.738281 40.425781 13.046875 40.128906 13.273438 C 39.867188 13.476562 39.519531 13.464844 39.191406 13.257812 C 38.328125 12.714844 37.46875 12.179688 36.613281 11.628906 C 36.429688 11.507812 36.304688 11.519531 36.121094 11.632812 C 35.304688 12.15625 34.472656 12.65625 33.648438 13.171875 C 33.417969 13.320312 33.167969 13.402344 32.894531 13.335938 C 32.476562 13.238281 32.242188 12.820312 32.347656 12.390625 C 32.605469 11.359375 32.863281 10.328125 33.132812 9.296875 C 33.175781 9.140625 33.140625 9.050781 33.027344 8.957031 C 32.296875 8.34375 31.570312 7.726562 30.839844 7.113281 C 30.570312 6.886719 30.324219 6.65625 30.351562 6.253906 C 30.378906 5.867188 30.671875 5.5625 31.0625 5.535156 C 32.136719 5.464844 33.207031 5.390625 34.285156 5.324219 C 34.453125 5.316406 34.503906 5.226562 34.558594 5.09375 C 34.917969 4.203125 35.285156 3.320312 35.652344 2.429688 C 35.6875 2.347656 35.714844 2.265625 35.753906 2.1875 C 35.90625 1.882812 36.148438 1.714844 36.492188 1.71875 C 36.839844 1.722656 37.074219 1.898438 37.203125 2.214844 C 37.585938 3.171875 37.96875 4.128906 38.34375 5.089844 C 38.417969 5.28125 38.503906 5.375 38.738281 5.386719 C 39.679688 5.4375 40.621094 5.519531 41.558594 5.589844 C 41.699219 5.601562 41.84375 5.617188 41.976562 5.65625 C 42.324219 5.753906 42.53125 6.054688 42.527344 6.453125 " fill-opacity="1" fill-rule="nonzero"/></g><path fill="#004a82" d="M 63.035156 19.089844 C 62.871094 19.28125 62.644531 19.3125 62.394531 19.289062 C 61.402344 19.195312 60.40625 19.113281 59.414062 19.003906 C 59.144531 18.972656 59.003906 19.050781 58.867188 19.28125 C 58.375 20.125 57.859375 20.953125 57.355469 21.789062 C 57.164062 22.109375 56.886719 22.265625 56.515625 22.21875 C 56.191406 22.175781 55.953125 21.921875 55.863281 21.542969 C 55.636719 20.550781 55.40625 19.5625 55.195312 18.570312 C 55.148438 18.355469 55.050781 18.273438 54.84375 18.222656 C 53.894531 18.015625 52.953125 17.78125 52.003906 17.566406 C 51.734375 17.503906 51.5 17.386719 51.355469 17.148438 C 51.132812 16.78125 51.257812 16.320312 51.636719 16.089844 C 52.550781 15.546875 53.460938 14.996094 54.378906 14.457031 C 54.519531 14.378906 54.5625 14.289062 54.546875 14.140625 C 54.464844 13.191406 54.386719 12.242188 54.304688 11.289062 C 54.269531 10.941406 54.257812 10.601562 54.5625 10.339844 C 54.859375 10.085938 55.28125 10.074219 55.578125 10.335938 C 56.386719 11.042969 57.199219 11.75 58 12.464844 C 58.128906 12.578125 58.226562 12.550781 58.359375 12.496094 C 59.242188 12.121094 60.132812 11.753906 61.019531 11.382812 C 61.101562 11.347656 61.179688 11.308594 61.261719 11.285156 C 61.585938 11.179688 61.875 11.230469 62.113281 11.472656 C 62.359375 11.722656 62.398438 12.011719 62.265625 12.332031 C 61.859375 13.277344 61.453125 14.226562 61.039062 15.167969 C 60.957031 15.359375 60.953125 15.484375 61.109375 15.65625 C 61.738281 16.359375 62.347656 17.078125 62.960938 17.796875 C 63.050781 17.902344 63.140625 18.015625 63.210938 18.140625 C 63.382812 18.449219 63.316406 18.8125 63.035156 19.089844 " fill-opacity="1" fill-rule="nonzero"/><g clip-path="url(#513130c5f6)"><path fill="#004a82" d="M 68.601562 42.527344 C 68.347656 42.546875 68.167969 42.410156 68.007812 42.214844 C 67.371094 41.445312 66.726562 40.683594 66.101562 39.90625 C 65.933594 39.695312 65.773438 39.648438 65.519531 39.714844 C 64.574219 39.964844 63.621094 40.1875 62.671875 40.421875 C 62.3125 40.511719 62.007812 40.425781 61.777344 40.128906 C 61.578125 39.867188 61.589844 39.519531 61.792969 39.191406 C 62.335938 38.328125 62.871094 37.464844 63.425781 36.613281 C 63.542969 36.429688 63.535156 36.300781 63.421875 36.121094 C 62.898438 35.304688 62.394531 34.472656 61.878906 33.648438 C 61.734375 33.417969 61.652344 33.167969 61.714844 32.894531 C 61.816406 32.476562 62.230469 32.242188 62.660156 32.347656 C 63.691406 32.605469 64.722656 32.863281 65.753906 33.132812 C 65.910156 33.175781 66 33.140625 66.097656 33.027344 C 66.710938 32.296875 67.328125 31.570312 67.941406 30.839844 C 68.167969 30.570312 68.394531 30.324219 68.796875 30.351562 C 69.183594 30.378906 69.492188 30.671875 69.515625 31.0625 C 69.585938 32.136719 69.664062 33.207031 69.726562 34.285156 C 69.734375 34.453125 69.828125 34.503906 69.957031 34.558594 C 70.847656 34.917969 71.734375 35.285156 72.625 35.652344 C 72.703125 35.6875 72.789062 35.714844 72.867188 35.753906 C 73.167969 35.90625 73.339844 36.148438 73.332031 36.492188 C 73.328125 36.839844 73.15625 37.074219 72.835938 37.203125 C 71.878906 37.585938 70.921875 37.96875 69.960938 38.34375 C 69.769531 38.417969 69.679688 38.503906 69.664062 38.738281 C 69.613281 39.679688 69.535156 40.621094 69.460938 41.558594 C 69.449219 41.699219 69.433594 41.84375 69.394531 41.976562 C 69.300781 42.324219 68.996094 42.53125 68.601562 42.527344 " fill-opacity="1" fill-rule="nonzero"/></g><path fill="#004a82" d="M 55.960938 63.035156 C 55.769531 62.871094 55.738281 62.644531 55.761719 62.394531 C 55.859375 61.402344 55.941406 60.40625 56.050781 59.414062 C 56.078125 59.144531 56 59 55.769531 58.867188 C 54.925781 58.375 54.097656 57.859375 53.261719 57.355469 C 52.941406 57.164062 52.785156 56.886719 52.835938 56.515625 C 52.875 56.191406 53.128906 55.953125 53.511719 55.863281 C 54.5 55.636719 55.488281 55.40625 56.480469 55.195312 C 56.699219 55.148438 56.78125 55.050781 56.828125 54.84375 C 57.039062 53.894531 57.269531 52.953125 57.484375 52.003906 C 57.550781 51.734375 57.667969 51.5 57.902344 51.355469 C 58.269531 51.128906 58.734375 51.257812 58.960938 51.636719 C 59.507812 52.550781 60.058594 53.460938 60.59375 54.378906 C 60.671875 54.519531 60.761719 54.5625 60.910156 54.546875 C 61.859375 54.464844 62.808594 54.386719 63.761719 54.304688 C 64.113281 54.269531 64.449219 54.261719 64.710938 54.5625 C 64.964844 54.859375 64.976562 55.28125 64.71875 55.578125 C 64.007812 56.386719 63.304688 57.199219 62.585938 58 C 62.476562 58.128906 62.503906 58.226562 62.558594 58.359375 C 62.929688 59.242188 63.300781 60.128906 63.667969 61.019531 C 63.703125 61.101562 63.742188 61.179688 63.769531 61.261719 C 63.875 61.585938 63.820312 61.875 63.578125 62.113281 C 63.328125 62.355469 63.039062 62.398438 62.722656 62.265625 C 61.777344 61.859375 60.828125 61.453125 59.882812 61.039062 C 59.695312 60.957031 59.566406 60.953125 59.394531 61.109375 C 58.695312 61.738281 57.972656 62.347656 57.253906 62.960938 C 57.148438 63.050781 57.035156 63.140625 56.914062 63.210938 C 56.601562 63.382812 56.238281 63.316406 55.960938 63.035156 " fill-opacity="1" fill-rule="nonzero"/><g clip-path="url(#63282301da)"><path fill="#004a82" d="M 32.523438 68.601562 C 32.503906 68.347656 32.644531 68.167969 32.835938 68.007812 C 33.605469 67.371094 34.367188 66.726562 35.148438 66.101562 C 35.355469 65.933594 35.402344 65.777344 35.335938 65.519531 C 35.085938 64.574219 34.867188 63.621094 34.632812 62.671875 C 34.542969 62.3125 34.625 62.007812 34.921875 61.777344 C 35.183594 61.578125 35.53125 61.589844 35.863281 61.792969 C 36.722656 62.335938 37.585938 62.871094 38.4375 63.425781 C 38.621094 63.542969 38.746094 63.535156 38.929688 63.421875 C 39.746094 62.898438 40.578125 62.394531 41.402344 61.878906 C 41.636719 61.730469 41.882812 61.652344 42.15625 61.714844 C 42.574219 61.816406 42.8125 62.234375 42.703125 62.660156 C 42.445312 63.691406 42.1875 64.722656 41.917969 65.753906 C 41.878906 65.910156 41.910156 66 42.027344 66.097656 C 42.757812 66.710938 43.484375 67.328125 44.214844 67.941406 C 44.484375 68.167969 44.730469 68.394531 44.699219 68.796875 C 44.671875 69.183594 44.378906 69.492188 43.988281 69.515625 C 42.917969 69.585938 41.84375 69.664062 40.769531 69.726562 C 40.597656 69.734375 40.550781 69.828125 40.496094 69.957031 C 40.132812 70.847656 39.765625 71.734375 39.402344 72.625 C 39.367188 72.703125 39.335938 72.789062 39.296875 72.867188 C 39.144531 73.167969 38.902344 73.339844 38.558594 73.332031 C 38.214844 73.328125 37.976562 73.15625 37.851562 72.835938 C 37.464844 71.878906 37.082031 70.921875 36.707031 69.960938 C 36.632812 69.769531 36.546875 69.679688 36.3125 69.664062 C 35.371094 69.613281 34.433594 69.535156 33.492188 69.460938 C 33.351562 69.449219 33.207031 69.433594 33.074219 69.394531 C 32.730469 69.300781 32.519531 68.996094 32.523438 68.601562 " fill-opacity="1" fill-rule="nonzero"/></g><path fill="#004a82" d="M 12.015625 55.960938 C 12.179688 55.769531 12.410156 55.738281 12.65625 55.765625 C 13.652344 55.859375 14.644531 55.941406 15.636719 56.050781 C 15.90625 56.078125 16.050781 56 16.183594 55.769531 C 16.679688 54.925781 17.191406 54.097656 17.695312 53.257812 C 17.890625 52.941406 18.164062 52.785156 18.535156 52.835938 C 18.859375 52.875 19.101562 53.128906 19.1875 53.511719 C 19.414062 54.5 19.644531 55.488281 19.859375 56.480469 C 19.902344 56.699219 20 56.78125 20.210938 56.828125 C 21.15625 57.039062 22.101562 57.269531 23.046875 57.484375 C 23.316406 57.550781 23.550781 57.667969 23.695312 57.902344 C 23.921875 58.269531 23.792969 58.734375 23.414062 58.957031 C 22.503906 59.507812 21.589844 60.054688 20.671875 60.59375 C 20.53125 60.671875 20.492188 60.761719 20.503906 60.910156 C 20.589844 61.859375 20.667969 62.808594 20.75 63.761719 C 20.777344 64.113281 20.792969 64.449219 20.488281 64.710938 C 20.195312 64.964844 19.769531 64.976562 19.476562 64.71875 C 18.667969 64.007812 17.855469 63.304688 17.050781 62.589844 C 16.921875 62.476562 16.824219 62.503906 16.695312 62.558594 C 15.808594 62.929688 14.921875 63.300781 14.035156 63.667969 C 13.953125 63.703125 13.871094 63.742188 13.789062 63.765625 C 13.46875 63.875 13.179688 63.820312 12.9375 63.578125 C 12.695312 63.328125 12.652344 63.039062 12.789062 62.722656 C 13.195312 61.773438 13.597656 60.828125 14.011719 59.882812 C 14.097656 59.695312 14.097656 59.566406 13.941406 59.394531 C 13.3125 58.695312 12.707031 57.972656 12.089844 57.253906 C 12 57.148438 11.910156 57.035156 11.84375 56.914062 C 11.667969 56.601562 11.734375 56.238281 12.015625 55.960938 " fill-opacity="1" fill-rule="nonzero"/><g clip-path="url(#f1bd43a8e3)"><path fill="#004a82" d="M 6.453125 32.523438 C 6.703125 32.503906 6.886719 32.640625 7.046875 32.835938 C 7.679688 33.605469 8.324219 34.367188 8.953125 35.148438 C 9.121094 35.355469 9.277344 35.402344 9.535156 35.335938 C 10.480469 35.085938 11.429688 34.867188 12.378906 34.632812 C 12.738281 34.542969 13.046875 34.625 13.273438 34.921875 C 13.476562 35.183594 13.464844 35.53125 13.253906 35.863281 C 12.714844 36.722656 12.179688 37.585938 11.628906 38.4375 C 11.507812 38.621094 11.519531 38.75 11.632812 38.929688 C 12.15625 39.746094 12.65625 40.578125 13.171875 41.402344 C 13.320312 41.636719 13.402344 41.882812 13.335938 42.15625 C 13.238281 42.574219 12.820312 42.8125 12.390625 42.703125 C 11.359375 42.445312 10.328125 42.1875 9.296875 41.917969 C 9.144531 41.878906 9.050781 41.910156 8.957031 42.023438 C 8.34375 42.757812 7.726562 43.484375 7.113281 44.214844 C 6.886719 44.484375 6.65625 44.730469 6.253906 44.699219 C 5.867188 44.671875 5.5625 44.378906 5.535156 43.988281 C 5.464844 42.917969 5.390625 41.84375 5.324219 40.769531 C 5.316406 40.597656 5.226562 40.546875 5.09375 40.496094 C 4.203125 40.132812 3.316406 39.765625 2.429688 39.402344 C 2.347656 39.367188 2.265625 39.335938 2.1875 39.296875 C 1.886719 39.144531 1.714844 38.902344 1.71875 38.558594 C 1.722656 38.214844 1.898438 37.976562 2.214844 37.851562 C 3.171875 37.464844 4.128906 37.082031 5.089844 36.707031 C 5.28125 36.632812 5.375 36.546875 5.386719 36.3125 C 5.433594 35.371094 5.519531 34.433594 5.589844 33.492188 C 5.601562 33.351562 5.617188 33.207031 5.65625 33.074219 C 5.753906 32.730469 6.054688 32.519531 6.453125 32.523438 " fill-opacity="1" fill-rule="nonzero"/></g><path fill="#004a82" d="M 19.089844 12.015625 C 19.28125 12.179688 19.3125 12.410156 19.289062 12.65625 C 19.195312 13.652344 19.113281 14.644531 19.003906 15.636719 C 18.972656 15.90625 19.050781 16.050781 19.28125 16.183594 C 20.125 16.675781 20.953125 17.191406 21.792969 17.695312 C 22.109375 17.886719 22.265625 18.164062 22.21875 18.535156 C 22.175781 18.859375 21.921875 19.101562 21.542969 19.191406 C 20.550781 19.414062 19.5625 19.644531 18.570312 19.855469 C 18.355469 19.902344 18.273438 20 18.222656 20.207031 C 18.015625 21.15625 17.78125 22.101562 17.5625 23.046875 C 17.503906 23.316406 17.386719 23.550781 17.148438 23.695312 C 16.78125 23.921875 16.320312 23.792969 16.089844 23.414062 C 15.546875 22.503906 14.996094 21.589844 14.457031 20.671875 C 14.378906 20.535156 14.289062 20.492188 14.140625 20.503906 C 13.191406 20.589844 12.242188 20.667969 11.289062 20.75 C 10.941406 20.78125 10.605469 20.789062 10.339844 20.488281 C 10.085938 20.195312 10.074219 19.769531 10.335938 19.476562 C 11.042969 18.667969 11.75 17.855469 12.464844 17.050781 C 12.578125 16.925781 12.550781 16.824219 12.496094 16.695312 C 12.121094 15.808594 11.753906 14.921875 11.382812 14.035156 C 11.347656 13.953125 11.308594 13.871094 11.28125 13.789062 C 11.179688 13.46875 11.230469 13.179688 11.472656 12.9375 C 11.722656 12.695312 12.011719 12.652344 12.328125 12.789062 C 13.277344 13.195312 14.226562 13.597656 15.167969 14.011719 C 15.359375 14.097656 15.484375 14.101562 15.65625 13.941406 C 16.359375 13.3125 17.078125 12.707031 17.796875 12.089844 C 17.902344 12 18.015625 11.910156 18.140625 11.84375 C 18.449219 11.667969 18.8125 11.734375 19.089844 12.015625 " fill-opacity="1" fill-rule="nonzero"/><path fill="#004a82" d="M 53.148438 30.335938 L 53.011719 30.242188 C 52.96875 30.203125 52.945312 30.191406 52.921875 30.175781 L 52.835938 30.121094 C 52.8125 30.105469 52.796875 30.09375 52.777344 30.082031 L 52.601562 30.003906 C 52.527344 29.96875 52.441406 29.9375 52.347656 29.898438 C 50.945312 29.453125 49.429688 29.640625 48 29.789062 C 47.964844 29.792969 47.894531 29.792969 47.8125 29.800781 C 47.6875 29.804688 47.515625 29.804688 47.3125 29.816406 C 47.234375 29.816406 47.144531 29.816406 47.046875 29.824219 C 46.980469 29.824219 46.90625 29.824219 46.832031 29.828125 C 46.535156 29.832031 46.203125 29.84375 45.898438 29.859375 C 45.832031 29.867188 45.757812 29.867188 45.695312 29.871094 C 45.644531 29.871094 45.597656 29.878906 45.554688 29.882812 C 45.457031 29.890625 45.367188 29.894531 45.28125 29.898438 C 45.089844 29.917969 44.921875 29.941406 44.792969 29.964844 C 44.746094 29.96875 44.699219 29.980469 44.664062 29.988281 C 44.660156 29.992188 44.660156 29.992188 44.652344 29.992188 C 44.648438 29.992188 44.644531 30 44.632812 30 C 44.59375 30 44.558594 29.960938 44.558594 29.917969 C 44.558594 29.914062 44.5625 29.898438 44.5625 29.894531 L 44.988281 28.464844 C 45.242188 27.601562 45.503906 26.722656 45.773438 25.859375 C 46.171875 24.609375 46.296875 23.609375 46.175781 22.617188 C 46.035156 21.371094 45.3125 20.234375 44.253906 19.570312 C 43.648438 19.191406 42.96875 18.992188 42.289062 18.992188 C 42.230469 18.992188 42.179688 18.992188 42.125 18.996094 C 41.46875 19.023438 41.070312 19.398438 41.011719 20.042969 C 40.925781 20.882812 40.835938 21.640625 40.726562 22.351562 C 40.523438 23.621094 40.183594 24.675781 39.671875 25.578125 C 39.378906 26.089844 39.046875 26.550781 38.636719 26.980469 C 38.101562 27.554688 37.519531 28.179688 36.882812 28.898438 L 35.441406 30.550781 C 35.101562 30.9375 34.757812 31.316406 34.382812 31.671875 C 34.316406 31.746094 34.21875 31.832031 34.105469 31.933594 C 33.855469 32.148438 33.582031 32.328125 33.269531 32.472656 C 33.09375 32.546875 32.867188 32.617188 32.542969 32.707031 C 31.324219 33.046875 30.613281 33.394531 30.570312 34.132812 C 30.542969 34.542969 30.523438 34.894531 30.511719 35.222656 L 30.511719 35.453125 C 30.5 35.769531 30.496094 36.078125 30.496094 36.378906 L 30.496094 47.785156 L 32.402344 47.777344 L 32.5 47.796875 C 33.160156 47.894531 33.84375 48.011719 34.71875 48.164062 L 35.101562 48.226562 C 36.824219 48.511719 38.40625 48.78125 39.992188 48.960938 C 43.886719 49.417969 48.605469 50.554688 51.441406 47.019531 C 52.601562 45.578125 52.710938 43.527344 52.980469 41.769531 C 53.414062 38.882812 53.902344 36.003906 54.304688 33.109375 C 54.449219 32.09375 53.984375 30.976562 53.148438 30.335938 " fill-opacity="1" fill-rule="nonzero"/><path fill="#004a82" d="M 27.128906 31.203125 L 21.949219 31.203125 C 21.269531 31.203125 20.722656 31.75 20.722656 32.429688 L 20.722656 47.816406 C 20.722656 48.492188 21.269531 49.039062 21.949219 49.039062 L 27.128906 49.039062 C 27.804688 49.039062 28.351562 48.492188 28.351562 47.816406 L 28.351562 32.429688 C 28.351562 31.75 27.804688 31.203125 27.128906 31.203125 " fill-opacity="1" fill-rule="nonzero"/></svg>