<svg xmlns="http://www.w3.org/2000/svg" xmlns:xlink="http://www.w3.org/1999/xlink" width="55" zoomAndPan="magnify" viewBox="0 0 41.25 41.250001" height="55" preserveAspectRatio="xMidYMid meet" version="1.0"><defs><clipPath id="2cf858c1bf"><path d="M 0 0 L 40.511719 0 L 40.511719 40.511719 L 0 40.511719 Z M 0 0 " clip-rule="nonzero"/></clipPath><clipPath id="56c985b14f"><path d="M 14.472656 14.035156 L 26 14.035156 L 26 26.558594 L 14.472656 26.558594 Z M 14.472656 14.035156 " clip-rule="nonzero"/></clipPath></defs><g clip-path="url(#2cf858c1bf)"><path fill="#ffffff" d="M 0 0 L 40.511719 0 L 40.511719 40.511719 L 0 40.511719 Z M 0 0 " fill-opacity="1" fill-rule="nonzero"/><path fill="#ffffff" d="M 0 0 L 40.511719 0 L 40.511719 40.511719 L 0 40.511719 Z M 0 0 " fill-opacity="1" fill-rule="nonzero"/></g><g clip-path="url(#56c985b14f)"><path fill="#004a82" d="M 25.066406 20.625 C 24.332031 23.484375 22.714844 25.308594 20.257812 26.042969 C 17.800781 25.308594 16.183594 23.492188 15.449219 20.636719 C 14.988281 18.847656 15.035156 17.1875 15.070312 16.648438 C 17.367188 16.574219 19.28125 15.222656 20.257812 14.511719 C 21.226562 15.214844 23.144531 16.574219 25.441406 16.648438 C 25.476562 17.1875 25.523438 18.839844 25.066406 20.625 Z M 25.839844 16.421875 C 25.828125 16.316406 25.742188 16.238281 25.632812 16.238281 C 23.34375 16.238281 21.457031 14.875 20.445312 14.140625 L 20.378906 14.089844 C 20.304688 14.039062 20.207031 14.039062 20.136719 14.089844 L 20.082031 14.128906 C 19.140625 14.8125 17.179688 16.238281 14.878906 16.238281 C 14.769531 16.238281 14.683594 16.316406 14.671875 16.421875 C 14.664062 16.507812 14.472656 18.488281 15.046875 20.726562 C 15.8125 23.71875 17.59375 25.699219 20.199219 26.457031 C 20.21875 26.464844 20.238281 26.464844 20.257812 26.464844 C 20.277344 26.464844 20.292969 26.464844 20.3125 26.457031 C 22.917969 25.699219 24.699219 23.71875 25.464844 20.726562 C 26.039062 18.488281 25.847656 16.507812 25.839844 16.421875 " fill-opacity="1" fill-rule="nonzero"/></g><path fill="#004a82" d="M 22.535156 18.644531 L 19.886719 22.089844 C 19.820312 22.179688 19.714844 22.238281 19.601562 22.253906 C 19.585938 22.253906 19.570312 22.253906 19.554688 22.253906 C 19.460938 22.253906 19.367188 22.222656 19.289062 22.160156 L 17.957031 21.066406 C 17.777344 20.921875 17.75 20.65625 17.898438 20.476562 C 18.042969 20.300781 18.308594 20.273438 18.488281 20.417969 L 19.488281 21.238281 L 21.871094 18.132812 C 22.011719 17.949219 22.273438 17.914062 22.457031 18.054688 C 22.640625 18.199219 22.675781 18.460938 22.535156 18.644531 Z M 20.253906 15.320312 C 19.359375 15.964844 17.730469 17.066406 15.773438 17.1875 C 15.722656 18.558594 15.816406 23.886719 20.253906 25.261719 C 24.695312 23.886719 24.789062 18.558594 24.738281 17.1875 C 22.777344 17.066406 21.144531 15.960938 20.253906 15.320312 " fill-opacity="1" fill-rule="nonzero"/></svg>