<svg xmlns="http://www.w3.org/2000/svg" xmlns:xlink="http://www.w3.org/1999/xlink" width="100" zoomAndPan="magnify" viewBox="0 0 75 74.999997" height="100" preserveAspectRatio="xMidYMid meet" version="1.0"><defs><clipPath id="74719fad30"><path d="M 5 2.046875 L 70 2.046875 L 70 73 L 5 73 Z M 5 2.046875 " clip-rule="nonzero"/></clipPath></defs><g clip-path="url(#74719fad30)"><path fill="#004a82" d="M 64.921875 39.625 C 60.746094 55.929688 51.519531 66.320312 37.5 70.515625 C 23.496094 66.328125 14.277344 55.957031 10.089844 39.6875 C 7.46875 29.496094 7.746094 20.023438 7.929688 16.945312 C 21.019531 16.535156 31.941406 8.8125 37.5 4.78125 C 43.023438 8.773438 53.976562 16.53125 67.066406 16.945312 C 67.253906 20.015625 67.53125 29.441406 64.921875 39.625 Z M 69.332031 15.667969 C 69.273438 15.066406 68.765625 14.609375 68.160156 14.609375 C 55.101562 14.609375 44.351562 6.832031 38.574219 2.652344 L 38.191406 2.375 C 37.777344 2.078125 37.21875 2.078125 36.808594 2.375 L 36.511719 2.589844 C 31.140625 6.492188 19.964844 14.609375 6.835938 14.609375 C 6.230469 14.609375 5.726562 15.066406 5.664062 15.667969 C 5.617188 16.144531 4.527344 27.449219 7.796875 40.210938 C 12.164062 57.261719 22.320312 68.554688 37.171875 72.875 C 37.277344 72.90625 37.390625 72.921875 37.5 72.921875 C 37.609375 72.921875 37.722656 72.90625 37.828125 72.875 C 52.675781 68.554688 62.835938 57.261719 67.203125 40.210938 C 70.472656 27.449219 69.378906 16.144531 69.332031 15.667969 " fill-opacity="1" fill-rule="nonzero"/></g><path fill="#004a82" d="M 50.496094 28.328125 L 35.402344 47.980469 C 35.007812 48.496094 34.421875 48.824219 33.78125 48.898438 C 33.6875 48.910156 33.597656 48.914062 33.507812 48.914062 C 32.957031 48.914062 32.421875 48.726562 31.992188 48.375 L 24.386719 42.148438 C 23.367188 41.3125 23.214844 39.808594 24.050781 38.785156 C 24.886719 37.765625 26.394531 37.617188 27.414062 38.453125 L 33.113281 43.117188 L 46.707031 25.417969 C 47.511719 24.371094 49.007812 24.175781 50.054688 24.980469 C 51.101562 25.78125 51.300781 27.28125 50.496094 28.328125 Z M 37.5 9.375 C 32.398438 13.054688 23.113281 19.332031 11.941406 20.015625 C 11.648438 27.847656 12.183594 58.21875 37.5 66.046875 C 62.8125 58.21875 63.347656 27.847656 63.054688 20.015625 C 51.882812 19.328125 42.574219 13.03125 37.5 9.375 " fill-opacity="1" fill-rule="nonzero"/></svg>