<svg xmlns="http://www.w3.org/2000/svg" xmlns:xlink="http://www.w3.org/1999/xlink" width="55" zoomAndPan="magnify" viewBox="0 0 41.25 41.250001" height="55" preserveAspectRatio="xMidYMid meet" version="1.0"><defs><clipPath id="ef39b28d7d"><path d="M 0 0 L 40.511719 0 L 40.511719 40.511719 L 0 40.511719 Z M 0 0 " clip-rule="nonzero"/></clipPath><clipPath id="07c3ccc917"><path d="M 22 21 L 27.566406 21 L 27.566406 28.359375 L 22 28.359375 Z M 22 21 " clip-rule="nonzero"/></clipPath><clipPath id="ec715f342b"><path d="M 12.832031 21 L 19 21 L 19 28.359375 L 12.832031 28.359375 Z M 12.832031 21 " clip-rule="nonzero"/></clipPath><clipPath id="264d112304"><path d="M 14 12.152344 L 27 12.152344 L 27 24 L 14 24 Z M 14 12.152344 " clip-rule="nonzero"/></clipPath></defs><g clip-path="url(#ef39b28d7d)"><path fill="#ffffff" d="M 0 0 L 40.511719 0 L 40.511719 40.511719 L 0 40.511719 Z M 0 0 " fill-opacity="1" fill-rule="nonzero"/><path fill="#ffffff" d="M 0 0 L 40.511719 0 L 40.511719 40.511719 L 0 40.511719 Z M 0 0 " fill-opacity="1" fill-rule="nonzero"/></g><g clip-path="url(#07c3ccc917)"><path fill="#004a82" d="M 24.308594 21.863281 L 23.871094 23.472656 C 23.671875 24.207031 22.933594 24.609375 22.265625 24.441406 L 24.273438 28.359375 L 25.210938 25.882812 L 27.621094 26.683594 L 25.078125 21.628906 Z M 24.308594 21.863281 " fill-opacity="1" fill-rule="nonzero"/></g><g clip-path="url(#ec715f342b)"><path fill="#004a82" d="M 16.574219 22.066406 L 15.367188 21.730469 L 12.890625 26.683594 L 15.300781 25.882812 L 16.238281 28.359375 L 18.148438 24.574219 C 16.941406 24.375 17.007812 23.003906 16.574219 22.066406 Z M 16.574219 22.066406 " fill-opacity="1" fill-rule="nonzero"/></g><path fill="#004a82" d="M 20.324219 14.664062 C 18.449219 14.664062 16.90625 16.207031 16.90625 18.113281 C 16.90625 20.023438 18.449219 21.5625 20.355469 21.5625 C 22.265625 21.5625 23.804688 20.023438 23.804688 18.113281 C 23.773438 16.207031 22.230469 14.664062 20.324219 14.664062 Z M 21.863281 20.425781 L 20.324219 19.652344 L 18.816406 20.457031 L 19.117188 18.75 L 17.878906 17.542969 L 19.585938 17.308594 L 20.355469 15.769531 L 21.125 17.308594 L 22.835938 17.542969 L 21.59375 18.75 Z M 21.863281 20.425781 " fill-opacity="1" fill-rule="nonzero"/><g clip-path="url(#264d112304)"><path fill="#004a82" d="M 23.234375 23.269531 L 23.636719 21.695312 C 23.703125 21.460938 23.871094 21.292969 24.105469 21.226562 C 24.140625 21.226562 25.746094 20.691406 25.648438 20.726562 C 26.082031 20.589844 26.25 20.089844 26.046875 19.722656 L 25.210938 18.316406 C 25.109375 18.113281 25.078125 17.878906 25.210938 17.644531 L 25.949219 16.171875 C 26.148438 15.769531 25.949219 15.300781 25.511719 15.199219 L 23.9375 14.765625 C 23.703125 14.699219 23.539062 14.53125 23.46875 14.296875 L 22.933594 12.757812 C 22.800781 12.355469 22.296875 12.152344 21.929688 12.355469 L 20.523438 13.191406 C 20.324219 13.324219 20.054688 13.324219 19.855469 13.226562 L 18.382812 12.488281 C 17.980469 12.289062 17.511719 12.488281 17.410156 12.925781 L 17.007812 14.496094 C 16.941406 14.730469 16.773438 14.898438 16.539062 14.964844 L 14.964844 15.46875 C 14.53125 15.601562 14.363281 16.105469 14.5625 16.472656 L 15.402344 17.878906 C 15.535156 18.082031 15.535156 18.316406 15.433594 18.550781 L 14.699219 20.023438 C 14.496094 20.425781 14.699219 20.894531 15.132812 20.992188 C 15.167969 20.992188 16.808594 21.429688 16.707031 21.394531 C 16.941406 21.460938 17.109375 21.628906 17.175781 21.863281 L 17.679688 23.4375 C 17.777344 23.773438 18.113281 23.972656 18.449219 23.90625 C 18.648438 23.871094 18.648438 23.839844 20.089844 23.003906 C 20.289062 22.867188 20.558594 22.867188 20.757812 23.003906 C 20.792969 23.035156 22.296875 23.804688 22.199219 23.738281 C 22.667969 23.90625 23.136719 23.707031 23.234375 23.269531 Z M 20.324219 22.199219 C 18.078125 22.199219 16.203125 20.355469 16.203125 18.082031 C 16.203125 15.804688 18.046875 13.960938 20.324219 13.960938 C 22.601562 13.960938 24.441406 15.804688 24.441406 18.082031 C 24.441406 18.882812 24.207031 19.652344 23.804688 20.289062 C 23.070312 21.496094 21.730469 22.199219 20.324219 22.199219 Z M 20.324219 22.199219 " fill-opacity="1" fill-rule="nonzero"/></g></svg>