<svg xmlns="http://www.w3.org/2000/svg" xmlns:xlink="http://www.w3.org/1999/xlink" width="100" zoomAndPan="magnify" viewBox="0 0 75 74.999997" height="100" preserveAspectRatio="xMidYMid meet" version="1.0"><defs><clipPath id="31055aaacd"><path d="M 46 43 L 69.414062 43 L 69.414062 72.503906 L 46 72.503906 Z M 46 43 " clip-rule="nonzero"/></clipPath><clipPath id="f5532d0a09"><path d="M 5.664062 43 L 29 43 L 29 72.503906 L 5.664062 72.503906 Z M 5.664062 43 " clip-rule="nonzero"/></clipPath></defs><g clip-path="url(#31055aaacd)"><path fill="#004a82" d="M 54.867188 44.386719 L 53.003906 51.277344 C 52.140625 54.433594 48.984375 56.15625 46.113281 55.4375 L 54.726562 72.234375 L 58.746094 61.613281 L 69.082031 65.058594 L 58.171875 43.378906 Z M 54.867188 44.386719 " fill-opacity="1" fill-rule="nonzero"/></g><g clip-path="url(#f5532d0a09)"><path fill="#004a82" d="M 21.707031 45.246094 L 16.539062 43.8125 L 5.917969 65.058594 L 16.253906 61.613281 L 20.273438 72.234375 L 28.453125 56.011719 C 23.285156 55.152344 23.574219 49.265625 21.707031 45.246094 Z M 21.707031 45.246094 " fill-opacity="1" fill-rule="nonzero"/></g><path fill="#004a82" d="M 37.785156 13.519531 C 29.746094 13.519531 23.144531 20.125 23.144531 28.308594 C 23.144531 36.488281 29.746094 43.09375 37.929688 43.09375 C 46.113281 43.09375 52.714844 36.488281 52.714844 28.308594 C 52.570312 20.125 45.96875 13.519531 37.785156 13.519531 Z M 44.390625 38.210938 L 37.785156 34.910156 L 31.324219 38.355469 L 32.617188 31.035156 L 27.304688 25.867188 L 34.628906 24.863281 L 37.929688 18.257812 L 41.230469 24.863281 L 48.550781 25.867188 L 43.242188 31.035156 Z M 44.390625 38.210938 " fill-opacity="1" fill-rule="nonzero"/><path fill="#004a82" d="M 50.273438 50.414062 L 51.996094 43.667969 C 52.285156 42.664062 53.003906 41.945312 54.007812 41.65625 C 54.152344 41.65625 61.042969 39.359375 60.609375 39.503906 C 62.476562 38.929688 63.195312 36.777344 62.332031 35.199219 L 58.746094 29.167969 C 58.3125 28.308594 58.171875 27.300781 58.746094 26.296875 L 61.902344 19.980469 C 62.765625 18.257812 61.902344 16.25 60.035156 15.816406 L 53.289062 13.953125 C 52.285156 13.664062 51.566406 12.945312 51.28125 11.941406 L 48.984375 5.339844 C 48.410156 3.617188 46.253906 2.753906 44.675781 3.617188 L 38.648438 7.203125 C 37.785156 7.777344 36.636719 7.777344 35.777344 7.347656 L 29.460938 4.191406 C 27.738281 3.328125 25.726562 4.191406 25.296875 6.054688 L 23.574219 12.804688 C 23.285156 13.808594 22.570312 14.527344 21.5625 14.8125 L 14.816406 16.964844 C 12.949219 17.539062 12.234375 19.695312 13.09375 21.273438 L 16.683594 27.300781 C 17.257812 28.164062 17.257812 29.167969 16.828125 30.171875 L 13.667969 36.488281 C 12.808594 38.210938 13.667969 40.222656 15.535156 40.652344 C 15.679688 40.652344 22.710938 42.519531 22.28125 42.375 C 23.285156 42.664062 24.003906 43.378906 24.292969 44.386719 L 26.445312 51.132812 C 26.875 52.566406 28.3125 53.429688 29.746094 53.140625 C 30.609375 53 30.609375 52.855469 36.78125 49.265625 C 37.640625 48.691406 38.789062 48.691406 39.652344 49.265625 C 39.796875 49.410156 46.253906 52.710938 45.824219 52.425781 C 47.835938 53.140625 49.84375 52.28125 50.273438 50.414062 Z M 37.785156 45.820312 C 28.167969 45.820312 20.128906 37.925781 20.128906 28.164062 C 20.128906 18.402344 28.023438 10.507812 37.785156 10.507812 C 47.546875 10.507812 55.441406 18.402344 55.441406 28.164062 C 55.441406 31.609375 54.4375 34.910156 52.714844 37.636719 C 49.558594 42.804688 43.816406 45.820312 37.785156 45.820312 Z M 37.785156 45.820312 " fill-opacity="1" fill-rule="nonzero"/></svg>