<svg width="100" height="100" xmlns="http://www.w3.org/2000/svg" version="1.0" preserveAspectRatio="xMidYMid meet" zoomAndPan="magnify">
 <g id="Layer_1">
  <title>Layer 1</title>
  <g stroke="null" id="svg_2" clip-path="url(#a585a0a1b8)">
   <path stroke="null" id="svg_1" fill-rule="nonzero" d="m99.62041,49.93455c0,3.26065 -0.31054,6.4954 -0.94456,9.69133c-0.64694,3.20888 -1.57855,6.31424 -2.83362,9.32905c-1.24215,3.01477 -2.78191,5.87433 -4.59336,8.59151c-1.81148,2.70424 -3.86877,5.21443 -6.17191,7.51757c-2.31609,2.31609 -4.82629,4.37338 -7.53052,6.18486c-2.71719,1.81145 -5.57674,3.33826 -8.59151,4.59336c-3.01481,1.24215 -6.12017,2.18667 -9.32905,2.8207c-3.19593,0.64694 -6.43068,0.95748 -9.69133,0.95748c-3.26062,0 -6.4954,-0.31054 -9.69133,-0.95748c-3.19593,-0.63402 -6.30129,-1.57855 -9.3161,-2.8207c-3.01481,-1.2551 -5.87433,-2.78191 -8.59151,-4.59336c-2.71719,-1.81148 -5.22738,-3.86877 -7.53052,-6.18486c-2.30314,-2.30314 -4.36043,-4.81333 -6.18486,-7.51757c-1.81145,-2.71719 -3.33826,-5.57674 -4.58041,-8.59151c-1.25506,-3.01481 -2.19963,-6.12017 -2.83365,-9.32905c-0.63399,-3.19593 -0.95748,-6.43068 -0.95748,-9.69133c0,-3.26062 0.32349,-6.4954 0.95748,-9.69133c0.63402,-3.19593 1.57859,-6.30129 2.83365,-9.3161c1.24215,-3.01481 2.76896,-5.88724 4.58041,-8.59151c1.82443,-2.71719 3.88172,-5.22738 6.18486,-7.53052c2.30314,-2.31609 4.81333,-4.37338 7.53052,-6.18486c2.71719,-1.81145 5.57671,-3.33826 8.59151,-4.59333c3.01481,-1.24215 6.12017,-2.18671 9.3161,-2.82073c3.19593,-0.63399 6.43071,-0.95748 9.69133,-0.95748c3.26065,0 6.4954,0.32349 9.69133,0.95748c3.20888,0.63402 6.31424,1.57859 9.32905,2.82073c3.01477,1.25506 5.87433,2.78188 8.59151,4.59333c2.70424,1.81148 5.21443,3.86877 7.53052,6.18486c2.30314,2.30314 4.36043,4.81333 6.17191,7.53052c1.81145,2.70427 3.35121,5.57671 4.59336,8.59151c1.25506,3.01481 2.18667,6.12017 2.83362,9.3161c0.63402,3.19593 0.94456,6.43071 0.94456,9.69133zm0,0" fill="#004a82"/>
  </g>
  <path stroke="null" id="svg_4" fill-rule="nonzero" d="m65.06321,52.08444l1.58617,-12.25281l-12.13643,0l0,-7.82903c0,-3.53615 0.98956,-5.96633 6.08278,-5.96633l6.47565,0l0,-10.9577c-1.1205,-0.14551 -4.96224,-0.48019 -9.44429,-0.48019c-9.35697,0 -15.75987,5.71893 -15.75987,16.1964l0,9.03685l-10.57932,0l0,12.25281l10.57932,0l0,31.43241l12.64572,0l0,-31.43241l10.55026,0zm0,0" fill="#ffffff"/>
 </g>
</svg>