<svg xmlns="http://www.w3.org/2000/svg" xmlns:xlink="http://www.w3.org/1999/xlink" width="100" zoomAndPan="magnify" viewBox="0 0 75 74.999997" height="100" preserveAspectRatio="xMidYMid meet" version="1.0"><defs><clipPath id="ff32748023"><path d="M 1.59375 29 L 73.59375 29 L 73.59375 46 L 1.59375 46 Z M 1.59375 29 " clip-rule="nonzero"/></clipPath><clipPath id="a4f393d462"><path d="M 11 46 L 64 46 L 64 65.15625 L 11 65.15625 Z M 11 46 " clip-rule="nonzero"/></clipPath><clipPath id="7ddc8a2510"><path d="M 11 9.65625 L 64 9.65625 L 64 29 L 11 29 Z M 11 9.65625 " clip-rule="nonzero"/></clipPath></defs><path fill="#004a82" d="M 37.613281 37.605469 L 39.09375 37.605469 L 38.351562 35.386719 Z M 37.613281 37.605469 " fill-opacity="1" fill-rule="nonzero"/><path fill="#004a82" d="M 32.953125 34.875 L 31.972656 34.875 L 31.972656 36.65625 L 32.957031 36.65625 C 33.265625 36.65625 33.503906 36.578125 33.671875 36.421875 C 33.839844 36.265625 33.921875 36.050781 33.921875 35.777344 C 33.921875 35.496094 33.84375 35.277344 33.683594 35.117188 C 33.527344 34.957031 33.28125 34.875 32.953125 34.875 Z M 32.953125 34.875 " fill-opacity="1" fill-rule="nonzero"/><g clip-path="url(#ff32748023)"><path fill="#004a82" d="M 55.886719 29.648438 L 1.613281 29.648438 L 9.015625 37.050781 C 9.140625 37.171875 9.199219 37.320312 9.199219 37.492188 C 9.199219 37.667969 9.140625 37.8125 9.015625 37.9375 L 1.613281 45.339844 L 73.390625 45.339844 L 65.988281 37.9375 C 65.863281 37.8125 65.804688 37.667969 65.804688 37.492188 C 65.804688 37.320312 65.863281 37.171875 65.988281 37.050781 L 73.390625 29.648438 Z M 15.496094 38.441406 C 15.730469 38.757812 16.078125 38.917969 16.535156 38.917969 C 16.992188 38.917969 17.320312 38.820312 17.515625 38.625 L 17.515625 37.601562 L 16.402344 37.601562 L 16.402344 36.703125 L 18.738281 36.703125 L 18.738281 39.070312 C 18.519531 39.332031 18.207031 39.539062 17.804688 39.683594 C 17.371094 39.832031 16.925781 39.90625 16.46875 39.902344 C 15.953125 39.902344 15.503906 39.789062 15.117188 39.566406 C 14.71875 39.332031 14.417969 39.007812 14.222656 38.589844 C 14.011719 38.160156 13.902344 37.660156 13.898438 37.085938 L 13.898438 36.679688 C 13.898438 36.089844 13.996094 35.574219 14.195312 35.144531 C 14.394531 34.710938 14.683594 34.378906 15.058594 34.148438 C 15.4375 33.917969 15.878906 33.804688 16.382812 33.804688 C 17.085938 33.804688 17.636719 33.972656 18.035156 34.308594 C 18.429688 34.644531 18.664062 35.132812 18.738281 35.773438 L 17.546875 35.773438 C 17.492188 35.433594 17.375 35.183594 17.1875 35.027344 C 17 34.867188 16.746094 34.789062 16.417969 34.789062 C 16.003906 34.789062 15.6875 34.945312 15.46875 35.257812 C 15.253906 35.570312 15.140625 36.035156 15.140625 36.652344 L 15.140625 37.03125 C 15.140625 37.652344 15.257812 38.125 15.496094 38.441406 Z M 24.21875 37.792969 C 24.21875 38.441406 24.015625 38.957031 23.609375 39.335938 C 23.203125 39.710938 22.648438 39.902344 21.945312 39.902344 C 21.253906 39.902344 20.703125 39.71875 20.296875 39.351562 C 19.886719 38.984375 19.679688 38.480469 19.671875 37.839844 L 19.671875 33.886719 L 20.894531 33.886719 L 20.894531 37.800781 C 20.894531 38.191406 20.988281 38.472656 21.171875 38.652344 C 21.359375 38.828125 21.617188 38.917969 21.945312 38.917969 C 22.632812 38.917969 22.984375 38.558594 22.992188 37.835938 L 22.992188 33.886719 L 24.21875 33.886719 Z M 28.894531 39.820312 L 28.484375 38.597656 L 26.339844 38.597656 L 25.933594 39.820312 L 24.632812 39.820312 L 26.839844 33.886719 L 27.972656 33.886719 L 30.195312 39.820312 Z M 35.371094 39.820312 L 34.058594 39.820312 L 32.945312 37.648438 L 31.972656 37.648438 L 31.972656 39.820312 L 30.75 39.820312 L 30.75 33.886719 L 32.953125 33.886719 C 33.65625 33.886719 34.195312 34.042969 34.574219 34.355469 C 34.957031 34.667969 35.144531 35.109375 35.144531 35.679688 C 35.144531 36.082031 35.058594 36.421875 34.882812 36.691406 C 34.707031 36.960938 34.441406 37.175781 34.085938 37.335938 L 35.371094 39.761719 Z M 39.835938 39.820312 L 39.425781 38.597656 L 37.28125 38.597656 L 36.875 39.820312 L 35.574219 39.820312 L 37.78125 33.886719 L 38.917969 33.886719 L 41.136719 39.820312 Z M 46.515625 39.820312 L 45.292969 39.820312 L 42.914062 35.914062 L 42.914062 39.820312 L 41.691406 39.820312 L 41.691406 33.886719 L 42.914062 33.886719 L 45.296875 37.796875 L 45.296875 33.886719 L 46.515625 33.886719 Z M 51.933594 34.875 L 50.117188 34.875 L 50.117188 39.820312 L 48.894531 39.820312 L 48.894531 34.875 L 47.101562 34.875 L 47.101562 33.886719 L 51.933594 33.886719 Z M 56.609375 39.820312 L 52.628906 39.820312 L 52.628906 33.886719 L 56.597656 33.886719 L 56.597656 34.875 L 53.851562 34.875 L 53.851562 36.289062 L 56.199219 36.289062 L 56.199219 37.238281 L 53.851562 37.238281 L 53.851562 38.835938 L 56.609375 38.835938 Z M 61.300781 39.820312 L 57.324219 39.820312 L 57.324219 33.886719 L 61.292969 33.886719 L 61.292969 34.875 L 58.546875 34.875 L 58.546875 36.289062 L 60.894531 36.289062 L 60.894531 37.238281 L 58.546875 37.238281 L 58.546875 38.835938 L 61.304688 38.835938 Z M 61.300781 39.820312 " fill-opacity="1" fill-rule="nonzero"/></g><path fill="#004a82" d="M 40.578125 61.761719 C 40.546875 61.460938 40.476562 61.238281 40.359375 61.085938 C 40.242188 60.929688 40.085938 60.863281 39.890625 60.890625 C 39.699219 60.90625 39.566406 61 39.484375 61.171875 C 39.402344 61.339844 39.375 61.574219 39.402344 61.871094 L 39.417969 62.011719 C 39.449219 62.316406 39.523438 62.539062 39.640625 62.6875 C 39.695312 62.753906 39.765625 62.804688 39.84375 62.839844 C 39.925781 62.875 40.011719 62.886719 40.101562 62.878906 C 40.1875 62.871094 40.269531 62.839844 40.339844 62.792969 C 40.414062 62.742188 40.472656 62.679688 40.515625 62.601562 C 40.597656 62.4375 40.621094 62.203125 40.59375 61.902344 Z M 40.578125 61.761719 " fill-opacity="1" fill-rule="nonzero"/><path fill="#004a82" d="M 56.363281 54.015625 C 56.464844 54.097656 56.558594 54.128906 56.652344 54.109375 C 56.742188 54.089844 56.84375 54.015625 56.949219 53.886719 L 57.183594 53.609375 L 56.636719 53.152344 L 56.390625 53.449219 C 56.285156 53.574219 56.234375 53.679688 56.234375 53.769531 C 56.238281 53.875 56.28125 53.953125 56.363281 54.015625 Z M 56.363281 54.015625 " fill-opacity="1" fill-rule="nonzero"/><path fill="#004a82" d="M 55.390625 52.738281 C 55.304688 52.839844 55.261719 52.941406 55.261719 53.035156 C 55.265625 53.136719 55.308594 53.21875 55.390625 53.28125 C 55.589844 53.445312 55.769531 53.433594 55.933594 53.238281 L 56.265625 52.839844 L 55.703125 52.367188 Z M 55.390625 52.738281 " fill-opacity="1" fill-rule="nonzero"/><path fill="#004a82" d="M 26.667969 37.605469 L 28.152344 37.605469 L 27.40625 35.386719 Z M 26.667969 37.605469 " fill-opacity="1" fill-rule="nonzero"/><g clip-path="url(#a4f393d462)"><path fill="#004a82" d="M 48.890625 54.976562 C 48.269531 55.378906 47.632812 55.75 46.976562 56.082031 C 46.316406 56.417969 45.644531 56.71875 44.953125 56.980469 C 44.265625 57.246094 43.5625 57.472656 42.847656 57.660156 C 42.136719 57.851562 41.414062 58 40.683594 58.113281 C 39.953125 58.226562 39.21875 58.300781 38.484375 58.335938 C 37.746094 58.371094 37.007812 58.363281 36.269531 58.320312 C 35.535156 58.277344 34.800781 58.195312 34.074219 58.074219 C 33.34375 57.953125 32.625 57.792969 31.914062 57.59375 C 31.203125 57.398438 30.503906 57.164062 29.816406 56.890625 C 29.128906 56.617188 28.460938 56.3125 27.804688 55.96875 C 27.152344 55.625 26.519531 55.25 25.90625 54.839844 C 25.289062 54.429688 24.699219 53.988281 24.132812 53.515625 C 23.566406 53.039062 23.027344 52.539062 22.511719 52.007812 C 22 51.480469 21.515625 50.921875 21.058594 50.339844 C 20.605469 49.757812 20.183594 49.15625 19.792969 48.527344 C 19.402344 47.902344 19.046875 47.257812 18.722656 46.59375 L 11.179688 46.59375 C 11.648438 47.953125 12.222656 49.265625 12.898438 50.539062 C 13.570312 51.808594 14.339844 53.019531 15.203125 54.171875 C 16.066406 55.324219 17.011719 56.402344 18.042969 57.40625 C 19.070312 58.414062 20.171875 59.332031 21.34375 60.167969 C 22.519531 61.003906 23.746094 61.742188 25.035156 62.386719 C 26.320312 63.03125 27.652344 63.570312 29.019531 64.007812 C 30.390625 64.445312 31.789062 64.777344 33.210938 65 C 34.632812 65.21875 36.0625 65.332031 37.503906 65.332031 C 38.941406 65.332031 40.371094 65.21875 41.792969 65 C 43.214844 64.777344 44.613281 64.445312 45.984375 64.007812 C 47.351562 63.570312 48.683594 63.03125 49.96875 62.386719 C 51.257812 61.742188 52.484375 61.003906 53.660156 60.167969 C 54.832031 59.332031 55.933594 58.414062 56.960938 57.40625 C 57.992188 56.402344 58.9375 55.324219 59.800781 54.171875 C 60.664062 53.019531 61.433594 51.808594 62.105469 50.539062 C 62.78125 49.265625 63.355469 47.953125 63.828125 46.59375 L 56.28125 46.59375 C 54.59375 50.070312 52.128906 52.867188 48.890625 54.976562 Z M 18.738281 55.558594 L 18.21875 54.957031 L 18.859375 53.65625 L 17.480469 54.097656 L 16.960938 53.492188 L 19.097656 52.960938 L 19.933594 52.238281 L 20.421875 52.808594 L 19.585938 53.527344 Z M 22.375 58.011719 L 22.011719 58.449219 L 20.03125 56.816406 L 20.394531 56.375 L 21.105469 56.964844 L 22.699219 55.035156 L 23.269531 55.507812 L 21.679688 57.433594 Z M 24.234375 59.902344 L 23.605469 59.515625 L 25.21875 56.898438 L 25.84375 57.289062 Z M 27.804688 61.691406 L 27.128906 61.386719 L 28.148438 59.105469 L 26.96875 58.578125 L 27.203125 58.058594 L 29.054688 58.886719 Z M 31.367188 62.820312 L 30.695312 62.644531 L 30.359375 59.390625 L 31.132812 59.585938 L 31.160156 60.1875 L 32.144531 60.441406 L 32.457031 59.929688 L 33.222656 60.125 Z M 36.890625 61.546875 L 36.738281 63.566406 L 35.996094 63.507812 L 36.148438 61.476562 C 36.167969 61.140625 36.023438 60.960938 35.71875 60.9375 C 35.566406 60.925781 35.449219 60.960938 35.363281 61.039062 C 35.277344 61.117188 35.230469 61.25 35.214844 61.4375 L 35.0625 63.4375 L 34.328125 63.382812 L 34.476562 61.378906 C 34.488281 61.167969 34.550781 60.976562 34.667969 60.800781 C 34.777344 60.636719 34.925781 60.519531 35.113281 60.453125 C 35.324219 60.375 35.539062 60.347656 35.761719 60.371094 C 36.136719 60.398438 36.421875 60.515625 36.621094 60.726562 C 36.820312 60.9375 36.910156 61.210938 36.890625 61.546875 Z M 41.253906 62.621094 C 41.171875 62.855469 41.035156 63.046875 40.839844 63.199219 C 40.402344 63.511719 39.9375 63.558594 39.445312 63.339844 C 39.222656 63.234375 39.046875 63.074219 38.917969 62.863281 C 38.777344 62.628906 38.695312 62.375 38.667969 62.101562 L 38.65625 61.960938 C 38.625 61.703125 38.644531 61.453125 38.71875 61.207031 C 38.785156 60.996094 38.898438 60.8125 39.058594 60.660156 L 38.523438 60.320312 L 38.941406 59.886719 L 39.652344 60.347656 C 39.710938 60.332031 39.773438 60.324219 39.835938 60.316406 C 40.082031 60.289062 40.316406 60.324219 40.542969 60.425781 C 40.765625 60.53125 40.941406 60.6875 41.066406 60.894531 C 41.210938 61.128906 41.296875 61.378906 41.320312 61.648438 L 41.339844 61.8125 C 41.371094 62.085938 41.34375 62.359375 41.253906 62.621094 Z M 45.769531 62.234375 L 45.5625 61.703125 L 46.421875 61.363281 L 45.507812 59.039062 L 46.195312 58.769531 L 47.109375 61.09375 L 47.953125 60.765625 L 48.160156 61.296875 Z M 51.550781 58.992188 C 51.527344 59.171875 51.460938 59.328125 51.347656 59.46875 C 51.21875 59.636719 51.0625 59.773438 50.882812 59.878906 C 50.707031 59.988281 50.515625 60.058594 50.3125 60.085938 C 50.132812 60.113281 49.957031 60.085938 49.789062 60.011719 C 49.625 59.933594 49.5 59.816406 49.40625 59.660156 L 50.039062 59.277344 C 50.09375 59.378906 50.175781 59.441406 50.289062 59.464844 C 50.402344 59.484375 50.511719 59.460938 50.605469 59.394531 C 50.707031 59.339844 50.78125 59.261719 50.828125 59.15625 C 50.867188 59.070312 50.863281 58.988281 50.8125 58.90625 C 50.773438 58.839844 50.699219 58.800781 50.59375 58.789062 C 50.488281 58.777344 50.328125 58.796875 50.109375 58.847656 C 49.925781 58.898438 49.738281 58.925781 49.546875 58.933594 C 49.164062 58.941406 48.886719 58.800781 48.714844 58.511719 C 48.574219 58.285156 48.550781 58.050781 48.644531 57.816406 C 48.738281 57.578125 48.9375 57.371094 49.238281 57.1875 C 49.4375 57.0625 49.652344 56.984375 49.886719 56.949219 C 50.085938 56.917969 50.28125 56.945312 50.464844 57.027344 C 50.640625 57.113281 50.777344 57.242188 50.875 57.410156 L 50.238281 57.792969 C 50.15625 57.652344 50.054688 57.570312 49.941406 57.546875 C 49.828125 57.527344 49.691406 57.5625 49.527344 57.664062 C 49.433594 57.710938 49.363281 57.785156 49.320312 57.878906 C 49.285156 57.964844 49.292969 58.046875 49.34375 58.125 C 49.394531 58.21875 49.46875 58.269531 49.574219 58.28125 C 49.671875 58.296875 49.816406 58.277344 50.015625 58.234375 C 50.183594 58.195312 50.347656 58.167969 50.519531 58.148438 C 50.960938 58.109375 51.269531 58.238281 51.445312 58.53125 C 51.535156 58.671875 51.570312 58.824219 51.550781 58.992188 Z M 53.46875 58.078125 L 53.097656 57.644531 L 54.144531 56.746094 L 53.726562 56.253906 L 52.839844 57.011719 L 52.484375 56.59375 L 53.367188 55.839844 L 52.890625 55.28125 L 51.847656 56.175781 L 51.476562 55.742188 L 53.082031 54.367188 L 55.078125 56.699219 Z M 57.382812 54.253906 C 57.128906 54.558594 56.882812 54.742188 56.636719 54.804688 C 56.394531 54.871094 56.167969 54.8125 55.957031 54.636719 C 55.839844 54.546875 55.761719 54.429688 55.714844 54.289062 C 55.675781 54.152344 55.679688 54.015625 55.734375 53.882812 C 55.609375 53.976562 55.46875 54.019531 55.316406 54.015625 C 55.160156 54 55.023438 53.945312 54.910156 53.839844 C 54.679688 53.648438 54.566406 53.429688 54.574219 53.183594 C 54.582031 52.941406 54.703125 52.675781 54.941406 52.390625 L 55.742188 51.433594 L 58.09375 53.410156 Z M 57.382812 54.253906 " fill-opacity="1" fill-rule="nonzero"/></g><path fill="#004a82" d="M 26.796875 53.929688 C 27.367188 54.300781 27.957031 54.640625 28.5625 54.953125 C 29.171875 55.261719 29.792969 55.539062 30.425781 55.785156 C 31.0625 56.03125 31.707031 56.242188 32.367188 56.421875 C 33.023438 56.601562 33.6875 56.742188 34.359375 56.851562 C 35.035156 56.960938 35.710938 57.035156 36.390625 57.074219 C 37.070312 57.113281 37.75 57.117188 38.429688 57.082031 C 39.113281 57.050781 39.789062 56.984375 40.460938 56.882812 C 41.136719 56.777344 41.800781 56.640625 42.460938 56.46875 C 43.121094 56.296875 43.769531 56.089844 44.40625 55.851562 C 45.042969 55.609375 45.667969 55.339844 46.277344 55.035156 C 46.886719 54.730469 47.476562 54.394531 48.050781 54.027344 C 48.625 53.660156 49.179688 53.265625 49.710938 52.84375 C 50.246094 52.417969 50.753906 51.96875 51.242188 51.488281 C 51.726562 51.011719 52.1875 50.511719 52.621094 49.988281 C 53.054688 49.460938 53.460938 48.914062 53.839844 48.347656 C 54.214844 47.78125 54.5625 47.195312 54.878906 46.59375 L 20.125 46.59375 C 21.710938 49.617188 23.9375 52.0625 26.796875 53.929688 Z M 26.796875 53.929688 " fill-opacity="1" fill-rule="nonzero"/><g clip-path="url(#7ddc8a2510)"><path fill="#004a82" d="M 26.113281 20.011719 C 26.734375 19.605469 27.371094 19.238281 28.027344 18.902344 C 28.6875 18.566406 29.359375 18.269531 30.050781 18.003906 C 30.738281 17.742188 31.441406 17.515625 32.15625 17.324219 C 32.867188 17.136719 33.589844 16.984375 34.320312 16.871094 C 35.050781 16.761719 35.785156 16.6875 36.519531 16.652344 C 37.257812 16.617188 37.996094 16.621094 38.734375 16.664062 C 39.46875 16.707031 40.203125 16.792969 40.929688 16.914062 C 41.660156 17.035156 42.378906 17.195312 43.089844 17.390625 C 43.800781 17.589844 44.5 17.824219 45.1875 18.09375 C 45.875 18.367188 46.542969 18.675781 47.199219 19.019531 C 47.851562 19.359375 48.484375 19.738281 49.097656 20.148438 C 49.710938 20.558594 50.304688 21 50.871094 21.472656 C 51.4375 21.945312 51.976562 22.449219 52.492188 22.976562 C 53.003906 23.507812 53.488281 24.0625 53.945312 24.644531 C 54.398438 25.226562 54.820312 25.832031 55.210938 26.457031 C 55.601562 27.085938 55.957031 27.730469 56.28125 28.394531 L 63.824219 28.394531 C 63.355469 27.035156 62.78125 25.71875 62.105469 24.449219 C 61.433594 23.175781 60.664062 21.964844 59.800781 20.8125 C 58.9375 19.664062 57.992188 18.582031 56.960938 17.578125 C 55.933594 16.574219 54.832031 15.652344 53.65625 14.820312 C 52.484375 13.984375 51.257812 13.246094 49.96875 12.601562 C 48.683594 11.957031 47.351562 11.417969 45.984375 10.976562 C 44.613281 10.539062 43.214844 10.210938 41.792969 9.988281 C 40.371094 9.765625 38.941406 9.65625 37.5 9.65625 C 36.0625 9.65625 34.632812 9.765625 33.210938 9.988281 C 31.789062 10.210938 30.390625 10.539062 29.019531 10.976562 C 27.652344 11.417969 26.320312 11.957031 25.035156 12.601562 C 23.746094 13.246094 22.519531 13.984375 21.34375 14.820312 C 20.171875 15.652344 19.070312 16.574219 18.042969 17.578125 C 17.011719 18.582031 16.066406 19.664062 15.203125 20.8125 C 14.339844 21.964844 13.570312 23.175781 12.898438 24.449219 C 12.222656 25.71875 11.648438 27.035156 11.175781 28.394531 L 18.722656 28.394531 C 20.410156 24.917969 22.875 22.121094 26.113281 20.011719 Z M 56.265625 19.953125 L 56.785156 20.554688 L 56.144531 21.855469 L 57.523438 21.414062 L 58.042969 22.019531 L 55.90625 22.550781 L 55.070312 23.273438 L 54.582031 22.703125 L 55.417969 21.984375 Z M 52.628906 17.503906 L 52.992188 17.0625 L 54.972656 18.695312 L 54.609375 19.136719 L 53.898438 18.546875 L 52.304688 20.476562 L 51.734375 20.003906 L 53.324219 18.078125 Z M 50.769531 15.609375 L 51.398438 15.996094 L 49.785156 18.613281 L 49.160156 18.222656 Z M 47.199219 13.820312 L 47.875 14.125 L 46.855469 16.40625 L 48.03125 16.933594 L 47.800781 17.453125 L 45.949219 16.625 Z M 43.636719 12.691406 L 44.308594 12.867188 L 44.644531 16.121094 L 43.871094 15.925781 L 43.84375 15.324219 L 42.859375 15.070312 L 42.546875 15.582031 L 41.777344 15.386719 Z M 38.113281 13.964844 L 38.265625 11.945312 L 39.007812 12.003906 L 38.855469 14.035156 C 38.835938 14.371094 38.980469 14.550781 39.285156 14.574219 C 39.4375 14.585938 39.554688 14.550781 39.640625 14.472656 C 39.726562 14.394531 39.773438 14.261719 39.789062 14.074219 L 39.941406 12.074219 L 40.675781 12.128906 L 40.527344 14.132812 C 40.515625 14.34375 40.453125 14.535156 40.335938 14.710938 C 40.226562 14.875 40.078125 14.992188 39.890625 15.058594 C 39.679688 15.136719 39.464844 15.164062 39.242188 15.140625 C 38.867188 15.113281 38.582031 14.996094 38.382812 14.785156 C 38.183594 14.574219 38.09375 14.300781 38.113281 13.964844 Z M 33.75 12.890625 C 33.832031 12.65625 33.96875 12.464844 34.164062 12.3125 C 34.601562 12 35.066406 11.953125 35.558594 12.171875 C 35.78125 12.277344 35.957031 12.4375 36.082031 12.648438 C 36.226562 12.882812 36.308594 13.136719 36.335938 13.410156 L 36.347656 13.550781 C 36.378906 13.808594 36.359375 14.058594 36.285156 14.304688 C 36.21875 14.515625 36.105469 14.699219 35.945312 14.851562 L 36.480469 15.191406 L 36.0625 15.625 L 35.351562 15.164062 C 35.292969 15.179688 35.230469 15.1875 35.167969 15.195312 C 34.921875 15.222656 34.6875 15.1875 34.457031 15.085938 C 34.238281 14.980469 34.0625 14.824219 33.933594 14.617188 C 33.792969 14.382812 33.707031 14.132812 33.679688 13.863281 L 33.664062 13.699219 C 33.632812 13.425781 33.660156 13.152344 33.75 12.890625 Z M 29.234375 13.277344 L 29.441406 13.808594 L 28.582031 14.148438 L 29.496094 16.472656 L 28.808594 16.742188 L 27.894531 14.417969 L 27.050781 14.746094 L 26.84375 14.214844 Z M 23.453125 16.519531 C 23.476562 16.339844 23.542969 16.183594 23.65625 16.042969 C 23.785156 15.875 23.941406 15.738281 24.121094 15.632812 C 24.296875 15.523438 24.488281 15.453125 24.691406 15.425781 C 24.871094 15.398438 25.046875 15.425781 25.214844 15.5 C 25.378906 15.578125 25.503906 15.695312 25.597656 15.851562 L 24.964844 16.234375 C 24.910156 16.132812 24.828125 16.070312 24.714844 16.046875 C 24.601562 16.027344 24.492188 16.050781 24.398438 16.117188 C 24.296875 16.171875 24.222656 16.25 24.175781 16.355469 C 24.136719 16.441406 24.140625 16.523438 24.191406 16.605469 C 24.230469 16.671875 24.304688 16.710938 24.410156 16.722656 C 24.515625 16.734375 24.675781 16.714844 24.894531 16.664062 C 25.078125 16.613281 25.265625 16.585938 25.457031 16.578125 C 25.839844 16.570312 26.117188 16.710938 26.289062 17 C 26.429688 17.226562 26.453125 17.460938 26.359375 17.695312 C 26.265625 17.933594 26.066406 18.140625 25.765625 18.324219 C 25.566406 18.449219 25.351562 18.527344 25.117188 18.5625 C 24.917969 18.59375 24.722656 18.566406 24.539062 18.484375 C 24.363281 18.398438 24.226562 18.269531 24.128906 18.101562 L 24.765625 17.71875 C 24.847656 17.859375 24.949219 17.941406 25.0625 17.964844 C 25.175781 17.984375 25.3125 17.949219 25.476562 17.847656 C 25.570312 17.800781 25.640625 17.726562 25.683594 17.632812 C 25.71875 17.546875 25.710938 17.464844 25.660156 17.386719 C 25.609375 17.292969 25.535156 17.242188 25.429688 17.230469 C 25.332031 17.214844 25.183594 17.234375 24.988281 17.277344 C 24.820312 17.316406 24.65625 17.34375 24.484375 17.363281 C 24.042969 17.402344 23.734375 17.273438 23.558594 16.980469 C 23.46875 16.839844 23.433594 16.6875 23.453125 16.519531 Z M 21.535156 17.433594 L 21.90625 17.867188 L 20.859375 18.765625 L 21.277344 19.257812 L 22.164062 18.5 L 22.519531 18.917969 L 21.636719 19.671875 L 22.113281 20.230469 L 23.15625 19.335938 L 23.527344 19.769531 L 21.921875 21.144531 L 19.925781 18.8125 Z M 17.621094 21.257812 C 17.875 20.953125 18.121094 20.769531 18.367188 20.707031 C 18.609375 20.640625 18.835938 20.699219 19.046875 20.875 C 19.160156 20.964844 19.242188 21.082031 19.289062 21.222656 C 19.328125 21.359375 19.320312 21.496094 19.269531 21.628906 C 19.394531 21.535156 19.535156 21.492188 19.6875 21.5 C 19.84375 21.511719 19.980469 21.566406 20.09375 21.671875 C 20.324219 21.863281 20.4375 22.082031 20.429688 22.328125 C 20.421875 22.570312 20.300781 22.835938 20.0625 23.121094 L 19.261719 24.078125 L 16.910156 22.101562 Z M 17.621094 21.257812 " fill-opacity="1" fill-rule="nonzero"/></g><path fill="#004a82" d="M 19.613281 22.773438 C 19.699219 22.671875 19.742188 22.570312 19.742188 22.476562 C 19.738281 22.375 19.695312 22.292969 19.613281 22.230469 C 19.414062 22.066406 19.234375 22.078125 19.070312 22.273438 L 18.738281 22.671875 L 19.300781 23.144531 Z M 19.613281 22.773438 " fill-opacity="1" fill-rule="nonzero"/><path fill="#004a82" d="M 18.640625 21.496094 C 18.539062 21.414062 18.445312 21.382812 18.351562 21.402344 C 18.261719 21.421875 18.160156 21.496094 18.054688 21.625 L 17.820312 21.902344 L 18.367188 22.359375 L 18.613281 22.0625 C 18.71875 21.9375 18.769531 21.832031 18.769531 21.742188 C 18.765625 21.640625 18.722656 21.558594 18.640625 21.496094 Z M 18.640625 21.496094 " fill-opacity="1" fill-rule="nonzero"/><path fill="#004a82" d="M 48.207031 21.058594 C 47.632812 20.6875 47.046875 20.347656 46.441406 20.035156 C 45.832031 19.726562 45.210938 19.445312 44.578125 19.203125 C 43.941406 18.957031 43.296875 18.742188 42.636719 18.566406 C 41.980469 18.386719 41.316406 18.242188 40.644531 18.132812 C 39.96875 18.023438 39.292969 17.953125 38.613281 17.914062 C 37.933594 17.875 37.253906 17.871094 36.574219 17.902344 C 35.890625 17.933594 35.214844 18.003906 34.542969 18.105469 C 33.867188 18.207031 33.203125 18.347656 32.542969 18.519531 C 31.882812 18.691406 31.234375 18.894531 30.597656 19.136719 C 29.960938 19.375 29.335938 19.648438 28.726562 19.953125 C 28.117188 20.257812 27.527344 20.59375 26.953125 20.960938 C 26.378906 21.324219 25.824219 21.722656 25.289062 22.144531 C 24.757812 22.570312 24.25 23.019531 23.761719 23.496094 C 23.277344 23.972656 22.816406 24.476562 22.382812 25 C 21.949219 25.523438 21.542969 26.070312 21.164062 26.636719 C 20.789062 27.207031 20.441406 27.792969 20.125 28.394531 L 54.878906 28.394531 C 53.292969 25.371094 51.066406 22.925781 48.207031 21.058594 Z M 48.207031 21.058594 " fill-opacity="1" fill-rule="nonzero"/><path fill="#004a82" d="M 31.246094 61.898438 L 31.832031 60.949219 L 31.191406 60.785156 Z M 31.246094 61.898438 " fill-opacity="1" fill-rule="nonzero"/><path fill="#004a82" d="M 34.425781 13.75 C 34.457031 14.050781 34.527344 14.273438 34.644531 14.425781 C 34.761719 14.582031 34.917969 14.648438 35.113281 14.621094 C 35.304688 14.605469 35.4375 14.511719 35.519531 14.339844 C 35.601562 14.171875 35.628906 13.9375 35.601562 13.640625 L 35.585938 13.5 C 35.554688 13.195312 35.480469 12.972656 35.363281 12.824219 C 35.308594 12.757812 35.238281 12.707031 35.160156 12.671875 C 35.078125 12.636719 34.992188 12.625 34.902344 12.632812 C 34.816406 12.640625 34.734375 12.671875 34.664062 12.71875 C 34.589844 12.769531 34.53125 12.832031 34.488281 12.910156 C 34.40625 13.078125 34.382812 13.308594 34.410156 13.609375 Z M 34.425781 13.75 " fill-opacity="1" fill-rule="nonzero"/><path fill="#004a82" d="M 43.757812 13.613281 L 43.171875 14.5625 L 43.8125 14.726562 Z M 43.757812 13.613281 " fill-opacity="1" fill-rule="nonzero"/></svg>