<svg xmlns="http://www.w3.org/2000/svg" xmlns:xlink="http://www.w3.org/1999/xlink" width="55" zoomAndPan="magnify" viewBox="0 0 41.25 41.250001" height="55" preserveAspectRatio="xMidYMid meet" version="1.0"><defs><clipPath id="ea53f3067e"><path d="M 0 0 L 40.511719 0 L 40.511719 40.511719 L 0 40.511719 Z M 0 0 " clip-rule="nonzero"/></clipPath><clipPath id="1df25073fe"><path d="M 11.167969 18 L 29.585938 18 L 29.585938 23 L 11.167969 23 Z M 11.167969 18 " clip-rule="nonzero"/></clipPath><clipPath id="5bf6d2839a"><path d="M 13 22 L 27 22 L 27 27.207031 L 13 27.207031 Z M 13 22 " clip-rule="nonzero"/></clipPath><clipPath id="61fc118e4c"><path d="M 13 13.210938 L 27 13.210938 L 27 18 L 13 18 Z M 13 13.210938 " clip-rule="nonzero"/></clipPath><clipPath id="06cb92aa61"><path d="M 19 13.210938 L 20 13.210938 L 20 15 L 19 15 Z M 19 13.210938 " clip-rule="nonzero"/></clipPath></defs><g clip-path="url(#ea53f3067e)"><path fill="#ffffff" d="M 0 0 L 40.511719 0 L 40.511719 40.511719 L 0 40.511719 Z M 0 0 " fill-opacity="1" fill-rule="nonzero"/><path fill="#ffffff" d="M 0 0 L 40.511719 0 L 40.511719 40.511719 L 0 40.511719 Z M 0 0 " fill-opacity="1" fill-rule="nonzero"/></g><path fill="#004a82" d="M 20.285156 20.28125 L 20.660156 20.28125 L 20.472656 19.71875 Z M 20.285156 20.28125 " fill-opacity="1" fill-rule="nonzero"/><path fill="#004a82" d="M 19.105469 19.589844 L 18.859375 19.589844 L 18.859375 20.042969 L 19.105469 20.042969 C 19.183594 20.042969 19.246094 20.023438 19.289062 19.984375 C 19.332031 19.941406 19.351562 19.890625 19.351562 19.820312 C 19.351562 19.75 19.332031 19.691406 19.292969 19.652344 C 19.25 19.613281 19.191406 19.589844 19.105469 19.589844 Z M 19.105469 19.589844 " fill-opacity="1" fill-rule="nonzero"/><g clip-path="url(#1df25073fe)"><path fill="#004a82" d="M 24.910156 18.269531 L 11.175781 18.269531 L 13.050781 20.140625 C 13.125 20.214844 13.125 20.292969 13.050781 20.367188 L 11.175781 22.238281 L 29.339844 22.238281 L 27.464844 20.367188 C 27.390625 20.292969 27.390625 20.214844 27.464844 20.140625 L 29.339844 18.269531 Z M 14.6875 20.492188 C 14.75 20.574219 14.835938 20.613281 14.953125 20.613281 C 15.066406 20.613281 15.152344 20.589844 15.199219 20.539062 L 15.199219 20.28125 L 14.917969 20.28125 L 14.917969 20.054688 L 15.507812 20.054688 L 15.507812 20.652344 C 15.453125 20.71875 15.375 20.769531 15.273438 20.808594 C 15.164062 20.847656 15.050781 20.863281 14.933594 20.863281 C 14.804688 20.863281 14.691406 20.835938 14.59375 20.777344 C 14.492188 20.71875 14.417969 20.636719 14.367188 20.53125 C 14.3125 20.421875 14.285156 20.296875 14.285156 20.152344 L 14.285156 20.046875 C 14.285156 19.898438 14.308594 19.769531 14.359375 19.660156 C 14.410156 19.550781 14.484375 19.464844 14.578125 19.40625 C 14.675781 19.347656 14.785156 19.320312 14.914062 19.320312 C 15.089844 19.320312 15.230469 19.363281 15.332031 19.449219 C 15.429688 19.53125 15.492188 19.65625 15.507812 19.820312 L 15.207031 19.820312 C 15.195312 19.734375 15.164062 19.667969 15.117188 19.628906 C 15.070312 19.589844 15.003906 19.570312 14.921875 19.570312 C 14.816406 19.570312 14.738281 19.609375 14.683594 19.6875 C 14.628906 19.765625 14.597656 19.886719 14.597656 20.042969 L 14.597656 20.136719 C 14.597656 20.292969 14.628906 20.414062 14.6875 20.492188 Z M 16.894531 20.328125 C 16.894531 20.496094 16.84375 20.625 16.742188 20.71875 C 16.640625 20.816406 16.5 20.863281 16.320312 20.863281 C 16.144531 20.863281 16.007812 20.816406 15.902344 20.722656 C 15.800781 20.632812 15.746094 20.503906 15.746094 20.339844 L 15.746094 19.339844 L 16.054688 19.339844 L 16.054688 20.332031 C 16.054688 20.429688 16.078125 20.5 16.125 20.546875 C 16.171875 20.59375 16.238281 20.613281 16.320312 20.613281 C 16.496094 20.613281 16.582031 20.523438 16.585938 20.339844 L 16.585938 19.339844 L 16.894531 19.339844 Z M 18.078125 20.84375 L 17.976562 20.53125 L 17.433594 20.53125 L 17.328125 20.84375 L 17 20.84375 L 17.558594 19.339844 L 17.847656 19.339844 L 18.40625 20.84375 Z M 19.71875 20.84375 L 19.386719 20.84375 L 19.105469 20.292969 L 18.859375 20.292969 L 18.859375 20.84375 L 18.546875 20.84375 L 18.546875 19.339844 L 19.105469 19.339844 C 19.285156 19.339844 19.421875 19.378906 19.515625 19.460938 C 19.613281 19.539062 19.660156 19.648438 19.660156 19.792969 C 19.660156 19.898438 19.640625 19.984375 19.59375 20.050781 C 19.550781 20.121094 19.484375 20.171875 19.394531 20.214844 L 19.71875 20.828125 Z M 20.847656 20.84375 L 20.742188 20.53125 L 20.203125 20.53125 L 20.097656 20.84375 L 19.769531 20.84375 L 20.328125 19.339844 L 20.613281 19.339844 L 21.175781 20.84375 Z M 22.539062 20.84375 L 22.230469 20.84375 L 21.625 19.855469 L 21.625 20.84375 L 21.316406 20.84375 L 21.316406 19.339844 L 21.625 19.339844 L 22.230469 20.332031 L 22.230469 19.339844 L 22.539062 19.339844 Z M 23.910156 19.589844 L 23.449219 19.589844 L 23.449219 20.84375 L 23.140625 20.84375 L 23.140625 19.589844 L 22.6875 19.589844 L 22.6875 19.339844 L 23.910156 19.339844 Z M 25.089844 20.84375 L 24.085938 20.84375 L 24.085938 19.339844 L 25.089844 19.339844 L 25.089844 19.589844 L 24.394531 19.589844 L 24.394531 19.949219 L 24.988281 19.949219 L 24.988281 20.191406 L 24.394531 20.191406 L 24.394531 20.59375 L 25.089844 20.59375 Z M 26.28125 20.84375 L 25.273438 20.84375 L 25.273438 19.339844 L 26.277344 19.339844 L 26.277344 19.589844 L 25.582031 19.589844 L 25.582031 19.949219 L 26.175781 19.949219 L 26.175781 20.191406 L 25.582031 20.191406 L 25.582031 20.59375 L 26.28125 20.59375 Z M 26.28125 20.84375 " fill-opacity="1" fill-rule="nonzero"/></g><path fill="#004a82" d="M 21.035156 26.394531 C 21.027344 26.320312 21.007812 26.261719 20.980469 26.222656 C 20.949219 26.183594 20.910156 26.167969 20.863281 26.175781 C 20.8125 26.175781 20.777344 26.203125 20.757812 26.246094 C 20.738281 26.289062 20.730469 26.347656 20.738281 26.421875 L 20.742188 26.457031 C 20.75 26.535156 20.769531 26.589844 20.796875 26.628906 C 20.828125 26.664062 20.867188 26.683594 20.914062 26.675781 C 20.960938 26.671875 20.996094 26.648438 21.019531 26.605469 C 21.039062 26.566406 21.046875 26.507812 21.039062 26.429688 Z M 21.035156 26.394531 " fill-opacity="1" fill-rule="nonzero"/><path fill="#004a82" d="M 25.03125 24.433594 C 25.054688 24.457031 25.078125 24.464844 25.101562 24.457031 C 25.125 24.453125 25.152344 24.433594 25.179688 24.402344 L 25.238281 24.332031 L 25.097656 24.214844 L 25.035156 24.292969 C 25.011719 24.324219 24.996094 24.351562 24.996094 24.371094 C 25 24.398438 25.007812 24.417969 25.03125 24.433594 Z M 25.03125 24.433594 " fill-opacity="1" fill-rule="nonzero"/><path fill="#004a82" d="M 24.785156 24.113281 C 24.761719 24.136719 24.75 24.164062 24.75 24.1875 C 24.753906 24.210938 24.761719 24.234375 24.785156 24.25 C 24.832031 24.289062 24.878906 24.285156 24.921875 24.238281 L 25.003906 24.136719 L 24.863281 24.019531 Z M 24.785156 24.113281 " fill-opacity="1" fill-rule="nonzero"/><path fill="#004a82" d="M 17.515625 20.28125 L 17.890625 20.28125 L 17.703125 19.71875 Z M 17.515625 20.28125 " fill-opacity="1" fill-rule="nonzero"/><g clip-path="url(#5bf6d2839a)"><path fill="#004a82" d="M 23.136719 24.675781 C 22.824219 24.882812 22.492188 25.050781 22.144531 25.183594 C 21.792969 25.320312 21.433594 25.414062 21.0625 25.472656 C 20.691406 25.527344 20.320312 25.546875 19.945312 25.523438 C 19.570312 25.5 19.203125 25.441406 18.84375 25.339844 C 18.480469 25.238281 18.136719 25.101562 17.804688 24.929688 C 17.472656 24.753906 17.164062 24.546875 16.875 24.308594 C 16.585938 24.066406 16.328125 23.800781 16.097656 23.503906 C 15.867188 23.210938 15.667969 22.894531 15.503906 22.554688 L 13.597656 22.554688 C 13.835938 23.25 14.175781 23.886719 14.613281 24.472656 C 15.054688 25.0625 15.570312 25.566406 16.167969 25.992188 C 16.765625 26.417969 17.414062 26.738281 18.109375 26.964844 C 18.808594 27.1875 19.523438 27.296875 20.257812 27.296875 C 20.988281 27.296875 21.707031 27.1875 22.402344 26.964844 C 23.101562 26.738281 23.75 26.417969 24.34375 25.992188 C 24.941406 25.566406 25.460938 25.0625 25.898438 24.472656 C 26.339844 23.886719 26.679688 23.25 26.917969 22.554688 L 25.007812 22.554688 C 24.582031 23.4375 23.957031 24.144531 23.136719 24.675781 Z M 15.507812 24.824219 L 15.378906 24.671875 L 15.539062 24.34375 L 15.191406 24.457031 L 15.058594 24.300781 L 15.601562 24.167969 L 15.8125 23.984375 L 15.9375 24.128906 L 15.722656 24.3125 Z M 16.429688 25.445312 L 16.335938 25.558594 L 15.835938 25.144531 L 15.929688 25.03125 L 16.109375 25.179688 L 16.511719 24.691406 L 16.65625 24.8125 L 16.253906 25.300781 Z M 16.898438 25.921875 L 16.742188 25.824219 L 17.148438 25.164062 L 17.308594 25.261719 Z M 17.804688 26.375 L 17.632812 26.300781 L 17.890625 25.722656 L 17.59375 25.589844 L 17.652344 25.457031 L 18.121094 25.667969 Z M 18.707031 26.664062 L 18.535156 26.617188 L 18.449219 25.792969 L 18.644531 25.84375 L 18.652344 25.996094 L 18.902344 26.058594 L 18.980469 25.929688 L 19.175781 25.980469 Z M 20.101562 26.339844 L 20.0625 26.851562 L 19.875 26.835938 L 19.914062 26.320312 C 19.917969 26.238281 19.882812 26.191406 19.804688 26.1875 C 19.769531 26.183594 19.738281 26.191406 19.714844 26.210938 C 19.695312 26.230469 19.683594 26.265625 19.679688 26.3125 L 19.640625 26.820312 L 19.453125 26.804688 L 19.492188 26.296875 C 19.496094 26.246094 19.511719 26.195312 19.539062 26.152344 C 19.566406 26.109375 19.605469 26.082031 19.652344 26.0625 C 19.707031 26.042969 19.761719 26.035156 19.816406 26.042969 C 19.910156 26.050781 19.984375 26.078125 20.035156 26.132812 C 20.085938 26.1875 20.109375 26.253906 20.101562 26.339844 Z M 21.207031 26.613281 C 21.1875 26.671875 21.152344 26.71875 21.101562 26.757812 C 20.992188 26.835938 20.875 26.847656 20.75 26.792969 C 20.691406 26.765625 20.648438 26.726562 20.617188 26.671875 C 20.578125 26.613281 20.558594 26.550781 20.550781 26.480469 L 20.550781 26.445312 C 20.539062 26.378906 20.546875 26.316406 20.566406 26.253906 C 20.582031 26.199219 20.609375 26.15625 20.652344 26.117188 L 20.515625 26.03125 L 20.621094 25.921875 L 20.800781 26.035156 C 20.816406 26.035156 20.832031 26.03125 20.847656 26.027344 C 20.910156 26.019531 20.96875 26.03125 21.027344 26.058594 C 21.082031 26.082031 21.128906 26.121094 21.160156 26.175781 C 21.195312 26.234375 21.21875 26.296875 21.222656 26.367188 L 21.226562 26.40625 C 21.238281 26.476562 21.230469 26.546875 21.207031 26.613281 Z M 22.347656 26.515625 L 22.296875 26.378906 L 22.515625 26.292969 L 22.28125 25.707031 L 22.457031 25.636719 L 22.6875 26.226562 L 22.902344 26.140625 L 22.953125 26.277344 Z M 23.8125 25.695312 C 23.804688 25.738281 23.789062 25.777344 23.761719 25.816406 C 23.726562 25.855469 23.6875 25.890625 23.644531 25.917969 C 23.597656 25.945312 23.550781 25.964844 23.5 25.96875 C 23.453125 25.976562 23.410156 25.96875 23.367188 25.953125 C 23.324219 25.933594 23.292969 25.902344 23.269531 25.863281 L 23.429688 25.765625 C 23.441406 25.792969 23.464844 25.808594 23.492188 25.8125 C 23.523438 25.816406 23.546875 25.8125 23.574219 25.796875 C 23.597656 25.78125 23.617188 25.761719 23.628906 25.734375 C 23.640625 25.714844 23.636719 25.691406 23.625 25.671875 C 23.613281 25.65625 23.597656 25.644531 23.570312 25.640625 C 23.542969 25.640625 23.503906 25.644531 23.449219 25.65625 C 23.402344 25.667969 23.351562 25.675781 23.304688 25.679688 C 23.207031 25.679688 23.136719 25.644531 23.09375 25.574219 C 23.058594 25.515625 23.054688 25.457031 23.078125 25.394531 C 23.101562 25.335938 23.152344 25.28125 23.226562 25.238281 C 23.277344 25.207031 23.332031 25.183594 23.390625 25.175781 C 23.441406 25.167969 23.492188 25.175781 23.539062 25.195312 C 23.582031 25.21875 23.617188 25.25 23.640625 25.292969 L 23.480469 25.390625 C 23.457031 25.355469 23.433594 25.335938 23.40625 25.328125 C 23.375 25.324219 23.339844 25.332031 23.300781 25.355469 C 23.277344 25.371094 23.257812 25.386719 23.246094 25.414062 C 23.238281 25.433594 23.242188 25.453125 23.253906 25.472656 C 23.265625 25.496094 23.285156 25.511719 23.3125 25.515625 C 23.335938 25.515625 23.375 25.511719 23.421875 25.503906 C 23.464844 25.492188 23.507812 25.484375 23.550781 25.480469 C 23.664062 25.472656 23.742188 25.503906 23.785156 25.578125 C 23.808594 25.613281 23.816406 25.652344 23.8125 25.695312 Z M 24.296875 25.460938 L 24.203125 25.351562 L 24.46875 25.125 L 24.363281 25 L 24.136719 25.191406 L 24.046875 25.085938 L 24.273438 24.894531 L 24.152344 24.753906 L 23.886719 24.980469 L 23.792969 24.871094 L 24.199219 24.523438 L 24.703125 25.113281 Z M 25.289062 24.496094 C 25.222656 24.570312 25.160156 24.617188 25.097656 24.632812 C 25.039062 24.652344 24.980469 24.636719 24.925781 24.589844 C 24.898438 24.570312 24.878906 24.539062 24.867188 24.503906 C 24.855469 24.46875 24.855469 24.433594 24.871094 24.402344 C 24.839844 24.425781 24.804688 24.4375 24.765625 24.433594 C 24.726562 24.429688 24.691406 24.417969 24.660156 24.390625 C 24.601562 24.339844 24.574219 24.285156 24.578125 24.222656 C 24.578125 24.164062 24.609375 24.097656 24.671875 24.023438 L 24.871094 23.78125 L 25.46875 24.28125 Z M 25.289062 24.496094 " fill-opacity="1" fill-rule="nonzero"/></g><path fill="#004a82" d="M 17.546875 24.414062 C 17.839844 24.601562 18.144531 24.757812 18.46875 24.882812 C 18.789062 25.007812 19.121094 25.097656 19.460938 25.152344 C 19.804688 25.207031 20.148438 25.226562 20.492188 25.210938 C 20.835938 25.195312 21.175781 25.144531 21.511719 25.054688 C 21.847656 24.96875 22.167969 24.847656 22.476562 24.691406 C 22.785156 24.539062 23.078125 24.351562 23.347656 24.136719 C 23.617188 23.921875 23.863281 23.679688 24.082031 23.414062 C 24.304688 23.148438 24.492188 22.863281 24.652344 22.554688 L 15.859375 22.554688 C 16.261719 23.320312 16.824219 23.941406 17.546875 24.414062 Z M 17.546875 24.414062 " fill-opacity="1" fill-rule="nonzero"/><g clip-path="url(#61fc118e4c)"><path fill="#004a82" d="M 17.375 15.832031 C 17.691406 15.625 18.023438 15.457031 18.371094 15.324219 C 18.722656 15.1875 19.082031 15.09375 19.453125 15.035156 C 19.824219 14.980469 20.195312 14.960938 20.570312 14.984375 C 20.941406 15.007812 21.308594 15.066406 21.671875 15.167969 C 22.03125 15.269531 22.378906 15.40625 22.710938 15.578125 C 23.042969 15.753906 23.351562 15.960938 23.640625 16.199219 C 23.925781 16.441406 24.1875 16.707031 24.417969 17.003906 C 24.648438 17.296875 24.84375 17.613281 25.007812 17.953125 L 26.917969 17.953125 C 26.679688 17.257812 26.339844 16.621094 25.898438 16.035156 C 25.460938 15.445312 24.941406 14.941406 24.34375 14.515625 C 23.75 14.089844 23.101562 13.769531 22.402344 13.542969 C 21.703125 13.320312 20.988281 13.210938 20.257812 13.210938 C 19.523438 13.210938 18.808594 13.320312 18.109375 13.542969 C 17.414062 13.769531 16.765625 14.089844 16.167969 14.515625 C 15.570312 14.941406 15.054688 15.445312 14.613281 16.035156 C 14.175781 16.621094 13.835938 17.257812 13.597656 17.953125 L 15.503906 17.953125 C 15.933594 17.070312 16.554688 16.363281 17.375 15.832031 Z M 25.003906 15.816406 L 25.136719 15.96875 L 24.972656 16.296875 L 25.324219 16.183594 L 25.453125 16.339844 L 24.914062 16.472656 L 24.703125 16.65625 L 24.578125 16.511719 L 24.789062 16.328125 Z M 24.085938 15.195312 L 24.175781 15.082031 L 24.675781 15.496094 L 24.585938 15.609375 L 24.40625 15.460938 L 24.003906 15.949219 L 23.859375 15.828125 L 24.261719 15.339844 Z M 23.613281 14.71875 L 23.773438 14.816406 L 23.367188 15.476562 L 23.207031 15.378906 Z M 22.710938 14.265625 L 22.882812 14.339844 L 22.625 14.917969 L 22.921875 15.050781 L 22.863281 15.183594 L 22.394531 14.972656 Z M 21.808594 13.976562 L 21.980469 14.023438 L 22.0625 14.847656 L 21.871094 14.796875 L 21.863281 14.644531 L 21.613281 14.582031 L 21.535156 14.710938 L 21.339844 14.660156 Z M 20.410156 14.300781 L 20.449219 13.789062 L 20.636719 13.804688 L 20.597656 14.320312 C 20.59375 14.402344 20.632812 14.449219 20.707031 14.453125 C 20.746094 14.457031 20.777344 14.449219 20.796875 14.429688 C 20.820312 14.410156 20.832031 14.375 20.835938 14.328125 L 20.875 13.820312 L 21.0625 13.835938 L 21.023438 14.34375 C 21.019531 14.394531 21.003906 14.445312 20.972656 14.488281 C 20.945312 14.53125 20.910156 14.558594 20.863281 14.578125 C 20.808594 14.597656 20.753906 14.605469 20.695312 14.597656 C 20.601562 14.589844 20.53125 14.5625 20.480469 14.507812 C 20.429688 14.453125 20.40625 14.386719 20.410156 14.300781 Z M 19.308594 14.027344 C 19.328125 13.96875 19.363281 13.921875 19.414062 13.882812 C 19.523438 13.804688 19.640625 13.792969 19.765625 13.847656 C 19.820312 13.875 19.867188 13.914062 19.898438 13.96875 C 19.933594 14.027344 19.957031 14.089844 19.960938 14.160156 L 19.964844 14.195312 C 19.972656 14.261719 19.96875 14.324219 19.949219 14.386719 C 19.933594 14.441406 19.902344 14.484375 19.863281 14.523438 L 20 14.609375 L 19.894531 14.71875 L 19.714844 14.605469 C 19.699219 14.605469 19.683594 14.609375 19.667969 14.613281 C 19.605469 14.621094 19.542969 14.609375 19.488281 14.582031 C 19.429688 14.558594 19.386719 14.519531 19.355469 14.464844 C 19.320312 14.40625 19.296875 14.34375 19.289062 14.273438 L 19.285156 14.234375 C 19.277344 14.164062 19.285156 14.09375 19.308594 14.027344 Z M 18.164062 14.125 L 18.21875 14.261719 L 18 14.347656 L 18.230469 14.933594 L 18.058594 15.003906 L 17.828125 14.414062 L 17.613281 14.5 L 17.558594 14.363281 Z M 16.703125 14.945312 C 16.707031 14.902344 16.726562 14.863281 16.753906 14.824219 C 16.785156 14.785156 16.824219 14.75 16.871094 14.722656 C 16.914062 14.695312 16.964844 14.675781 17.015625 14.671875 C 17.0625 14.664062 17.105469 14.671875 17.148438 14.6875 C 17.1875 14.710938 17.222656 14.738281 17.246094 14.777344 L 17.085938 14.875 C 17.070312 14.847656 17.050781 14.832031 17.023438 14.828125 C 16.992188 14.824219 16.964844 14.828125 16.941406 14.84375 C 16.914062 14.859375 16.898438 14.878906 16.886719 14.90625 C 16.875 14.925781 16.875 14.949219 16.890625 14.96875 C 16.898438 14.984375 16.917969 14.996094 16.945312 15 C 16.972656 15 17.011719 14.996094 17.066406 14.984375 C 17.113281 14.972656 17.160156 14.964844 17.210938 14.960938 C 17.304688 14.960938 17.375 14.996094 17.421875 15.066406 C 17.457031 15.125 17.460938 15.183594 17.4375 15.246094 C 17.414062 15.304688 17.363281 15.359375 17.289062 15.402344 C 17.238281 15.433594 17.183594 15.457031 17.125 15.464844 C 17.074219 15.472656 17.023438 15.464844 16.976562 15.445312 C 16.933594 15.421875 16.898438 15.390625 16.875 15.347656 L 17.035156 15.25 C 17.054688 15.285156 17.082031 15.304688 17.109375 15.3125 C 17.136719 15.316406 17.171875 15.308594 17.214844 15.285156 C 17.238281 15.269531 17.253906 15.253906 17.265625 15.226562 C 17.277344 15.207031 17.273438 15.1875 17.261719 15.167969 C 17.25 15.144531 17.230469 15.128906 17.203125 15.125 C 17.179688 15.125 17.140625 15.128906 17.089844 15.136719 C 17.046875 15.148438 17.007812 15.15625 16.964844 15.160156 C 16.851562 15.167969 16.773438 15.136719 16.730469 15.0625 C 16.707031 15.027344 16.699219 14.988281 16.703125 14.945312 Z M 16.21875 15.179688 L 16.3125 15.289062 L 16.046875 15.515625 L 16.152344 15.640625 L 16.375 15.449219 L 16.464844 15.554688 L 16.242188 15.746094 L 16.363281 15.886719 L 16.628906 15.660156 L 16.722656 15.769531 L 16.316406 16.117188 L 15.808594 15.527344 Z M 15.226562 16.144531 C 15.289062 16.070312 15.351562 16.023438 15.414062 16.007812 C 15.476562 15.988281 15.535156 16.003906 15.585938 16.050781 C 15.617188 16.070312 15.636719 16.101562 15.648438 16.136719 C 15.660156 16.171875 15.65625 16.207031 15.644531 16.238281 C 15.675781 16.214844 15.710938 16.203125 15.75 16.207031 C 15.789062 16.210938 15.824219 16.222656 15.851562 16.25 C 15.910156 16.300781 15.9375 16.355469 15.9375 16.417969 C 15.9375 16.476562 15.90625 16.542969 15.84375 16.617188 L 15.640625 16.859375 L 15.046875 16.359375 Z M 15.226562 16.144531 " fill-opacity="1" fill-rule="nonzero"/></g><path fill="#004a82" d="M 15.730469 16.527344 C 15.753906 16.503906 15.761719 16.476562 15.761719 16.453125 C 15.761719 16.429688 15.75 16.40625 15.730469 16.390625 C 15.679688 16.351562 15.636719 16.355469 15.59375 16.402344 L 15.507812 16.503906 L 15.652344 16.625 Z M 15.730469 16.527344 " fill-opacity="1" fill-rule="nonzero"/><path fill="#004a82" d="M 15.484375 16.207031 C 15.460938 16.183594 15.433594 16.175781 15.410156 16.183594 C 15.386719 16.1875 15.363281 16.207031 15.335938 16.238281 L 15.277344 16.308594 L 15.414062 16.425781 L 15.476562 16.347656 C 15.503906 16.316406 15.515625 16.289062 15.515625 16.269531 C 15.515625 16.242188 15.503906 16.222656 15.484375 16.207031 Z M 15.484375 16.207031 " fill-opacity="1" fill-rule="nonzero"/><path fill="#004a82" d="M 22.964844 16.09375 C 22.675781 15.90625 22.371094 15.75 22.046875 15.625 C 21.726562 15.5 21.394531 15.410156 21.050781 15.355469 C 20.710938 15.300781 20.367188 15.28125 20.023438 15.296875 C 19.675781 15.3125 19.335938 15.363281 19.003906 15.453125 C 18.667969 15.539062 18.347656 15.660156 18.035156 15.816406 C 17.726562 15.96875 17.4375 16.15625 17.167969 16.371094 C 16.898438 16.585938 16.652344 16.828125 16.429688 17.09375 C 16.210938 17.359375 16.019531 17.644531 15.859375 17.953125 L 24.652344 17.953125 C 24.253906 17.1875 23.691406 16.566406 22.964844 16.09375 Z M 22.964844 16.09375 " fill-opacity="1" fill-rule="nonzero"/><path fill="#004a82" d="M 18.675781 26.429688 L 18.820312 26.1875 L 18.660156 26.148438 Z M 18.675781 26.429688 " fill-opacity="1" fill-rule="nonzero"/><g clip-path="url(#06cb92aa61)"><path fill="#004a82" d="M 19.480469 14.246094 C 19.484375 14.320312 19.503906 14.378906 19.535156 14.417969 C 19.5625 14.457031 19.601562 14.472656 19.652344 14.464844 C 19.699219 14.464844 19.734375 14.4375 19.753906 14.394531 C 19.777344 14.351562 19.785156 14.292969 19.777344 14.21875 L 19.773438 14.183594 C 19.765625 14.105469 19.746094 14.050781 19.714844 14.011719 C 19.6875 13.976562 19.648438 13.957031 19.601562 13.964844 C 19.550781 13.96875 19.515625 13.992188 19.496094 14.035156 C 19.472656 14.074219 19.46875 14.132812 19.476562 14.210938 Z M 19.480469 14.246094 " fill-opacity="1" fill-rule="nonzero"/></g><path fill="#004a82" d="M 21.839844 14.210938 L 21.691406 14.453125 L 21.855469 14.492188 Z M 21.839844 14.210938 " fill-opacity="1" fill-rule="nonzero"/></svg>