<svg width="100" height="100" xmlns="http://www.w3.org/2000/svg" version="1.0" preserveAspectRatio="xMidYMid meet" zoomAndPan="magnify">
 <g id="Layer_1">
  <title>Layer 1</title>
  <path stroke="null" id="svg_2" fill-rule="nonzero" d="m50.10847,37.44382c-6.91117,0 -12.54032,5.62915 -12.54032,12.54032c0,6.91117 5.62915,12.54032 12.54032,12.54032c6.91117,0 12.54032,-5.62915 12.54032,-12.54032c0,-6.91117 -5.62915,-12.54032 -12.54032,-12.54032zm0,0" fill="#004a82"/>
  <path stroke="null" id="svg_3" fill-rule="nonzero" d="m65.54668,22.01857l-30.87642,0c-6.99039,0 -12.73922,5.69487 -12.73922,12.73922l0,30.87642c0,6.99039 5.69487,12.73922 12.73922,12.73922l30.87642,0c6.99039,0 12.73922,-5.69487 12.73922,-12.73922l0,-30.87642c-0.04049,-7.04435 -5.74884,-12.73922 -12.73922,-12.73922zm-15.43821,45.45096c-9.5544,0 -17.31401,-7.75958 -17.31401,-17.31401c0,-9.5544 7.75961,-17.32749 17.31401,-17.32749c9.55444,0 17.31401,7.77309 17.31401,17.32749c-0.04049,9.55444 -7.80007,17.31401 -17.31401,17.31401zm18.52855,-31.72659c-2.28062,0 -4.16993,-1.8758 -4.16993,-4.16993c0,-2.28066 1.88931,-4.16997 4.16993,-4.16997c2.29413,0 4.16993,1.88931 4.16993,4.16997c0,2.33462 -1.83531,4.16993 -4.16993,4.16993zm0,0" fill="#004a82"/>
  <g stroke="null" id="svg_4" clip-path="url(#1ce9e5bd50)">
   <path stroke="null" id="svg_4" fill-rule="nonzero" d="m49.89661,-0.07942c-27.65231,0 -50.06356,22.41125 -50.06356,50.06356c0,27.65231 22.41125,50.06356 50.06356,50.06356c27.65231,0 50.06356,-22.41125 50.06356,-50.06356c-0.03912,-27.65231 -22.45037,-50.06356 -50.06356,-50.06356zm32.81509,64.97833c0,9.88235 -8.07015,17.93944 -17.95246,17.93944l-29.7774,0c-9.88235,0 -17.93944,-8.0571 -17.93944,-17.93944l0,-29.82954c0,-9.88235 8.0571,-17.93944 17.93944,-17.93944l29.82954,0c9.88235,0 17.93944,8.0571 17.93944,17.93944l0,29.82954l-0.03912,0zm0,0" fill="#004a82"/>
  </g>
 </g>
</svg>