<svg xmlns="http://www.w3.org/2000/svg" xmlns:xlink="http://www.w3.org/1999/xlink" width="55" zoomAndPan="magnify" viewBox="0 0 41.25 41.250001" height="55" preserveAspectRatio="xMidYMid meet" version="1.0"><defs><clipPath id="7941290f2c"><path d="M 0 0 L 40.511719 0 L 40.511719 40.511719 L 0 40.511719 Z M 0 0 " clip-rule="nonzero"/></clipPath><clipPath id="129baba9c4"><path d="M 13.367188 13.273438 L 27.363281 13.273438 L 27.363281 27.269531 L 13.367188 27.269531 Z M 13.367188 13.273438 " clip-rule="nonzero"/></clipPath></defs><g clip-path="url(#7941290f2c)"><path fill="#ffffff" d="M 0 0 L 40.511719 0 L 40.511719 40.511719 L 0 40.511719 Z M 0 0 " fill-opacity="1" fill-rule="nonzero"/><path fill="#ffffff" d="M 0 0 L 40.511719 0 L 40.511719 40.511719 L 0 40.511719 Z M 0 0 " fill-opacity="1" fill-rule="nonzero"/></g><g clip-path="url(#129baba9c4)"><path fill="#004a82" d="M 20.226562 13.277344 C 18.59375 13.289062 17.277344 14.617188 17.277344 16.25 C 17.277344 17.890625 18.609375 19.222656 20.25 19.222656 C 21.894531 19.222656 23.226562 17.890625 23.226562 16.25 C 23.226562 14.605469 21.894531 13.273438 20.25 13.277344 C 20.242188 13.277344 20.234375 13.277344 20.226562 13.277344 Z M 21.710938 14.992188 C 21.886719 14.996094 21.96875 15.210938 21.84375 15.332031 C 21.796875 15.375 21.609375 15.480469 21.421875 15.640625 C 21.125 15.894531 20.679688 16.328125 20.359375 16.761719 C 20.160156 17.03125 20.039062 17.296875 19.945312 17.566406 C 19.894531 17.703125 19.765625 17.796875 19.617188 17.796875 C 19.488281 17.796875 19.367188 17.722656 19.308594 17.605469 C 19.226562 17.453125 19.128906 17.292969 19.015625 17.144531 C 18.8125 16.867188 18.671875 16.695312 18.4375 16.5 C 18.347656 16.421875 18.347656 16.285156 18.433594 16.207031 C 18.460938 16.175781 18.515625 16.125 18.601562 16.101562 C 18.6875 16.078125 18.789062 16.089844 18.894531 16.132812 C 19.046875 16.195312 19.289062 16.285156 19.492188 16.414062 C 19.625 16.1875 19.742188 16.027344 19.894531 15.863281 C 20.039062 15.695312 20.1875 15.597656 20.347656 15.488281 C 20.6875 15.25 21.003906 15.101562 21.679688 14.996094 C 21.691406 14.996094 21.699219 14.992188 21.710938 14.992188 Z M 15.625 17.785156 C 14.375 17.785156 13.367188 18.792969 13.367188 20.046875 L 13.367188 24.972656 C 13.367188 26.222656 14.375 27.230469 15.625 27.230469 L 24.878906 27.230469 C 26.128906 27.230469 27.136719 26.222656 27.136719 24.972656 L 27.136719 20.046875 C 27.136719 18.792969 26.128906 17.785156 24.878906 17.785156 L 23.863281 17.785156 C 23.710938 18.148438 23.5 18.488281 23.246094 18.789062 L 24.878906 18.789062 C 25.589844 18.789062 26.132812 19.332031 26.132812 20.046875 L 26.132812 24.972656 C 26.132812 25.6875 25.589844 26.226562 24.878906 26.226562 L 15.625 26.226562 C 14.914062 26.226562 14.371094 25.683594 14.371094 24.972656 L 14.371094 20.046875 C 14.371094 19.335938 14.914062 18.789062 15.625 18.789062 L 17.257812 18.789062 C 17.003906 18.488281 16.792969 18.148438 16.640625 17.785156 Z M 17.554688 19.636719 C 16.847656 19.636719 16.273438 20.210938 16.273438 20.921875 C 16.273438 21.628906 16.847656 22.203125 17.554688 22.203125 C 18.261719 22.203125 18.835938 21.628906 18.835938 20.921875 C 18.839844 20.214844 18.265625 19.636719 17.554688 19.636719 Z M 20.945312 20.121094 C 20.664062 20.121094 20.4375 20.347656 20.4375 20.632812 C 20.4375 20.914062 20.664062 21.140625 20.945312 21.140625 L 24.6875 21.140625 C 24.972656 21.140625 25.199219 20.914062 25.199219 20.632812 C 25.199219 20.347656 24.96875 20.121094 24.6875 20.121094 Z M 20.945312 22 C 20.664062 22 20.4375 22.226562 20.4375 22.507812 C 20.4375 22.792969 20.664062 23.019531 20.945312 23.019531 L 24.6875 23.019531 C 24.972656 23.019531 25.199219 22.789062 25.199219 22.507812 C 25.199219 22.226562 24.96875 22 24.6875 22 Z M 16.457031 22.414062 C 15.984375 22.753906 15.675781 23.308594 15.675781 23.9375 L 15.675781 24.785156 C 15.675781 25.113281 15.941406 25.378906 16.273438 25.378906 L 18.835938 25.378906 C 19.167969 25.378906 19.433594 25.113281 19.433594 24.785156 L 19.433594 23.9375 C 19.433594 23.308594 19.125 22.753906 18.65625 22.414062 C 18.347656 22.664062 17.953125 22.808594 17.554688 22.808594 C 17.15625 22.808594 16.761719 22.664062 16.457031 22.414062 Z M 20.945312 23.878906 C 20.664062 23.878906 20.4375 24.105469 20.4375 24.386719 C 20.4375 24.667969 20.664062 24.894531 20.945312 24.894531 L 24.6875 24.894531 C 24.972656 24.894531 25.199219 24.667969 25.199219 24.386719 C 25.199219 24.105469 24.96875 23.878906 24.6875 23.878906 Z M 20.945312 23.878906 " fill-opacity="1" fill-rule="nonzero"/></g></svg>