<svg xmlns="http://www.w3.org/2000/svg" xmlns:xlink="http://www.w3.org/1999/xlink" width="100" zoomAndPan="magnify" viewBox="0 0 75 74.999997" height="100" preserveAspectRatio="xMidYMid meet" version="1.0"><defs><clipPath id="165385c64b"><path d="M 2.851562 1.207031 L 71.851562 1.207031 L 71.851562 71.707031 L 2.851562 71.707031 Z M 2.851562 1.207031 " clip-rule="nonzero"/></clipPath></defs><g clip-path="url(#165385c64b)"><path fill="#004a82" d="M 37.363281 1.207031 C 29.148438 1.28125 22.53125 7.960938 22.527344 16.171875 C 22.527344 24.441406 29.226562 31.144531 37.492188 31.144531 C 45.761719 31.148438 52.464844 24.449219 52.464844 16.179688 C 52.464844 16.179688 52.464844 16.175781 52.464844 16.171875 C 52.464844 7.90625 45.761719 1.207031 37.496094 1.207031 C 37.449219 1.207031 37.40625 1.207031 37.363281 1.207031 Z M 44.839844 9.855469 L 44.839844 9.859375 C 45.726562 9.867188 46.152344 10.953125 45.503906 11.5625 C 45.273438 11.78125 44.339844 12.308594 43.390625 13.121094 C 41.894531 14.394531 39.664062 16.566406 38.035156 18.753906 C 37.027344 20.117188 36.417969 21.449219 35.949219 22.8125 C 35.699219 23.503906 35.042969 23.960938 34.308594 23.960938 C 33.648438 23.960938 33.046875 23.59375 32.746094 23.007812 C 32.339844 22.242188 31.839844 21.429688 31.285156 20.679688 C 30.261719 19.289062 29.542969 18.417969 28.371094 17.4375 C 27.917969 17.058594 27.90625 16.367188 28.339844 15.960938 C 28.492188 15.816406 28.753906 15.558594 29.1875 15.4375 C 29.628906 15.316406 30.136719 15.382812 30.664062 15.597656 C 31.429688 15.90625 32.644531 16.367188 33.679688 17.003906 C 34.34375 15.867188 34.933594 15.050781 35.691406 14.238281 C 36.425781 13.390625 37.179688 12.894531 37.984375 12.339844 C 39.695312 11.152344 41.28125 10.398438 44.683594 9.871094 C 44.734375 9.859375 44.785156 9.855469 44.839844 9.855469 Z M 14.207031 23.917969 C 7.90625 23.917969 2.835938 28.988281 2.835938 35.285156 L 2.835938 60.089844 C 2.835938 66.390625 7.90625 71.460938 14.207031 71.460938 L 60.789062 71.460938 C 67.085938 71.460938 72.15625 66.390625 72.15625 60.089844 L 72.15625 35.285156 C 72.15625 28.988281 67.085938 23.917969 60.789062 23.917969 L 55.679688 23.917969 C 54.902344 25.746094 53.851562 27.453125 52.570312 28.972656 L 60.792969 28.972656 C 64.371094 28.972656 67.09375 31.703125 67.09375 35.285156 L 67.09375 60.097656 C 67.09375 63.679688 64.375 66.402344 60.792969 66.402344 L 14.210938 66.402344 C 10.628906 66.402344 7.894531 63.675781 7.894531 60.097656 L 7.894531 35.285156 C 7.894531 31.707031 10.632812 28.972656 14.210938 28.972656 L 22.421875 28.972656 C 21.144531 27.453125 20.09375 25.746094 19.316406 23.917969 Z M 23.921875 33.238281 C 20.359375 33.238281 17.46875 36.128906 17.46875 39.695312 C 17.46875 43.261719 20.359375 46.152344 23.921875 46.152344 C 27.488281 46.152344 30.378906 43.261719 30.382812 39.699219 C 30.382812 39.695312 30.382812 39.695312 30.382812 39.695312 C 30.382812 36.132812 27.492188 33.238281 23.925781 33.238281 C 23.925781 33.238281 23.925781 33.238281 23.921875 33.238281 Z M 41 35.671875 C 39.578125 35.671875 38.4375 36.816406 38.4375 38.234375 C 38.4375 39.652344 39.582031 40.796875 41 40.796875 L 59.832031 40.796875 C 61.253906 40.796875 62.394531 39.65625 62.394531 38.234375 C 62.394531 36.816406 61.25 35.671875 59.832031 35.671875 Z M 41 45.128906 C 39.578125 45.128906 38.4375 46.269531 38.4375 47.6875 C 38.4375 49.109375 39.582031 50.25 41 50.25 L 59.832031 50.25 C 61.253906 50.25 62.394531 49.105469 62.394531 47.6875 C 62.394531 46.273438 61.25 45.128906 59.832031 45.128906 Z M 18.394531 47.210938 C 16.019531 48.925781 14.472656 51.710938 14.472656 54.878906 L 14.472656 59.140625 C 14.472656 60.800781 15.808594 62.140625 17.46875 62.140625 L 30.382812 62.140625 C 32.042969 62.140625 33.378906 60.800781 33.378906 59.140625 L 33.378906 54.878906 C 33.378906 51.710938 31.832031 48.929688 29.457031 47.214844 C 27.910156 48.476562 25.921875 49.199219 23.921875 49.199219 C 21.925781 49.199219 19.9375 48.476562 18.394531 47.210938 Z M 41 54.582031 C 39.578125 54.582031 38.4375 55.726562 38.4375 57.144531 C 38.4375 58.5625 39.582031 59.703125 41 59.703125 L 59.832031 59.703125 C 61.253906 59.703125 62.394531 58.5625 62.394531 57.144531 C 62.394531 55.722656 61.25 54.582031 59.832031 54.582031 Z M 41 54.582031 " fill-opacity="1" fill-rule="nonzero"/></g></svg>