<svg width="70" height="100" xmlns="http://www.w3.org/2000/svg" version="1.0" preserveAspectRatio="xMidYMid meet" zoomAndPan="magnify">
 <g id="Layer_1">
  <title>Layer 1</title>
  <g stroke="null" id="svg_2" clip-path="url(#e53d91a38a)">
   <path stroke="null" id="svg_1" fill-rule="evenodd" d="m34.91544,0.58015c19.10733,0 34.59016,15.49594 34.59016,34.59012c0,6.65801 -1.87792,12.8564 -5.12155,18.13552c-3.90027,6.4479 -7.8005,12.90891 -11.70077,19.36995c-4.75384,7.7217 -8.58845,13.95948 -13.34228,21.68122c-4.17604,6.80244 -4.46492,6.97319 -8.66721,0.13131c-4.72758,-7.68233 -8.6935,-14.13023 -13.42109,-21.81253c-3.88712,-6.38224 -7.77424,-12.7776 -11.67451,-19.15984c-3.32243,-5.31852 -5.25287,-11.60885 -5.25287,-18.34564c0,-19.09418 15.48283,-34.59012 34.59012,-34.59012zm0,17.34757c8.56219,0 15.50912,6.94693 15.50912,15.50909c0,8.56219 -6.94693,15.50909 -15.50912,15.50909c-8.56216,0 -15.50909,-6.9469 -15.50909,-15.50909c0,-8.56216 6.94693,-15.50909 15.50909,-15.50909zm0,0" fill="#004a82"/>
  </g>
 </g>
</svg>