<svg width="100" height="100" xmlns="http://www.w3.org/2000/svg" version="1.0" preserveAspectRatio="xMidYMid meet" zoomAndPan="magnify">
 <g id="Layer_1">
  <title>Layer 1</title>
  <g stroke="null" id="svg_2" clip-path="url(#8860442aa8)">
   <path stroke="null" id="svg_1" fill-rule="nonzero" d="m50,0.625c-27.4289,0 -49.65909,22.10302 -49.65909,49.375c0,27.27199 22.23019,49.375 49.65909,49.375c27.4289,0 49.65909,-22.10302 49.65909,-49.375c0,-27.27199 -22.23019,-49.375 -49.65909,-49.375zm-29.21352,29.39356c0.01294,-0.02571 0.05174,-0.05145 0.0776,-0.06429c0.01294,-0.02574 0.0388,-0.02574 0.05171,-0.03858c0.0388,-0.02571 0.06469,-0.03858 0.10346,-0.06429c0.02589,-0.01287 0.0388,-0.01287 0.0776,-0.03858c0.0388,-0.01287 0.06466,-0.03858 0.10346,-0.03858c0.01294,-0.01287 0.0388,-0.01287 0.0776,-0.03858c0.0388,-0.01287 0.06466,-0.01287 0.10346,-0.03858c0.01294,0 0.05171,-0.02571 0.0776,-0.02571c0.0388,-0.01287 0.05171,-0.01287 0.09051,-0.03858c0.02586,0 0.06466,-0.01287 0.09051,-0.01287c0.0388,-0.02571 0.0776,-0.02571 0.1164,-0.02571c0.01294,0 0.0388,-0.01284 0.0776,-0.01284c0.0388,0 0.0776,-0.02574 0.11637,-0.02574c0.02589,0 0.0388,0 0.06469,0c0.05171,0 0.11637,0 0.19397,0l56.47427,0c0.06466,0 0.1164,0 0.194,0c0.02586,0 0.0388,0 0.06466,0c0.0388,0 0.0776,0.02574 0.11637,0.02574c0.02589,0 0.0388,0.01284 0.0776,0.01284c0.0388,0 0.0776,0.02571 0.12931,0.02571c0.01294,0 0.05174,0.01287 0.0776,0.01287c0.0388,0.02571 0.0776,0.02571 0.09055,0.03858c0.02586,0 0.06466,0.02571 0.07757,0.02571c0.05174,0.02571 0.06466,0.02571 0.10346,0.03858c0.02589,0.02571 0.0388,0.02571 0.0776,0.03858c0.0388,0.02571 0.06466,0.03858 0.10346,0.03858c0.02586,0.02571 0.0388,0.02571 0.0776,0.03858c0.0388,0.02571 0.06466,0.03858 0.10346,0.06429c0.01291,0.01284 0.0388,0.01284 0.05171,0.03858c0.05174,0.01284 0.06466,0.03858 0.09055,0.06429c0.01291,0.01284 0.0388,0.01284 0.0388,0.03858l-28.1143,27.90201c-0.43968,0.43717 -1.00871,0.6686 -1.60359,0.6686c-0.62074,0 -1.18973,-0.23144 -1.6165,-0.6686l-28.08841,-27.90201c0.02586,-0.02574 0.02586,-0.02574 0.05171,-0.03858zm-0.90525,5.61897l14.4839,14.40104l-14.4839,14.40104l0,-28.80208zm58.7762,34.85822l-56.44841,0c-0.53023,0 -1.04751,-0.19286 -1.44839,-0.51432l16.8246,-16.72835l7.96615,7.92057c1.29322,1.28582 3.01318,2.00588 4.84951,2.00588c1.82345,0 3.55632,-0.72005 4.84954,-2.00588l8.00495,-7.95915l16.83751,16.75409c-0.36208,0.3343 -0.87936,0.52716 -1.43545,0.52716zm2.28899,-6.1333l-14.41925,-14.36246l14.4451,-14.36246l0,28.72493l-0.02586,0zm0,0" fill="#004a82"/>
  </g>
 </g>
</svg>