<svg width="100" height="100" xmlns="http://www.w3.org/2000/svg" version="1.0" preserveAspectRatio="xMidYMid meet" zoomAndPan="magnify">
 <g id="Layer_1">
  <title>Layer 1</title>
  <g stroke="null" id="svg_2" clip-path="url(#5243d83cfd)">
   <path stroke="null" id="svg_1" fill-rule="nonzero" d="m49.46429,0.35714c-3.24608,0 -6.46643,0.32205 -9.64811,0.95321c-3.18167,0.6312 -6.28609,1.57155 -9.28745,2.80815c-2.98847,1.24947 -5.8481,2.76947 -8.54031,4.57284c-2.70507,1.8034 -5.20407,3.85152 -7.49694,6.15728c-2.30576,2.29287 -4.35388,4.79187 -6.15728,7.49694c-1.80337,2.69221 -3.32337,5.55184 -4.57284,8.54031c-1.23661,3.00136 -2.17696,6.10577 -2.80815,9.28745c-0.63116,3.18167 -0.95321,6.40203 -0.95321,9.64811c0,3.24611 0.32205,6.46643 0.95321,9.64811c0.6312,3.18171 1.57155,6.28609 2.80815,9.28745c1.24947,2.98847 2.76947,5.84813 4.57284,8.54031c1.8034,2.70507 3.85152,5.20407 6.15728,7.49694c2.29287,2.30576 4.79187,4.35388 7.49694,6.15728c2.69221,1.80337 5.55184,3.32337 8.54031,4.57287c3.00136,1.23661 6.10577,2.17692 9.28745,2.80812c3.18167,0.63116 6.40203,0.95321 9.64811,0.95321c3.24611,0 6.46643,-0.32205 9.64811,-0.95321c3.18171,-0.6312 6.28609,-1.57151 9.28745,-2.80812c2.98847,-1.2495 5.84813,-2.76951 8.54031,-4.57287c2.70507,-1.8034 5.20407,-3.85152 7.49694,-6.15728c2.30576,-2.29287 4.35388,-4.79187 6.15728,-7.49694c1.80337,-2.69218 3.32337,-5.55184 4.57287,-8.54031c1.23661,-3.00136 2.17692,-6.10574 2.80812,-9.28745c0.63116,-3.18167 0.95321,-6.402 0.95321,-9.64811c0,-3.24608 -0.32205,-6.46643 -0.95321,-9.64811c-0.6312,-3.18167 -1.57151,-6.27319 -2.80812,-9.27455c-1.2495,-3.00136 -2.76951,-5.86099 -4.57287,-8.5532c-1.8034,-2.70507 -3.86441,-5.20407 -6.15728,-7.49694c-2.29287,-2.29287 -4.79187,-4.35388 -7.49694,-6.15728c-2.69218,-1.80337 -5.55184,-3.32337 -8.5532,-4.57284c-3.00133,-1.23661 -6.09285,-2.17696 -9.27455,-2.80815c-3.18167,-0.63116 -6.402,-0.95321 -9.64811,-0.95321zm30.01348,70.87306c-0.63116,1.05626 -1.36541,2.04812 -2.18982,2.97557c-0.8244,0.92746 -1.72611,1.76475 -2.71796,2.51186c-0.97896,0.74711 -2.03526,1.40406 -3.14303,1.95796c-1.1078,0.5539 -2.25425,0.99186 -3.45221,1.32676c-1.18507,0.33494 -2.39592,0.5539 -3.63253,0.65695c-1.23661,0.10305 -2.47321,0.09019 -3.69693,-0.03865c-1.23661,-0.12881 -2.44746,-0.37355 -3.63256,-0.72135c-1.18507,-0.36066 -2.31862,-0.8244 -3.42642,-1.40406c-7.00744,-3.65828 -13.31928,-8.29556 -18.90977,-13.88604c-5.60338,-5.61627 -10.24066,-11.94101 -13.89897,-18.9742c-0.57966,-1.09491 -1.04337,-2.24136 -1.39117,-3.42642c-0.36069,-1.1851 -0.59255,-2.38306 -0.72135,-3.61966c-0.12884,-1.22371 -0.1417,-2.46032 -0.03865,-3.68407c0.11591,-1.23661 0.33491,-2.44743 0.66981,-3.63253c0.33494,-1.19796 0.78576,-2.34441 1.33966,-3.43932c0.5539,-1.1078 1.19796,-2.15117 1.9451,-3.13017c0.76,-0.99186 1.59727,-1.89356 2.51186,-2.71796c0.92746,-0.81151 1.91931,-1.54576 2.97557,-2.17692c0.70846,-0.4251 1.48136,-0.70849 2.29287,-0.8244c0.8244,-0.12881 1.63595,-0.09019 2.43457,0.11591c0.81154,0.19324 1.54576,0.54104 2.2156,1.03051c0.65695,0.4895 1.21085,1.09494 1.63592,1.8034l4.01897,6.72404c0.4895,0.8244 0.7729,1.72611 0.85016,2.67932c0.0773,0.95321 -0.05151,1.88067 -0.39931,2.78237c-0.3478,0.9017 -0.87591,1.67456 -1.57151,2.33152c-0.70849,0.65695 -1.52,1.1207 -2.43457,1.40406c-0.6312,0.18035 -1.1851,0.50239 -1.6617,0.94035c-0.4895,0.43796 -0.85016,0.9661 -1.09491,1.57151c-0.24475,0.60544 -0.33491,1.23661 -0.2834,1.89356c0.05154,0.65695 0.23186,1.26236 0.56679,1.82916c2.53762,4.21218 5.53894,8.0637 9.01691,11.54167c3.47797,3.49083 7.34235,6.50508 11.58031,9.0298c1.14645,0.6956 2.35727,0.81151 3.60677,0.33491c1.41695,-0.52811 2.30576,-1.51997 2.65356,-2.98847c0.29626,-0.90167 0.78576,-1.68746 1.44271,-2.35727c0.65695,-0.68271 1.42981,-1.1851 2.31862,-1.52c0.87595,-0.32201 1.79051,-0.45085 2.73086,-0.36066c0.95321,0.09016 1.82916,0.36066 2.64067,0.85016l6.72404,4.01897c0.70849,0.4251 1.30101,0.97896 1.8034,1.64881c0.48947,0.66981 0.8244,1.40406 1.03051,2.20271c0.19321,0.81151 0.24475,1.62306 0.11591,2.44746c-0.11591,0.81151 -0.39931,1.58437 -0.8244,2.29287zm0,0" fill="#004a82"/>
  </g>
 </g>
</svg>