<svg xmlns="http://www.w3.org/2000/svg" xmlns:xlink="http://www.w3.org/1999/xlink" width="100" zoomAndPan="magnify" viewBox="0 0 75 74.999997" height="100" preserveAspectRatio="xMidYMid meet" version="1.0"><defs><clipPath id="5b756f5033"><path d="M 11.183594 1.640625 L 63.683594 1.640625 L 63.683594 73.355469 L 11.183594 73.355469 Z M 11.183594 1.640625 " clip-rule="nonzero"/></clipPath></defs><g clip-path="url(#5b756f5033)"><path fill="#004a82" d="M 22.710938 46.945312 L 23.289062 47.542969 L 23.75 48.234375 L 24.117188 49.007812 L 24.253906 49.359375 L 24.488281 49.816406 L 24.769531 50.382812 L 24.78125 50.402344 C 24.789062 50.414062 24.792969 50.425781 24.800781 50.4375 L 25.117188 50.839844 L 25.503906 51.339844 C 27.402344 53.355469 30.519531 53.828125 32.964844 52.3125 L 33.933594 51.714844 C 34.652344 51.269531 35.441406 50.992188 36.246094 50.878906 L 36.546875 50.855469 L 36.113281 52.382812 L 30.414062 72.390625 C 30.3125 72.75 30.078125 73.1875 29.722656 73.34375 C 29.5 73.390625 29.261719 73.285156 29.046875 73.082031 L 24.089844 68.363281 L 17.5 69.722656 C 17.238281 69.75 16.847656 69.820312 16.550781 69.550781 C 16.355469 69.195312 16.488281 68.8125 16.589844 68.449219 L 22.121094 49.019531 Z M 52.035156 46.085938 L 52.871094 49.019531 L 58.402344 68.449219 C 58.503906 68.8125 58.636719 69.195312 58.441406 69.550781 C 58.148438 69.820312 57.757812 69.75 57.496094 69.722656 L 50.90625 68.363281 L 45.945312 73.082031 C 45.734375 73.285156 45.492188 73.390625 45.273438 73.34375 C 44.914062 73.1875 44.679688 72.75 44.578125 72.390625 L 38.878906 52.382812 L 38.488281 51 L 38.667969 51.035156 C 39.191406 51.183594 39.703125 51.402344 40.183594 51.695312 L 41.097656 52.257812 C 41.351562 52.414062 41.617188 52.550781 41.894531 52.667969 L 42.160156 52.75 L 43.046875 53.023438 C 45.761719 53.570312 48.574219 52.15625 49.695312 49.503906 L 50.117188 48.519531 C 50.445312 47.742188 50.929688 47.058594 51.523438 46.503906 Z M 27.386719 23.960938 L 31.070312 23.960938 C 31.390625 23.960938 31.648438 24.21875 31.648438 24.539062 L 31.648438 35.230469 C 31.648438 35.546875 31.390625 35.808594 31.070312 35.808594 L 27.386719 35.808594 C 27.066406 35.808594 26.808594 35.546875 26.808594 35.230469 L 26.808594 24.539062 C 26.808594 24.21875 27.066406 23.960938 27.386719 23.960938 Z M 38.292969 15.546875 C 39.097656 15.460938 39.679688 16.535156 39.769531 17.402344 C 39.785156 17.578125 39.800781 17.757812 39.8125 17.9375 L 39.804688 18.25 C 39.835938 18.664062 39.746094 19.6875 39.730469 20.445312 C 39.71875 21.203125 39.613281 22.21875 39.71875 22.800781 L 39.753906 23.015625 L 45.605469 23.015625 C 45.605469 23.019531 45.605469 23.019531 45.605469 23.023438 L 45.679688 23.015625 C 47.0625 23.015625 48.183594 23.824219 48.183594 24.824219 C 48.183594 25.449219 47.746094 26 47.078125 26.324219 L 46.722656 26.464844 L 46.796875 26.484375 C 47.597656 26.734375 48.15625 27.324219 48.15625 28.015625 C 48.15625 28.703125 47.597656 29.292969 46.796875 29.542969 L 46.558594 29.597656 L 46.683594 29.644531 C 47.277344 29.929688 47.664062 30.402344 47.664062 30.945312 C 47.664062 31.59375 47.105469 32.148438 46.304688 32.386719 L 46.035156 32.445312 L 46.128906 32.484375 C 46.71875 32.765625 47.109375 33.242188 47.109375 33.78125 C 47.109375 34.644531 46.113281 35.347656 44.882812 35.347656 L 44.625 35.328125 C 44.625 35.335938 44.625 35.339844 44.625 35.347656 L 35.324219 35.347656 C 33.929688 35.347656 32.800781 34.214844 32.800781 32.820312 L 32.800781 25.542969 C 32.800781 25.367188 32.808594 25.300781 32.84375 25.132812 L 32.90625 24.855469 L 32.9375 24.683594 C 33.226562 23.390625 34.085938 22.152344 34.589844 21.382812 L 35.507812 19.554688 C 35.832031 18.769531 36.039062 18.277344 36.101562 18.019531 C 36.097656 17.988281 36.71875 16.625 36.71875 16.59375 C 37.097656 15.929688 37.660156 15.613281 38.292969 15.546875 Z M 37.496094 9.34375 C 28.175781 9.34375 20.621094 16.902344 20.621094 26.222656 C 20.621094 35.546875 28.175781 43.105469 37.496094 43.105469 C 46.816406 43.105469 54.371094 35.546875 54.371094 26.222656 C 54.371094 16.902344 46.816406 9.34375 37.496094 9.34375 Z M 44.136719 1.652344 C 45.734375 1.546875 47.296875 2.15625 48.402344 3.296875 L 48.449219 3.359375 L 48.460938 3.367188 L 48.582031 3.527344 L 49.0625 4.132812 L 49.089844 4.1875 L 49.128906 4.242188 C 49.304688 4.523438 49.457031 4.824219 49.574219 5.136719 L 49.699219 5.457031 C 49.796875 5.707031 49.910156 5.949219 50.042969 6.175781 L 50.46875 6.816406 L 51.574219 7.878906 C 52.414062 8.480469 53.421875 8.84375 54.496094 8.894531 L 55.328125 8.929688 L 55.546875 8.96875 C 55.765625 9 55.816406 9.0625 56.03125 9.09375 C 58.480469 9.710938 60.238281 11.980469 60.121094 14.601562 L 60.015625 15.226562 L 59.964844 15.402344 L 59.9375 15.707031 L 59.90625 15.878906 C 59.441406 17.472656 59.738281 19.160156 60.648438 20.480469 L 61.140625 21.09375 L 61.742188 21.644531 L 61.839844 21.746094 L 62.546875 22.429688 L 62.605469 22.511719 L 62.652344 22.5625 L 62.828125 22.835938 L 63.152344 23.308594 L 63.207031 23.4375 L 63.242188 23.488281 L 63.324219 23.710938 L 63.566406 24.273438 C 63.578125 24.328125 63.589844 24.382812 63.601562 24.441406 L 63.621094 24.488281 L 63.648438 24.644531 L 63.789062 25.289062 L 63.792969 25.5 C 63.792969 25.507812 63.792969 25.515625 63.796875 25.519531 L 63.792969 25.585938 L 63.8125 26.332031 C 63.734375 27.375 63.355469 28.40625 62.660156 29.289062 C 62.394531 29.628906 62.085938 29.9375 61.746094 30.203125 L 61.40625 30.46875 C 59.710938 31.792969 58.960938 33.996094 59.492188 36.078125 L 59.578125 36.414062 C 60.320312 39.316406 58.574219 42.273438 55.667969 43.019531 C 55.34375 43.101562 55.007812 43.15625 54.671875 43.179688 L 53.640625 43.246094 C 51.59375 43.375 49.796875 44.648438 48.992188 46.535156 L 48.613281 47.4375 C 47.589844 49.851562 45.027344 51.140625 42.550781 50.640625 L 41.746094 50.390625 L 41.503906 50.316406 C 41.25 50.210938 41.007812 50.085938 40.777344 49.941406 L 39.945312 49.433594 C 38.195312 48.359375 35.992188 48.367188 34.25 49.449219 L 33.367188 49.996094 C 31.140625 51.375 28.300781 50.945312 26.570312 49.109375 L 26.21875 48.648438 L 25.929688 48.285156 C 25.921875 48.273438 25.917969 48.261719 25.914062 48.25 L 25.898438 48.234375 L 25.644531 47.71875 L 25.433594 47.304688 L 25.308594 46.984375 L 24.972656 46.277344 L 24.550781 45.648438 C 23.59375 44.414062 22.128906 43.632812 20.515625 43.558594 L 20.082031 43.542969 C 18.960938 43.492188 17.933594 43.101562 17.09375 42.476562 L 16.910156 42.308594 L 16.882812 42.289062 L 16.800781 42.210938 L 16.324219 41.777344 L 16.199219 41.617188 L 16.136719 41.550781 L 15.980469 41.320312 L 15.699219 40.945312 L 15.632812 40.808594 L 15.550781 40.691406 L 15.371094 40.273438 L 15.242188 40.003906 L 15.21875 39.914062 L 15.140625 39.730469 L 14.992188 39.050781 C 14.984375 39.023438 14.976562 38.996094 14.972656 38.96875 L 14.96875 38.949219 L 14.917969 38.707031 C 14.835938 38.007812 14.890625 37.277344 15.101562 36.558594 C 15.410156 35.496094 15.382812 34.390625 15.0625 33.382812 C 15.054688 33.371094 15.050781 33.355469 15.046875 33.34375 L 14.832031 32.914062 L 14.84375 32.847656 C 14.816406 32.78125 14.789062 32.710938 14.765625 32.644531 C 14.414062 31.929688 13.902344 31.289062 13.25 30.773438 C 12.910156 30.503906 12.601562 30.199219 12.335938 29.855469 C 10.488281 27.496094 10.902344 24.085938 13.261719 22.238281 L 13.601562 21.96875 C 15.296875 20.644531 16.046875 18.441406 15.515625 16.359375 L 15.429688 16.023438 C 15.347656 15.703125 15.296875 15.371094 15.273438 15.039062 C 15.082031 12.046875 17.347656 9.464844 20.339844 9.269531 L 21.371094 9.203125 C 23.417969 9.074219 25.214844 7.800781 26.019531 5.914062 L 26.398438 5.011719 C 26.507812 4.761719 26.628906 4.519531 26.773438 4.285156 C 27.558594 3.011719 28.785156 2.171875 30.136719 1.851562 C 31.148438 1.609375 32.230469 1.65625 33.246094 2.027344 L 33.511719 2.15625 L 33.527344 2.160156 L 33.625 2.210938 L 34.234375 2.503906 L 35.066406 3.015625 C 36.816406 4.089844 39.019531 4.082031 40.761719 3 L 41.644531 2.453125 C 41.929688 2.277344 42.230469 2.128906 42.542969 2.007812 C 43.066406 1.804688 43.605469 1.6875 44.136719 1.652344 Z M 44.136719 1.652344 " fill-opacity="1" fill-rule="evenodd"/></g></svg>