<svg xmlns="http://www.w3.org/2000/svg" xmlns:xlink="http://www.w3.org/1999/xlink" width="55" zoomAndPan="magnify" viewBox="0 0 41.25 41.250001" height="55" preserveAspectRatio="xMidYMid meet" version="1.0"><defs><clipPath id="484fa63a02"><path d="M 0 0 L 40.511719 0 L 40.511719 40.511719 L 0 40.511719 Z M 0 0 " clip-rule="nonzero"/></clipPath><clipPath id="46486813bc"><path d="M 14.3125 12.15625 L 26.097656 12.15625 L 26.097656 28.355469 L 14.3125 28.355469 Z M 14.3125 12.15625 " clip-rule="nonzero"/></clipPath></defs><g clip-path="url(#484fa63a02)"><path fill="#ffffff" d="M 0 0 L 40.511719 0 L 40.511719 40.511719 L 0 40.511719 Z M 0 0 " fill-opacity="1" fill-rule="nonzero"/><path fill="#ffffff" d="M 0 0 L 40.511719 0 L 40.511719 40.511719 L 0 40.511719 Z M 0 0 " fill-opacity="1" fill-rule="nonzero"/></g><g clip-path="url(#46486813bc)"><path fill="#004a82" d="M 16.917969 22.390625 L 17.046875 22.527344 L 17.152344 22.683594 L 17.234375 22.855469 L 17.265625 22.9375 L 17.316406 23.039062 L 17.378906 23.167969 L 17.382812 23.171875 C 17.386719 23.175781 17.386719 23.175781 17.386719 23.179688 L 17.460938 23.269531 L 17.546875 23.382812 C 17.976562 23.839844 18.679688 23.945312 19.234375 23.605469 L 19.453125 23.46875 C 19.613281 23.367188 19.792969 23.304688 19.972656 23.277344 L 20.042969 23.273438 L 19.941406 23.617188 L 18.65625 28.140625 C 18.632812 28.222656 18.578125 28.320312 18.5 28.355469 C 18.449219 28.367188 18.394531 28.34375 18.347656 28.296875 L 17.226562 27.230469 L 15.738281 27.535156 C 15.679688 27.542969 15.589844 27.558594 15.523438 27.496094 C 15.480469 27.417969 15.511719 27.332031 15.53125 27.25 L 16.78125 22.859375 Z M 23.539062 22.195312 L 23.730469 22.859375 L 24.980469 27.25 C 25.003906 27.332031 25.03125 27.417969 24.988281 27.496094 C 24.921875 27.558594 24.832031 27.542969 24.773438 27.535156 L 23.285156 27.230469 L 22.164062 28.296875 C 22.117188 28.34375 22.0625 28.367188 22.011719 28.355469 C 21.933594 28.320312 21.878906 28.222656 21.855469 28.140625 L 20.570312 23.617188 L 20.480469 23.308594 L 20.519531 23.316406 C 20.640625 23.347656 20.753906 23.398438 20.863281 23.464844 L 21.070312 23.589844 C 21.128906 23.625 21.1875 23.65625 21.25 23.683594 L 21.308594 23.703125 L 21.507812 23.765625 C 22.121094 23.886719 22.757812 23.566406 23.011719 22.96875 L 23.105469 22.746094 C 23.179688 22.570312 23.289062 22.417969 23.425781 22.292969 Z M 17.972656 17.199219 L 18.804688 17.199219 C 18.875 17.199219 18.933594 17.257812 18.933594 17.328125 L 18.933594 19.746094 C 18.933594 19.816406 18.875 19.875 18.804688 19.875 L 17.972656 19.875 C 17.898438 19.875 17.839844 19.816406 17.839844 19.746094 L 17.839844 17.328125 C 17.839844 17.257812 17.898438 17.199219 17.972656 17.199219 Z M 20.4375 15.296875 C 20.617188 15.277344 20.75 15.519531 20.769531 15.71875 C 20.773438 15.757812 20.777344 15.796875 20.78125 15.839844 L 20.777344 15.910156 C 20.785156 16.003906 20.765625 16.234375 20.761719 16.402344 C 20.757812 16.574219 20.734375 16.804688 20.757812 16.9375 L 20.765625 16.984375 L 22.085938 16.984375 C 22.085938 16.984375 22.085938 16.984375 22.085938 16.988281 L 22.105469 16.984375 C 22.417969 16.984375 22.671875 17.167969 22.671875 17.394531 C 22.671875 17.535156 22.570312 17.660156 22.421875 17.734375 L 22.339844 17.765625 L 22.355469 17.769531 C 22.539062 17.824219 22.664062 17.957031 22.664062 18.113281 C 22.664062 18.269531 22.539062 18.402344 22.355469 18.460938 L 22.304688 18.472656 L 22.332031 18.484375 C 22.464844 18.546875 22.554688 18.652344 22.554688 18.777344 C 22.554688 18.921875 22.425781 19.046875 22.246094 19.101562 L 22.183594 19.117188 L 22.207031 19.125 C 22.339844 19.1875 22.425781 19.296875 22.425781 19.417969 C 22.425781 19.613281 22.203125 19.769531 21.925781 19.769531 L 21.867188 19.765625 C 21.867188 19.769531 21.867188 19.769531 21.867188 19.769531 L 19.765625 19.769531 C 19.449219 19.769531 19.195312 19.515625 19.195312 19.199219 L 19.195312 17.554688 C 19.195312 17.515625 19.195312 17.5 19.203125 17.464844 L 19.21875 17.402344 L 19.226562 17.363281 C 19.292969 17.070312 19.484375 16.789062 19.597656 16.617188 L 19.808594 16.203125 C 19.878906 16.027344 19.925781 15.914062 19.941406 15.855469 C 19.941406 15.851562 20.082031 15.542969 20.078125 15.535156 C 20.167969 15.382812 20.292969 15.3125 20.4375 15.296875 Z M 20.257812 13.894531 C 18.152344 13.894531 16.445312 15.605469 16.445312 17.710938 C 16.445312 19.816406 18.152344 21.523438 20.257812 21.523438 C 22.363281 21.523438 24.070312 19.816406 24.070312 17.710938 C 24.070312 15.605469 22.363281 13.894531 20.257812 13.894531 Z M 21.757812 12.160156 C 22.117188 12.136719 22.46875 12.273438 22.71875 12.53125 L 22.734375 12.546875 L 22.761719 12.582031 L 22.867188 12.71875 L 22.882812 12.742188 C 22.925781 12.808594 22.957031 12.875 22.984375 12.945312 L 23.011719 13.019531 C 23.035156 13.074219 23.0625 13.128906 23.089844 13.179688 L 23.1875 13.324219 L 23.4375 13.566406 C 23.625 13.703125 23.855469 13.785156 24.097656 13.792969 L 24.285156 13.804688 L 24.332031 13.8125 C 24.382812 13.820312 24.394531 13.832031 24.445312 13.839844 C 24.996094 13.980469 25.394531 14.492188 25.367188 15.085938 L 25.34375 15.226562 L 25.332031 15.265625 L 25.324219 15.332031 L 25.320312 15.375 C 25.214844 15.734375 25.28125 16.113281 25.484375 16.414062 L 25.597656 16.550781 L 25.734375 16.675781 L 25.753906 16.699219 L 25.914062 16.851562 L 25.929688 16.871094 L 25.9375 16.882812 L 25.976562 16.945312 L 26.050781 17.050781 L 26.0625 17.078125 L 26.070312 17.09375 L 26.089844 17.140625 L 26.144531 17.269531 C 26.148438 17.28125 26.152344 17.292969 26.152344 17.308594 L 26.15625 17.316406 L 26.164062 17.351562 L 26.195312 17.5 L 26.195312 17.546875 C 26.195312 17.546875 26.195312 17.550781 26.195312 17.550781 L 26.195312 17.566406 L 26.199219 17.734375 C 26.183594 17.96875 26.097656 18.203125 25.941406 18.402344 C 25.878906 18.480469 25.8125 18.546875 25.734375 18.609375 L 25.65625 18.667969 C 25.273438 18.96875 25.105469 19.464844 25.226562 19.9375 L 25.246094 20.011719 C 25.414062 20.667969 25.015625 21.335938 24.363281 21.503906 C 24.289062 21.523438 24.210938 21.535156 24.136719 21.539062 L 23.902344 21.554688 C 23.441406 21.585938 23.035156 21.871094 22.851562 22.296875 L 22.765625 22.5 C 22.535156 23.046875 21.957031 23.339844 21.398438 23.226562 L 21.214844 23.167969 L 21.160156 23.152344 C 21.105469 23.128906 21.050781 23.101562 20.996094 23.066406 L 20.808594 22.953125 C 20.414062 22.710938 19.917969 22.710938 19.523438 22.957031 L 19.324219 23.078125 C 18.820312 23.390625 18.179688 23.292969 17.789062 22.878906 L 17.707031 22.777344 L 17.644531 22.695312 C 17.640625 22.691406 17.640625 22.6875 17.640625 22.6875 L 17.636719 22.683594 L 17.53125 22.472656 L 17.503906 22.398438 L 17.425781 22.238281 L 17.332031 22.097656 C 17.113281 21.820312 16.785156 21.644531 16.421875 21.625 L 16.324219 21.621094 C 16.070312 21.609375 15.835938 21.523438 15.648438 21.382812 L 15.605469 21.34375 L 15.597656 21.339844 L 15.582031 21.320312 L 15.472656 21.222656 L 15.445312 21.1875 L 15.429688 21.171875 L 15.394531 21.121094 L 15.332031 21.035156 L 15.316406 21.003906 L 15.296875 20.976562 L 15.257812 20.882812 L 15.226562 20.824219 L 15.222656 20.800781 L 15.207031 20.761719 L 15.171875 20.609375 C 15.171875 20.601562 15.167969 20.59375 15.167969 20.589844 L 15.167969 20.585938 L 15.15625 20.53125 C 15.136719 20.371094 15.148438 20.207031 15.195312 20.042969 C 15.265625 19.804688 15.261719 19.554688 15.1875 19.328125 C 15.1875 19.324219 15.183594 19.320312 15.183594 19.320312 L 15.136719 19.222656 L 15.140625 19.207031 C 15.132812 19.191406 15.125 19.175781 15.121094 19.160156 C 15.042969 19 14.925781 18.855469 14.777344 18.738281 C 14.703125 18.675781 14.632812 18.609375 14.570312 18.53125 C 14.15625 17.996094 14.25 17.226562 14.78125 16.808594 L 14.859375 16.75 C 15.242188 16.449219 15.410156 15.953125 15.289062 15.480469 L 15.269531 15.40625 C 15.253906 15.332031 15.242188 15.257812 15.234375 15.183594 C 15.191406 14.507812 15.703125 13.925781 16.378906 13.878906 L 16.613281 13.863281 C 17.074219 13.835938 17.480469 13.546875 17.664062 13.121094 L 17.75 12.917969 C 17.773438 12.863281 17.800781 12.804688 17.832031 12.753906 C 18.011719 12.464844 18.289062 12.277344 18.59375 12.203125 C 18.820312 12.148438 19.066406 12.160156 19.296875 12.242188 L 19.355469 12.273438 L 19.359375 12.273438 L 19.382812 12.285156 L 19.519531 12.351562 L 19.707031 12.46875 C 20.101562 12.710938 20.601562 12.707031 20.992188 12.464844 L 21.191406 12.339844 C 21.257812 12.300781 21.324219 12.265625 21.394531 12.238281 C 21.515625 12.191406 21.636719 12.167969 21.757812 12.160156 Z M 21.757812 12.160156 " fill-opacity="1" fill-rule="evenodd"/></g></svg>