<svg xmlns="http://www.w3.org/2000/svg" xmlns:xlink="http://www.w3.org/1999/xlink" width="100" zoomAndPan="magnify" viewBox="0 0 75 74.999997" height="100" preserveAspectRatio="xMidYMid meet" version="1.0"><defs><clipPath id="90f1cebd5f"><path d="M 3.648438 3.648438 L 71.148438 3.648438 L 71.148438 71.148438 L 3.648438 71.148438 Z M 3.648438 3.648438 " clip-rule="nonzero"/></clipPath></defs><path fill="#004a82" d="M 51.527344 23.246094 L 48.1875 23.246094 L 48.1875 25.027344 C 48.1875 25.265625 48.144531 25.492188 48.054688 25.710938 C 47.960938 25.929688 47.832031 26.121094 47.667969 26.289062 C 47.5 26.457031 47.308594 26.582031 47.089844 26.675781 C 46.871094 26.765625 46.644531 26.808594 46.40625 26.808594 C 46.171875 26.808594 45.945312 26.765625 45.726562 26.675781 C 45.507812 26.582031 45.3125 26.457031 45.148438 26.289062 C 44.980469 26.121094 44.851562 25.929688 44.761719 25.710938 C 44.671875 25.492188 44.625 25.265625 44.625 25.027344 L 44.625 23.246094 L 39.28125 23.246094 L 39.28125 25.027344 C 39.28125 25.265625 39.234375 25.492188 39.144531 25.710938 C 39.054688 25.929688 38.925781 26.121094 38.757812 26.289062 C 38.59375 26.457031 38.398438 26.582031 38.179688 26.675781 C 37.960938 26.765625 37.734375 26.808594 37.5 26.808594 C 37.261719 26.808594 37.035156 26.765625 36.816406 26.675781 C 36.597656 26.582031 36.40625 26.457031 36.238281 26.289062 C 36.074219 26.121094 35.945312 25.929688 35.851562 25.710938 C 35.761719 25.492188 35.71875 25.265625 35.71875 25.027344 L 35.71875 23.246094 L 30.375 23.246094 L 30.375 25.027344 C 30.375 25.265625 30.328125 25.492188 30.238281 25.710938 C 30.148438 25.929688 30.019531 26.121094 29.851562 26.289062 C 29.683594 26.457031 29.492188 26.582031 29.273438 26.675781 C 29.054688 26.765625 28.828125 26.808594 28.589844 26.808594 C 28.355469 26.808594 28.128906 26.765625 27.910156 26.675781 C 27.691406 26.582031 27.5 26.457031 27.332031 26.289062 C 27.164062 26.121094 27.035156 25.929688 26.945312 25.710938 C 26.855469 25.492188 26.808594 25.265625 26.808594 25.027344 L 26.808594 23.246094 L 23.472656 23.246094 C 23.207031 23.246094 22.949219 23.296875 22.703125 23.398438 C 22.457031 23.5 22.242188 23.644531 22.054688 23.835938 C 21.867188 24.023438 21.722656 24.238281 21.617188 24.484375 C 21.515625 24.730469 21.464844 24.984375 21.464844 25.25 L 21.464844 30.375 L 53.535156 30.375 L 53.535156 25.25 C 53.53125 24.984375 53.480469 24.730469 53.378906 24.484375 C 53.277344 24.238281 53.132812 24.023438 52.945312 23.835938 C 52.757812 23.644531 52.539062 23.5 52.292969 23.398438 C 52.046875 23.296875 51.792969 23.246094 51.527344 23.246094 Z M 51.527344 23.246094 " fill-opacity="1" fill-rule="nonzero"/><path fill="#004a82" d="M 21.464844 49.746094 C 21.464844 50.011719 21.515625 50.269531 21.617188 50.515625 C 21.722656 50.761719 21.867188 50.976562 22.054688 51.164062 C 22.242188 51.351562 22.457031 51.496094 22.703125 51.597656 C 22.949219 51.699219 23.207031 51.75 23.472656 51.75 L 51.527344 51.75 C 51.792969 51.75 52.046875 51.699219 52.292969 51.597656 C 52.539062 51.496094 52.757812 51.351562 52.945312 51.164062 C 53.132812 50.976562 53.277344 50.761719 53.378906 50.515625 C 53.480469 50.269531 53.53125 50.011719 53.535156 49.746094 L 53.535156 33.9375 L 21.464844 33.9375 Z M 30.894531 41.585938 C 31.0625 41.417969 31.253906 41.289062 31.472656 41.199219 C 31.691406 41.109375 31.917969 41.0625 32.15625 41.0625 C 32.390625 41.0625 32.617188 41.109375 32.835938 41.199219 C 33.054688 41.289062 33.246094 41.417969 33.414062 41.585938 L 35.71875 43.886719 L 41.585938 38.019531 C 41.753906 37.859375 41.945312 37.734375 42.160156 37.648438 C 42.378906 37.5625 42.605469 37.519531 42.835938 37.519531 C 43.070312 37.523438 43.296875 37.570312 43.511719 37.660156 C 43.726562 37.75 43.917969 37.878906 44.082031 38.042969 C 44.246094 38.207031 44.375 38.398438 44.464844 38.613281 C 44.554688 38.828125 44.601562 39.054688 44.605469 39.289062 C 44.605469 39.519531 44.5625 39.746094 44.476562 39.964844 C 44.390625 40.179688 44.265625 40.371094 44.105469 40.539062 L 36.976562 47.667969 C 36.808594 47.832031 36.617188 47.960938 36.398438 48.050781 C 36.179688 48.144531 35.953125 48.1875 35.71875 48.1875 C 35.480469 48.1875 35.253906 48.144531 35.035156 48.050781 C 34.816406 47.960938 34.625 47.832031 34.457031 47.667969 L 30.894531 44.105469 C 30.726562 43.9375 30.597656 43.742188 30.507812 43.527344 C 30.417969 43.308594 30.375 43.082031 30.375 42.84375 C 30.375 42.609375 30.417969 42.378906 30.507812 42.164062 C 30.597656 41.945312 30.726562 41.75 30.894531 41.585938 Z M 30.894531 41.585938 " fill-opacity="1" fill-rule="nonzero"/><g clip-path="url(#90f1cebd5f)"><path fill="#004a82" d="M 37.5 3.648438 C 36.390625 3.648438 35.285156 3.703125 34.179688 3.8125 C 33.078125 3.921875 31.984375 4.082031 30.894531 4.300781 C 29.808594 4.515625 28.734375 4.785156 27.671875 5.105469 C 26.613281 5.429688 25.570312 5.800781 24.546875 6.226562 C 23.519531 6.652344 22.519531 7.125 21.542969 7.648438 C 20.566406 8.167969 19.617188 8.738281 18.695312 9.355469 C 17.773438 9.96875 16.882812 10.628906 16.023438 11.332031 C 15.167969 12.035156 14.347656 12.78125 13.5625 13.5625 C 12.78125 14.347656 12.035156 15.167969 11.332031 16.023438 C 10.628906 16.882812 9.96875 17.773438 9.355469 18.695312 C 8.738281 19.617188 8.167969 20.566406 7.648438 21.542969 C 7.125 22.519531 6.652344 23.519531 6.226562 24.546875 C 5.800781 25.570312 5.429688 26.613281 5.105469 27.671875 C 4.785156 28.734375 4.515625 29.808594 4.300781 30.894531 C 4.082031 31.984375 3.921875 33.078125 3.8125 34.179688 C 3.703125 35.285156 3.648438 36.390625 3.648438 37.5 C 3.648438 38.609375 3.703125 39.714844 3.8125 40.816406 C 3.921875 41.921875 4.082031 43.015625 4.300781 44.101562 C 4.515625 45.191406 4.785156 46.265625 5.105469 47.324219 C 5.429688 48.386719 5.800781 49.429688 6.226562 50.453125 C 6.652344 51.476562 7.125 52.476562 7.648438 53.457031 C 8.167969 54.433594 8.738281 55.382812 9.355469 56.304688 C 9.96875 57.226562 10.628906 58.117188 11.332031 58.972656 C 12.035156 59.832031 12.78125 60.652344 13.5625 61.433594 C 14.347656 62.21875 15.167969 62.960938 16.023438 63.664062 C 16.882812 64.367188 17.773438 65.027344 18.695312 65.644531 C 19.617188 66.261719 20.566406 66.828125 21.542969 67.351562 C 22.519531 67.875 23.519531 68.347656 24.546875 68.773438 C 25.570312 69.195312 26.613281 69.570312 27.671875 69.890625 C 28.734375 70.214844 29.808594 70.480469 30.894531 70.699219 C 31.984375 70.914062 33.078125 71.078125 34.179688 71.1875 C 35.285156 71.292969 36.390625 71.347656 37.5 71.347656 C 38.609375 71.347656 39.714844 71.292969 40.816406 71.1875 C 41.921875 71.078125 43.015625 70.914062 44.101562 70.699219 C 45.191406 70.480469 46.265625 70.214844 47.324219 69.890625 C 48.386719 69.570312 49.429688 69.195312 50.453125 68.773438 C 51.476562 68.347656 52.476562 67.875 53.457031 67.351562 C 54.433594 66.828125 55.382812 66.261719 56.304688 65.644531 C 57.226562 65.027344 58.117188 64.367188 58.972656 63.664062 C 59.832031 62.960938 60.652344 62.21875 61.433594 61.433594 C 62.21875 60.652344 62.960938 59.832031 63.664062 58.972656 C 64.367188 58.117188 65.027344 57.226562 65.644531 56.304688 C 66.261719 55.382812 66.828125 54.433594 67.351562 53.457031 C 67.875 52.476562 68.347656 51.476562 68.773438 50.453125 C 69.195312 49.429688 69.570312 48.386719 69.890625 47.324219 C 70.214844 46.265625 70.480469 45.191406 70.699219 44.101562 C 70.914062 43.015625 71.078125 41.921875 71.1875 40.816406 C 71.292969 39.714844 71.347656 38.609375 71.347656 37.5 C 71.347656 36.390625 71.292969 35.285156 71.183594 34.183594 C 71.074219 33.078125 70.910156 31.984375 70.691406 30.898438 C 70.476562 29.8125 70.207031 28.738281 69.882812 27.675781 C 69.558594 26.617188 69.1875 25.574219 68.761719 24.550781 C 68.335938 23.527344 67.863281 22.527344 67.339844 21.550781 C 66.816406 20.574219 66.25 19.625 65.632812 18.703125 C 65.015625 17.78125 64.355469 16.890625 63.652344 16.035156 C 62.949219 15.179688 62.207031 14.359375 61.421875 13.574219 C 60.640625 12.792969 59.820312 12.046875 58.964844 11.34375 C 58.105469 10.640625 57.21875 9.980469 56.296875 9.367188 C 55.375 8.75 54.425781 8.179688 53.449219 7.65625 C 52.472656 7.136719 51.472656 6.660156 50.445312 6.234375 C 49.421875 5.8125 48.382812 5.4375 47.320312 5.117188 C 46.261719 4.792969 45.1875 4.523438 44.101562 4.304688 C 43.011719 4.089844 41.917969 3.925781 40.816406 3.816406 C 39.714844 3.707031 38.609375 3.652344 37.5 3.648438 Z M 57.097656 49.746094 C 57.097656 50.113281 57.058594 50.476562 56.988281 50.832031 C 56.917969 51.191406 56.8125 51.539062 56.671875 51.878906 C 56.53125 52.214844 56.359375 52.535156 56.15625 52.839844 C 55.953125 53.144531 55.722656 53.425781 55.464844 53.683594 C 55.203125 53.941406 54.921875 54.171875 54.621094 54.375 C 54.316406 54.578125 53.996094 54.75 53.65625 54.890625 C 53.320312 55.03125 52.972656 55.136719 52.613281 55.207031 C 52.253906 55.277344 51.894531 55.316406 51.527344 55.316406 L 23.472656 55.316406 C 23.105469 55.316406 22.742188 55.277344 22.386719 55.207031 C 22.027344 55.136719 21.679688 55.03125 21.339844 54.890625 C 21.003906 54.75 20.683594 54.578125 20.378906 54.375 C 20.074219 54.171875 19.792969 53.941406 19.535156 53.683594 C 19.277344 53.425781 19.046875 53.144531 18.84375 52.839844 C 18.640625 52.535156 18.46875 52.214844 18.328125 51.878906 C 18.1875 51.539062 18.082031 51.191406 18.011719 50.832031 C 17.9375 50.476562 17.902344 50.113281 17.902344 49.746094 L 17.902344 25.25 C 17.902344 24.886719 17.9375 24.523438 18.011719 24.164062 C 18.082031 23.808594 18.1875 23.457031 18.328125 23.121094 C 18.46875 22.785156 18.640625 22.464844 18.84375 22.160156 C 19.046875 21.855469 19.277344 21.574219 19.535156 21.316406 C 19.792969 21.058594 20.074219 20.828125 20.378906 20.625 C 20.683594 20.421875 21.003906 20.25 21.339844 20.109375 C 21.679688 19.96875 22.027344 19.863281 22.386719 19.792969 C 22.742188 19.71875 23.105469 19.683594 23.472656 19.683594 L 26.808594 19.683594 L 26.808594 17.902344 C 26.808594 17.664062 26.855469 17.4375 26.945312 17.21875 C 27.035156 17.003906 27.164062 16.808594 27.332031 16.640625 C 27.5 16.476562 27.691406 16.347656 27.910156 16.257812 C 28.128906 16.164062 28.355469 16.121094 28.589844 16.121094 C 28.828125 16.121094 29.054688 16.164062 29.273438 16.257812 C 29.492188 16.347656 29.683594 16.476562 29.851562 16.640625 C 30.019531 16.808594 30.148438 17.003906 30.238281 17.21875 C 30.328125 17.4375 30.375 17.664062 30.375 17.902344 L 30.375 19.683594 L 35.71875 19.683594 L 35.71875 17.902344 C 35.71875 17.664062 35.761719 17.4375 35.851562 17.21875 C 35.945312 17.003906 36.074219 16.808594 36.238281 16.640625 C 36.40625 16.476562 36.597656 16.347656 36.816406 16.257812 C 37.035156 16.164062 37.261719 16.121094 37.5 16.121094 C 37.734375 16.121094 37.960938 16.164062 38.179688 16.257812 C 38.398438 16.347656 38.59375 16.476562 38.757812 16.640625 C 38.925781 16.808594 39.054688 17.003906 39.144531 17.21875 C 39.234375 17.4375 39.28125 17.664062 39.28125 17.902344 L 39.28125 19.683594 L 44.625 19.683594 L 44.625 17.902344 C 44.625 17.664062 44.671875 17.4375 44.761719 17.21875 C 44.851562 17.003906 44.980469 16.808594 45.148438 16.640625 C 45.3125 16.476562 45.507812 16.347656 45.726562 16.257812 C 45.945312 16.164062 46.171875 16.121094 46.40625 16.121094 C 46.644531 16.121094 46.871094 16.164062 47.089844 16.257812 C 47.308594 16.347656 47.5 16.476562 47.667969 16.640625 C 47.832031 16.808594 47.960938 17.003906 48.054688 17.21875 C 48.144531 17.4375 48.1875 17.664062 48.1875 17.902344 L 48.1875 19.683594 L 51.527344 19.683594 C 51.894531 19.683594 52.253906 19.71875 52.613281 19.792969 C 52.972656 19.863281 53.320312 19.96875 53.65625 20.109375 C 53.996094 20.25 54.316406 20.421875 54.621094 20.625 C 54.921875 20.828125 55.203125 21.058594 55.464844 21.316406 C 55.722656 21.574219 55.953125 21.855469 56.15625 22.160156 C 56.359375 22.464844 56.53125 22.785156 56.671875 23.121094 C 56.8125 23.457031 56.917969 23.808594 56.988281 24.164062 C 57.058594 24.523438 57.097656 24.886719 57.097656 25.25 Z M 57.097656 49.746094 " fill-opacity="1" fill-rule="nonzero"/></g></svg>