<svg xmlns="http://www.w3.org/2000/svg" xmlns:xlink="http://www.w3.org/1999/xlink" width="55" zoomAndPan="magnify" viewBox="0 0 41.25 41.250001" height="55" preserveAspectRatio="xMidYMid meet" version="1.0"><defs><clipPath id="9c5a567aab"><path d="M 0 0 L 40.511719 0 L 40.511719 40.511719 L 0 40.511719 Z M 0 0 " clip-rule="nonzero"/></clipPath><clipPath id="ce3d695e90"><path d="M 13.976562 12.71875 L 26.5 12.71875 L 26.5 27.449219 L 13.976562 27.449219 Z M 13.976562 12.71875 " clip-rule="nonzero"/></clipPath></defs><g clip-path="url(#9c5a567aab)"><path fill="#ffffff" d="M 0 0 L 40.511719 0 L 40.511719 40.511719 L 0 40.511719 Z M 0 0 " fill-opacity="1" fill-rule="nonzero"/><path fill="#ffffff" d="M 0 0 L 40.511719 0 L 40.511719 40.511719 L 0 40.511719 Z M 0 0 " fill-opacity="1" fill-rule="nonzero"/></g><g clip-path="url(#ce3d695e90)"><path fill="#004a82" d="M 15.039062 17.117188 C 14.957031 16.882812 14.945312 16.644531 15.007812 16.40625 C 15.070312 16.167969 15.195312 15.964844 15.382812 15.804688 C 15.570312 15.660156 15.785156 15.578125 16.019531 15.558594 C 16.253906 15.542969 16.476562 15.589844 16.683594 15.707031 C 16.0625 16.089844 15.511719 16.558594 15.039062 17.117188 Z M 20.25 14.695312 C 20.332031 14.695312 20.414062 14.699219 20.492188 14.703125 L 20.492188 13.703125 L 19.964844 13.703125 L 19.964844 14.703125 C 20.0625 14.699219 20.15625 14.695312 20.25 14.695312 Z M 25.398438 17.039062 C 25.46875 16.820312 25.472656 16.597656 25.410156 16.375 C 25.34375 16.152344 25.222656 15.964844 25.046875 15.816406 C 24.867188 15.667969 24.664062 15.578125 24.433594 15.554688 C 24.199219 15.53125 23.984375 15.570312 23.777344 15.679688 C 24.386719 16.050781 24.929688 16.503906 25.398438 17.039062 Z M 24.050781 21.519531 C 24.054688 21.597656 24.082031 21.664062 24.136719 21.71875 C 24.191406 21.773438 24.257812 21.804688 24.335938 21.804688 L 25.042969 21.804688 C 25.007812 22.398438 24.867188 22.964844 24.621094 23.507812 C 24.375 24.046875 24.039062 24.527344 23.617188 24.941406 C 23.191406 25.359375 22.707031 25.6875 22.164062 25.921875 C 21.617188 26.160156 21.050781 26.292969 20.457031 26.316406 C 20.457031 26.304688 20.457031 26.296875 20.460938 26.285156 L 20.460938 25.40625 C 20.460938 25.328125 20.429688 25.261719 20.375 25.207031 C 20.320312 25.152344 20.253906 25.125 20.175781 25.125 C 20.097656 25.125 20.03125 25.152344 19.972656 25.207031 C 19.917969 25.261719 19.890625 25.328125 19.890625 25.40625 L 19.890625 26.285156 C 19.890625 26.292969 19.894531 26.300781 19.894531 26.308594 C 19.328125 26.265625 18.789062 26.125 18.269531 25.890625 C 17.753906 25.65625 17.292969 25.339844 16.890625 24.945312 C 16.484375 24.546875 16.160156 24.089844 15.917969 23.578125 C 15.675781 23.066406 15.527344 22.527344 15.472656 21.964844 C 15.488281 21.96875 15.503906 21.96875 15.523438 21.96875 L 16.179688 21.96875 C 16.257812 21.96875 16.324219 21.941406 16.378906 21.886719 C 16.46875 21.796875 16.488281 21.691406 16.441406 21.574219 C 16.394531 21.457031 16.304688 21.398438 16.179688 21.398438 L 15.523438 21.398438 C 15.5 21.402344 15.476562 21.402344 15.457031 21.410156 C 15.46875 20.820312 15.589844 20.25 15.8125 19.703125 C 16.039062 19.160156 16.351562 18.671875 16.753906 18.238281 C 17.160156 17.808594 17.628906 17.464844 18.15625 17.207031 C 18.6875 16.949219 19.25 16.792969 19.835938 16.742188 L 19.835938 17.632812 C 19.835938 17.710938 19.863281 17.78125 19.917969 17.835938 C 19.976562 17.890625 20.042969 17.917969 20.121094 17.917969 C 20.199219 17.917969 20.265625 17.890625 20.320312 17.835938 C 20.375 17.78125 20.40625 17.710938 20.40625 17.632812 L 20.40625 16.726562 C 21.003906 16.746094 21.578125 16.875 22.125 17.109375 C 22.675781 17.34375 23.167969 17.667969 23.59375 18.085938 C 24.023438 18.5 24.363281 18.980469 24.613281 19.527344 C 24.863281 20.070312 25.003906 20.640625 25.042969 21.238281 L 24.335938 21.238281 C 24.257812 21.238281 24.191406 21.265625 24.136719 21.320312 C 24.082031 21.375 24.054688 21.441406 24.050781 21.519531 Z M 23.363281 19.296875 C 23.296875 19.238281 23.222656 19.207031 23.132812 19.207031 C 23.046875 19.207031 22.96875 19.238281 22.90625 19.296875 L 19.976562 22.230469 L 18.882812 20.96875 C 18.832031 20.890625 18.761719 20.84375 18.671875 20.824219 C 18.582031 20.808594 18.496094 20.828125 18.421875 20.878906 C 18.347656 20.933594 18.304688 21.007812 18.289062 21.101562 C 18.277344 21.191406 18.300781 21.273438 18.359375 21.347656 L 19.675781 22.910156 C 19.6875 22.925781 19.699219 22.9375 19.710938 22.953125 C 19.773438 23.015625 19.851562 23.046875 19.9375 23.046875 C 20.027344 23.046875 20.105469 23.015625 20.167969 22.949219 L 23.363281 19.75 C 23.425781 19.6875 23.457031 19.613281 23.457031 19.523438 C 23.457031 19.433594 23.425781 19.359375 23.363281 19.296875 Z M 21.589844 12.71875 L 18.871094 12.71875 L 18.871094 13.136719 L 21.589844 13.136719 Z M 26.519531 21.535156 C 26.519531 21.945312 26.480469 22.351562 26.398438 22.757812 C 26.320312 23.160156 26.199219 23.550781 26.042969 23.933594 C 25.886719 24.3125 25.691406 24.671875 25.464844 25.015625 C 25.234375 25.359375 24.972656 25.675781 24.683594 25.964844 C 24.390625 26.257812 24.074219 26.515625 23.734375 26.746094 C 23.390625 26.972656 23.03125 27.167969 22.648438 27.324219 C 22.269531 27.480469 21.878906 27.601562 21.472656 27.679688 C 21.070312 27.761719 20.660156 27.800781 20.25 27.800781 C 19.839844 27.800781 19.429688 27.761719 19.027344 27.679688 C 18.625 27.597656 18.230469 27.480469 17.851562 27.324219 C 17.472656 27.164062 17.109375 26.972656 16.769531 26.742188 C 16.425781 26.515625 16.109375 26.253906 15.816406 25.964844 C 15.527344 25.671875 15.265625 25.355469 15.039062 25.015625 C 14.808594 24.671875 14.617188 24.308594 14.460938 23.929688 C 14.300781 23.550781 14.183594 23.15625 14.101562 22.753906 C 14.023438 22.351562 13.984375 21.941406 13.984375 21.53125 C 13.984375 21.121094 14.023438 20.710938 14.101562 20.308594 C 14.183594 19.90625 14.300781 19.511719 14.460938 19.132812 C 14.617188 18.753906 14.8125 18.390625 15.039062 18.046875 C 15.269531 17.707031 15.527344 17.390625 15.820312 17.097656 C 16.109375 16.808594 16.425781 16.546875 16.769531 16.320312 C 17.113281 16.089844 17.472656 15.898438 17.851562 15.738281 C 18.234375 15.582031 18.625 15.464844 19.027344 15.382812 C 19.433594 15.304688 19.839844 15.261719 20.25 15.261719 C 20.664062 15.261719 21.070312 15.304688 21.472656 15.386719 C 21.878906 15.464844 22.269531 15.585938 22.648438 15.742188 C 23.03125 15.898438 23.390625 16.09375 23.734375 16.320312 C 24.074219 16.550781 24.390625 16.8125 24.683594 17.101562 C 24.972656 17.394531 25.234375 17.710938 25.460938 18.050781 C 25.691406 18.394531 25.882812 18.753906 26.042969 19.136719 C 26.199219 19.515625 26.320312 19.90625 26.398438 20.3125 C 26.480469 20.714844 26.519531 21.121094 26.519531 21.535156 Z M 25.632812 21.523438 C 25.632812 21.171875 25.601562 20.820312 25.53125 20.472656 C 25.460938 20.125 25.359375 19.789062 25.222656 19.464844 C 25.089844 19.136719 24.921875 18.828125 24.726562 18.53125 C 24.53125 18.238281 24.308594 17.96875 24.058594 17.71875 C 23.808594 17.46875 23.535156 17.246094 23.242188 17.046875 C 22.949219 16.851562 22.636719 16.6875 22.3125 16.550781 C 21.984375 16.414062 21.648438 16.3125 21.300781 16.246094 C 20.957031 16.175781 20.605469 16.140625 20.25 16.140625 C 19.898438 16.140625 19.546875 16.175781 19.203125 16.246094 C 18.855469 16.3125 18.519531 16.414062 18.191406 16.550781 C 17.867188 16.6875 17.554688 16.851562 17.261719 17.046875 C 16.96875 17.246094 16.695312 17.46875 16.445312 17.71875 C 16.195312 17.96875 15.972656 18.238281 15.777344 18.53125 C 15.578125 18.828125 15.414062 19.136719 15.277344 19.464844 C 15.144531 19.789062 15.042969 20.125 14.972656 20.472656 C 14.902344 20.820312 14.871094 21.167969 14.871094 21.523438 C 14.871094 21.875 14.902344 22.226562 14.972656 22.574219 C 15.042969 22.921875 15.144531 23.257812 15.277344 23.582031 C 15.414062 23.910156 15.578125 24.21875 15.777344 24.511719 C 15.972656 24.808594 16.195312 25.078125 16.445312 25.328125 C 16.695312 25.578125 16.96875 25.800781 17.261719 26 C 17.554688 26.195312 17.867188 26.359375 18.191406 26.496094 C 18.519531 26.632812 18.855469 26.734375 19.203125 26.800781 C 19.546875 26.871094 19.898438 26.90625 20.25 26.90625 C 20.605469 26.90625 20.953125 26.871094 21.300781 26.800781 C 21.648438 26.730469 21.984375 26.628906 22.308594 26.496094 C 22.636719 26.359375 22.945312 26.191406 23.242188 25.996094 C 23.535156 25.800781 23.804688 25.578125 24.054688 25.328125 C 24.304688 25.078125 24.527344 24.804688 24.726562 24.511719 C 24.921875 24.21875 25.085938 23.910156 25.222656 23.582031 C 25.359375 23.253906 25.460938 22.917969 25.53125 22.574219 C 25.597656 22.226562 25.632812 21.875 25.632812 21.523438 Z M 25.632812 21.523438 " fill-opacity="1" fill-rule="nonzero"/></g></svg>